<svg width="75" height="55" viewBox="0 0 75 55" fill="none" xmlns="http://www.w3.org/2000/svg">
<path d="M27.6584 53.1797C29.6854 52.7081 31.6691 52.0636 33.5823 51.2619C34.5741 50.8427 35.5443 50.3658 36.6012 50.1143C37.6147 49.868 38.6662 49.7947 39.7122 49.8209C40.9208 49.8471 42.1186 50.0043 43.311 50.1877C43.414 50.2034 43.4574 50.0514 43.3544 50.0357C41.3219 49.7266 39.2298 49.475 37.1865 49.8314C36.1351 50.0148 35.1703 50.4025 34.2056 50.827C33.1921 51.2724 32.1677 51.6758 31.1163 52.0322C29.9672 52.4199 28.802 52.7553 27.615 53.0278C27.512 53.0487 27.5554 53.2007 27.6584 53.1797Z" fill="#161616"/>
<path d="M40.4656 49.8785C41.3761 49.8576 42.2758 49.7318 43.1538 49.4855C44.0481 49.2392 44.9316 48.8934 45.88 48.9825C46.3624 49.0244 46.8339 49.1554 47.3 49.2707C47.7878 49.3912 48.2702 49.5117 48.758 49.6322C49.6956 49.8628 50.6279 50.0934 51.5655 50.3239C51.6685 50.3501 51.7118 50.1982 51.6089 50.172C50.6387 49.9309 49.6685 49.6951 48.6984 49.4541C47.8095 49.234 46.899 48.9406 45.9884 48.8358C45.0942 48.7362 44.2487 49.0034 43.4032 49.255C42.4438 49.5379 41.4683 49.7004 40.471 49.7266C40.3626 49.7213 40.3626 49.8785 40.4656 49.8785Z" fill="#161616"/>
<path d="M49.9558 50.6907C52.0858 50.2349 54.3242 49.8419 56.4868 50.3239C57.5599 50.565 58.568 51.0261 59.5707 51.4505C60.6221 51.9012 61.679 52.3466 62.7305 52.7972C62.828 52.8391 62.9093 52.7029 62.8118 52.661C61.1641 51.9588 59.5327 51.199 57.8526 50.5755C56.2266 49.9729 54.5356 49.8523 52.8121 50.041C51.8365 50.151 50.8663 50.3344 49.907 50.544C49.8095 50.5597 49.8528 50.7117 49.9558 50.6907Z" fill="#161616"/>
<path d="M30.6989 54.998C31.2572 54.9037 31.8208 54.8094 32.3791 54.7151C32.9373 54.6207 33.501 54.5002 34.0647 54.4426C34.585 54.3902 35.1161 54.4793 35.631 54.5264C36.2001 54.5841 36.7746 54.6365 37.3437 54.6941C37.4467 54.7046 37.4467 54.5474 37.3437 54.5369C36.7746 54.4793 36.2001 54.4269 35.631 54.3692C35.0782 54.3168 34.5199 54.2277 33.9617 54.2959C32.856 54.4269 31.7558 54.6627 30.6556 54.8461C30.5526 54.867 30.5959 55.019 30.6989 54.998Z" fill="#161616"/>
<path d="M48.1565 46.7817C48.2595 47.4105 48.3625 48.0445 48.4601 48.6733C46.3192 49.344 45.2677 49.7685 45.3111 49.9466C45.3653 50.1667 47.078 50.0043 50.4492 49.475C50.254 48.4794 50.0643 47.4838 49.8692 46.4882C49.2947 46.5825 48.7256 46.6821 48.1565 46.7817Z" fill="black"/>
<path d="M43.5496 25.7273C43.5117 26.4399 43.4575 27.4565 43.4087 28.6879C43.3599 29.9927 43.3328 30.6739 43.3383 31.5123C43.3383 31.8738 43.3545 33.3463 43.5496 35.2432C43.7122 36.8414 43.967 39.2308 44.8721 42.1704C45.2298 43.3337 45.7826 44.8953 46.6444 46.6769C47.0401 46.7345 47.5062 46.7659 48.0373 46.745C49.0346 46.6978 49.8421 46.462 50.4004 46.2419C50.2378 45.7284 50.0102 45 49.7717 44.125C49.4519 42.9407 48.5305 39.3723 48.1728 34.5777C47.994 32.1673 47.9289 29.1595 48.2433 25.7011C46.6823 25.7063 45.116 25.7168 43.5496 25.7273Z" fill="white"/>
<path opacity="0.09" d="M48.1078 26.1308C48.0048 26.5081 47.8693 27.053 47.723 27.7133C47.3436 29.4582 46.9533 31.9472 46.9913 36.1549C47.0129 38.7435 47.2026 42.3224 47.8964 46.6454C48.1674 46.6192 48.4438 46.5878 48.7311 46.5459C49.3327 46.4568 49.8909 46.3415 50.4004 46.2105C50.1727 45.4979 49.8584 44.4394 49.5332 43.1503C48.3788 38.5548 48.0536 34.6563 47.9668 32.0834C47.9181 30.5534 47.9181 28.5255 48.1078 26.1308Z" fill="#606060"/>
<path d="M48.124 25.8635C47.582 31.1664 47.9181 36.5479 49.1159 41.7512C49.4573 43.2289 49.8638 44.6856 50.3408 46.1266C50.3733 46.221 50.5305 46.1791 50.4979 46.0847C48.8286 41.0176 47.9939 35.7043 48.0373 30.3857C48.0481 28.8765 48.1349 27.3622 48.2866 25.8583C48.2975 25.764 48.1349 25.764 48.124 25.8635Z" fill="#161616"/>
<path d="M43.3274 30.5638C43.1269 34.8606 43.7502 39.1836 45.1485 43.2656C45.5388 44.4079 45.994 45.5293 46.5089 46.6245C46.5523 46.7188 46.6932 46.6349 46.6498 46.5459C44.8342 42.6421 43.7665 38.4238 43.5117 34.1532C43.4413 32.9585 43.4358 31.7638 43.49 30.5638C43.4955 30.459 43.3329 30.4643 43.3274 30.5638Z" fill="#161616"/>
<path d="M46.574 46.6716C46.7582 46.8707 47.181 46.8236 47.4303 46.8288C47.8097 46.8341 48.1945 46.7974 48.5685 46.745C48.975 46.6873 49.3815 46.6035 49.7825 46.5092C49.9831 46.462 50.4004 46.4515 50.5034 46.2367C50.5468 46.1476 50.4058 46.0638 50.3625 46.1581C50.3137 46.2681 50.0427 46.2891 49.9397 46.3101C49.788 46.3467 49.6416 46.3782 49.4899 46.4149C49.2026 46.4777 48.9208 46.5354 48.6335 46.5773C48.3354 46.6245 48.0373 46.6559 47.7392 46.6664C47.5116 46.6769 46.8612 46.745 46.6932 46.5616C46.6173 46.483 46.5035 46.5983 46.574 46.6716Z" fill="#161616"/>
<path d="M41.9508 25.6958C41.7936 26.026 41.5822 26.6548 41.4305 27.2102C41.2408 27.9176 41.192 28.3421 41.0836 28.9604C40.8831 30.1027 40.7476 30.2966 40.4549 31.5489C40.146 32.8904 40.005 33.9227 39.8966 34.7454C39.8099 35.3846 39.6528 36.6894 39.5823 38.3767C39.5498 39.105 39.5335 39.5347 39.5498 40.1268C39.5931 41.987 39.9021 43.4281 40.0376 43.994C40.4007 45.5503 40.9318 46.8812 41.463 47.9607C41.7069 48.0812 42.0754 48.2331 42.5416 48.3327C43.1161 48.4532 43.8532 48.6104 44.5578 48.2646C44.7529 48.1703 45.1973 47.9083 45.5333 47.2899C45.2732 46.6035 44.9534 45.6289 44.6987 44.4341C44.07 41.4683 44.2976 39.1208 44.4548 37.6431C44.7474 34.8502 45.4195 32.7541 46.574 29.1385C46.9642 27.9229 47.3111 26.9377 47.5495 26.2827C47.6308 25.764 47.8205 24.2077 46.9588 23.5579C45.6959 22.5938 42.7529 24.0243 41.9508 25.6958Z" fill="white"/>
<path opacity="0.08" d="M46.7853 28.4835C46.4331 29.0233 45.9453 29.825 45.4629 30.8363C44.8667 32.0834 43.9887 34.2738 43.5172 38.6387C43.257 41.0229 43.0836 44.3608 43.4846 48.3903C43.6527 48.4061 44.3681 48.4637 44.9805 47.9869C45.2949 47.7406 45.4575 47.4576 45.5388 47.2795C45.2732 46.5721 44.9317 45.5345 44.6716 44.2507C43.902 40.5094 44.3843 37.5016 44.742 35.4056C45.0347 33.6554 45.6038 31.2398 46.7853 28.4835Z" fill="#606060"/>
<path d="M42.8017 48.3222C42.986 48.9615 43.1703 49.606 43.3545 50.2453C40.4495 51.0994 39.0241 51.6339 39.0728 51.8435C39.127 52.0846 41.1053 51.9064 45.0076 51.309C44.9046 50.282 44.8017 49.2602 44.7041 48.2332C44.0646 48.2594 43.4304 48.2908 42.8017 48.3222Z" fill="black"/>
<path d="M41.8912 25.7587C41.3167 27.1631 41.024 28.6512 40.7151 30.1289C40.3899 31.6747 40.0755 33.2205 39.8479 34.782C39.4251 37.6745 39.295 40.6351 39.875 43.5171C40.1839 45.0682 40.7042 46.5773 41.4684 47.9711C41.5172 48.0602 41.6581 47.9816 41.6093 47.8925C38.7097 42.5634 39.5877 36.3278 40.7693 30.6739C41.1107 29.0337 41.4142 27.3622 42.0538 25.8007C42.0863 25.7063 41.9291 25.6644 41.8912 25.7587Z" fill="#161616"/>
<path d="M46.7149 28.4731C44.8992 33.1524 43.6852 38.1828 44.3897 43.1975C44.5849 44.5808 44.9263 45.938 45.4249 47.248C45.4629 47.3423 45.6201 47.3004 45.5821 47.2061C43.7773 42.4953 44.1458 37.3287 45.5008 32.555C45.891 31.1874 46.3572 29.8407 46.872 28.5097C46.91 28.4154 46.7528 28.3787 46.7149 28.4731Z" fill="#161616"/>
<path d="M41.4847 47.9659C42.2489 48.3746 43.1269 48.5475 43.9941 48.4375C44.7041 48.3432 45.5279 48.0288 45.5984 47.2375C45.6092 47.138 45.4466 47.138 45.4358 47.2375C45.3599 48.0602 44.3301 48.2803 43.631 48.3117C42.9101 48.3432 42.2001 48.1703 41.5714 47.8297C41.4739 47.7825 41.3926 47.9187 41.4847 47.9659Z" fill="#161616"/>
<path d="M43.0673 12.0404C42.921 12.2081 42.715 12.4648 42.5199 12.8054C41.8532 13.9373 41.8099 15.0481 41.799 16.0228C41.7882 17.4428 41.7774 18.1555 41.9345 19.7013C42.0809 21.1475 42.1188 23.2226 41.5931 25.8688C42.0646 26.2041 42.7529 26.5919 43.6526 26.7962C46.2433 27.3831 48.3896 25.9212 48.7961 25.6382C48.2812 22.7195 47.9994 20.3825 47.8368 18.7423C47.7338 17.7048 47.3544 16.1957 46.6011 13.1722C46.3734 12.25 46.1404 11.3697 45.4358 11.1181C44.4602 10.7618 43.2624 11.857 43.0673 12.0404Z" fill="#EC615B"/>
<path opacity="0.1" d="M45.4087 11.1915C45.4954 11.5321 45.6201 12.0456 45.7447 12.6797C45.9073 13.4971 46.1241 14.7337 46.2759 16.573C46.433 18.4699 46.6119 22.0278 46.6661 26.6286C47.0347 26.5238 47.4791 26.3666 47.9506 26.1151C48.265 25.9474 48.536 25.7692 48.7636 25.6015C48.7257 25.1981 48.6552 24.585 48.5414 23.8461C48.395 22.9186 48.2487 22.2741 48.1782 21.9545C48.0048 21.1266 47.8097 19.8899 47.788 18.1712C47.5658 17.2594 47.3978 16.5258 47.284 16.0385C46.9696 14.6551 46.8775 14.1469 46.639 13.3085C46.4005 12.4648 46.1512 11.7941 45.994 11.3906C45.7989 11.3173 45.6038 11.2544 45.4087 11.1915Z" fill="#606060"/>
<path d="M43.0618 12.5434C43.1106 12.6377 43.1919 12.6692 43.3708 12.753C43.5225 12.8264 43.6689 12.9155 43.8206 12.9783C44.2867 13.1722 44.8341 14.0316 44.9209 14.1678C45.2515 14.6866 45.6363 15.2944 45.8585 16.1748C45.9181 16.4053 46.0536 17.0027 45.8964 19.0201C45.7284 21.0899 45.5116 21.3781 45.6796 22.4104C45.8043 23.1597 45.9615 24.0557 46.7257 24.5431C47.4357 24.9937 48.2541 24.8365 48.4221 24.8051C49.4519 24.6112 50.0372 23.8409 50.6063 23.0916C51.4735 21.9545 51.8041 20.8174 51.945 20.1572C52.0101 19.848 51.9992 18.9415 51.983 17.1337C51.9613 15.2682 51.9288 14.6237 51.4247 14.0787C51.0833 13.7119 50.666 13.539 50.3787 13.4499C50.4004 13.3347 50.4058 13.1617 50.3082 13.015C50.124 12.7425 49.685 12.7478 49.4031 12.753C48.1945 12.7845 47.2948 13.5705 47.2514 13.6071C46.4981 14.2831 46.2758 15.111 46.2054 15.4569C46.0536 14.8071 45.8043 14.3093 45.6092 13.9897C45.4412 13.7119 45.1919 13.429 44.6878 12.8526C44.2922 12.4019 44.1025 12.229 43.8044 12.1347C43.7393 12.1137 43.2461 11.9723 43.0835 12.1871C43.0076 12.2867 43.0076 12.4386 43.0618 12.5434Z" fill="white"/>
<path opacity="0.11" d="M43.0239 12.3495C43.0564 12.2919 43.4196 12.4229 43.4575 12.4386C43.9941 12.6377 44.471 13.0517 45.0835 14.0106C45.3978 14.5032 45.7935 15.2001 46.1295 16.1066C46.368 15.8708 46.5685 15.6769 46.7257 15.5302C46.7257 15.5302 47.3056 14.9905 48.2433 14.4665C48.3354 14.4141 48.4492 14.3512 48.5305 14.3984C48.6985 14.4875 48.5197 14.9224 48.5684 15.3259C48.6064 15.6298 48.7907 16.049 49.4898 16.5153C49.5061 16.6044 49.5115 16.7302 49.4356 16.814C49.2839 16.9765 48.8936 16.8455 48.6931 16.7773C48.3679 16.6673 47.7392 16.3791 46.9967 15.5355C46.9262 15.8079 46.8341 16.1957 46.7636 16.6725C46.6986 17.0865 46.5197 18.4646 46.8178 20.2358C46.9371 20.9379 47.1593 21.8759 47.6145 22.9448C47.8151 23.0287 48.0698 23.1073 48.3733 23.1544C49.0075 23.2488 49.5332 23.1282 49.8367 23.0339C49.6578 23.1178 49.4139 23.2592 49.2026 23.5055C48.9478 23.8042 48.9424 24.0295 48.731 24.3072C48.5901 24.4959 48.3354 24.7317 47.8639 24.8994C47.7175 24.8836 47.4953 24.847 47.2514 24.7422C46.5089 24.4225 46.1729 23.7466 46.0211 23.4322C45.8206 23.0077 45.5116 22.1484 45.8043 19.2402C45.9723 17.5791 46.1566 17.0603 45.8748 16.1119C45.658 15.3835 45.284 14.7809 45.1539 14.5765C44.9209 14.2097 44.5035 13.5547 43.7448 12.9521C43.387 12.6587 42.9914 12.4177 43.0239 12.3495Z" fill="#606060"/>
<path d="M49.0671 13.5233C48.9695 13.6491 48.8449 13.8325 48.7473 14.0735C48.6931 14.215 48.5631 14.5451 48.5956 14.9643C48.6552 15.7975 49.2731 16.3058 49.3869 16.3948C49.4628 16.4525 49.5278 16.4996 49.5712 16.5258C49.5061 16.7407 49.4302 17.0603 49.4031 17.4533C49.3598 18.0088 49.3164 18.6323 49.6525 18.8157C49.8693 18.931 50.1945 18.8524 50.3733 18.6847C50.4167 18.6428 50.5413 18.5118 50.5738 17.9197C50.6118 17.2175 50.46 16.9241 50.6768 16.7197C50.769 16.6254 50.9261 16.5678 51.0616 16.5101C51.2134 16.4472 51.3489 16.4158 51.4465 16.3948C51.3868 16.8245 51.3435 17.207 51.311 17.5162C51.273 17.8987 51.2568 18.0926 51.3923 18.2131C51.5169 18.3232 51.7229 18.3441 51.8801 18.276C52.086 18.1869 52.151 17.9406 52.2649 17.4481C52.357 17.0603 52.4329 16.7354 52.3841 16.2953C52.357 16.07 52.3082 15.8866 52.2649 15.7608C52.254 15.6717 52.2269 15.5407 52.1836 15.3888C52.0914 15.0848 52.0047 14.9958 51.9505 14.8019C51.8692 14.5242 51.9614 14.3879 51.983 14.0735C52.0047 13.8272 51.983 13.4761 51.7988 13.036C51.7283 13.0412 51.582 13.0517 51.4302 13.1513C51.2459 13.2665 51.17 13.4342 51.1429 13.4919C51.002 13.4604 50.7473 13.429 50.4546 13.5076C49.9506 13.6386 49.685 14.0001 49.6145 14.1102C49.7554 13.8115 49.6362 13.5181 49.4465 13.4447C49.2839 13.3766 49.0888 13.5128 49.0671 13.5233Z" fill="black"/>
<path d="M49.6796 15.1477C49.7338 15.0481 50.0048 14.8281 50.0969 15.0115C50.1402 15.1005 50.2812 15.0219 50.2378 14.9329C50.1782 14.8123 50.0318 14.7757 49.9018 14.8019C49.7446 14.8281 49.6145 14.9329 49.5386 15.0691C49.4899 15.1582 49.6308 15.2368 49.6796 15.1477Z" fill="white"/>
<path d="M51.2676 14.7442C51.3001 14.6761 51.3326 14.5975 51.3868 14.5451C51.441 14.4927 51.6036 14.4351 51.609 14.5556C51.6144 14.6551 51.777 14.6551 51.7716 14.5556C51.7608 14.4036 51.6253 14.3041 51.4681 14.325C51.2893 14.3565 51.1971 14.5137 51.1267 14.6604C51.0833 14.7547 51.2242 14.8385 51.2676 14.7442Z" fill="white"/>
<path d="M51.3109 15.242C51.3109 15.2473 51.3109 15.2525 51.3109 15.2577C51.3001 15.2682 51.2893 15.2787 51.2838 15.2839C51.2567 15.2997 51.2134 15.2839 51.2188 15.2525C51.2188 15.2525 51.2188 15.2368 51.2242 15.242L51.208 15.2577C51.2459 15.2577 51.2838 15.2577 51.3218 15.2577C51.3164 15.2525 51.3164 15.2525 51.3109 15.2473C51.3164 15.2525 51.3164 15.2525 51.3164 15.2525C51.3109 15.2473 51.3164 15.2473 51.3164 15.2577C51.3218 15.2892 51.3055 15.3102 51.2622 15.3259C51.2459 15.3206 51.2351 15.3206 51.2188 15.3154C51.1971 15.3049 51.2025 15.2735 51.208 15.2577C51.2134 15.2525 51.208 15.2525 51.2025 15.263C51.208 15.2577 51.208 15.2577 51.2025 15.263C51.1646 15.2892 51.1483 15.3311 51.1754 15.373C51.1971 15.4045 51.2513 15.4254 51.2893 15.3992C51.3272 15.373 51.3651 15.3364 51.3706 15.2839C51.3706 15.2263 51.3272 15.1739 51.2676 15.1739C51.208 15.1739 51.1646 15.2106 51.1592 15.2682C51.1538 15.3102 51.1809 15.3468 51.208 15.373C51.2405 15.4045 51.2893 15.3992 51.3218 15.373C51.3922 15.3206 51.4085 15.2106 51.3272 15.1582C51.2893 15.1372 51.2405 15.132 51.2025 15.1529C51.1538 15.1791 51.1483 15.242 51.1592 15.2892C51.1646 15.3311 51.2188 15.3521 51.2567 15.3416C51.3001 15.3259 51.3164 15.284 51.3109 15.242Z" fill="white"/>
<path d="M50.4438 15.4045C50.2866 15.4935 50.0752 15.4516 49.9722 15.3049C49.9126 15.2211 49.7717 15.2997 49.8313 15.3835C49.9885 15.5983 50.2866 15.6717 50.5305 15.5407C50.6172 15.4883 50.5359 15.3521 50.4438 15.4045Z" fill="white"/>
<path d="M50.3245 15.7451C50.2053 15.8342 50.1023 15.9494 50.0318 16.0804C49.9831 16.1695 50.124 16.2481 50.1728 16.159C50.2378 16.0385 50.3299 15.939 50.4438 15.8551C50.4763 15.8289 50.4709 15.7713 50.4438 15.7451C50.4058 15.7136 50.357 15.7189 50.3245 15.7451Z" fill="white"/>
<path d="M51.6415 15.1687C51.7499 15.0482 51.8312 14.9119 51.8854 14.76C51.9179 14.6656 51.7608 14.6237 51.7283 14.718C51.6849 14.8438 51.6144 14.9591 51.5277 15.0586C51.4627 15.1372 51.5765 15.2473 51.6415 15.1687Z" fill="white"/>
<path d="M51.6524 15.3678C51.7825 15.3416 51.9342 15.3101 52.0372 15.4149C52.1077 15.4883 52.2215 15.3783 52.151 15.3049C52.0047 15.1529 51.7933 15.1791 51.6036 15.2211C51.5061 15.2368 51.5494 15.3887 51.6524 15.3678Z" fill="white"/>
<path d="M42.9968 12.4229C43.2461 12.0456 43.8369 12.2709 44.135 12.4596C44.4927 12.6797 44.7637 13.0098 45.0076 13.3399C45.5008 14.0054 45.9398 14.7285 46.1024 15.5407C46.1241 15.6403 46.2813 15.5983 46.2596 15.4988C46.0699 14.5294 45.4845 13.5967 44.8233 12.8526C44.4385 12.4229 43.3491 11.6107 42.8559 12.3495C42.8017 12.4281 42.9426 12.512 42.9968 12.4229Z" fill="#161616"/>
<path d="M43.3329 12.7792C44.6336 13.4866 45.3653 14.8124 45.7339 16.1643C45.761 16.2638 45.9181 16.2219 45.891 16.1224C45.5116 14.7338 44.7474 13.3661 43.4142 12.643C43.322 12.5906 43.2407 12.7268 43.3329 12.7792Z" fill="#161616"/>
<path d="M46.2596 15.4726C46.3951 14.5451 47.0075 13.7696 47.8476 13.3242C48.2812 13.0936 48.7636 12.9521 49.2568 12.884C49.4898 12.8526 49.7608 12.8211 49.9885 12.905C50.2378 12.9941 50.4763 13.3766 50.1619 13.5495C50.0698 13.5967 50.1511 13.7329 50.2432 13.6857C50.5901 13.4971 50.5034 13.015 50.1999 12.8316C49.7283 12.5434 48.9479 12.7478 48.4655 12.905C47.2731 13.277 46.2867 14.2097 46.1078 15.4412C46.0861 15.5302 46.2433 15.5722 46.2596 15.4726Z" fill="#161616"/>
<path d="M46.6227 15.7084C46.8883 15.4097 47.2243 15.1582 47.5495 14.9224C47.8639 14.6918 48.1999 14.5032 48.5902 14.4193C48.6931 14.3984 48.6498 14.2464 48.5468 14.2674C48.1457 14.3565 47.7934 14.5503 47.4682 14.7861C47.1322 15.0324 46.7853 15.2892 46.5089 15.5983C46.4385 15.6717 46.5523 15.787 46.6227 15.7084Z" fill="#161616"/>
<path d="M48.6118 14.4351C48.7257 14.1835 48.872 13.9425 49.0508 13.7277C49.0834 13.691 49.1213 13.6281 49.1647 13.6019C49.2026 13.5338 49.2514 13.5285 49.3218 13.5914C49.4085 13.5914 49.4465 13.6229 49.4465 13.6962C49.5061 13.8063 49.5115 13.9949 49.5332 14.1207C49.5549 14.2202 49.712 14.1783 49.6904 14.0787C49.647 13.8796 49.5928 13.167 49.2026 13.3609C49.0508 13.4342 48.937 13.6176 48.8395 13.7434C48.6931 13.9373 48.5739 14.1416 48.4709 14.3565C48.4276 14.4455 48.5685 14.5294 48.6118 14.4351Z" fill="#161616"/>
<path d="M49.6579 14.1678C49.9343 13.822 50.498 13.3451 50.9803 13.6019C51.0725 13.6491 51.1538 13.5128 51.0616 13.4657C50.5034 13.1775 49.8747 13.6491 49.5387 14.0578C49.479 14.1364 49.5928 14.2464 49.6579 14.1678Z" fill="#161616"/>
<path d="M51.1375 13.5757C51.2134 13.4604 51.5657 13.0465 51.7174 13.1565C51.7987 13.2141 51.815 13.4185 51.8367 13.5128C51.8692 13.6595 51.88 13.8063 51.8855 13.9582C51.8909 14.0578 52.0535 14.0578 52.0481 13.9582C52.0426 13.7486 52.0155 13.5443 51.9613 13.3399C51.9288 13.2246 51.9017 13.0045 51.7608 12.9679C51.6307 12.9364 51.4519 13.0569 51.3543 13.1251C51.208 13.2246 51.0941 13.3504 51.002 13.4971C50.9424 13.5809 51.0833 13.6595 51.1375 13.5757Z" fill="#161616"/>
<path d="M46.8341 15.4516C47.2081 15.8027 47.6037 16.1276 48.0265 16.421C48.4438 16.7092 48.8503 16.9136 49.3761 16.8874C49.479 16.8821 49.479 16.7249 49.3761 16.7302C48.8395 16.7564 48.4438 16.5258 48.0265 16.2324C47.6417 15.9599 47.284 15.6612 46.9425 15.3416C46.8721 15.2735 46.7582 15.3835 46.8341 15.4516Z" fill="#161616"/>
<path d="M45.7393 15.9913C46.33 18.5275 44.7908 21.2995 46.0645 23.7256C46.3029 24.1815 46.6661 24.5954 47.1647 24.7998C47.6525 24.9989 48.2162 24.9832 48.7202 24.826C49.8367 24.4802 50.5576 23.4793 51.1104 22.5361C51.4627 21.944 51.7554 21.31 51.9288 20.6445C52.0155 20.3144 52.0697 19.9685 52.086 19.6279C52.1022 19.2349 52.048 18.8419 52.0643 18.4489C52.0697 18.3493 51.9071 18.3493 51.9017 18.4489C51.88 19.0882 51.9667 19.696 51.8367 20.3301C51.7228 20.896 51.5115 21.4462 51.2459 21.9597C50.7527 22.9239 50.086 24.0086 49.0617 24.5168C48.5305 24.7788 47.8747 24.8784 47.3056 24.674C46.7474 24.4749 46.3788 23.9981 46.1403 23.4898C45.6309 22.3842 45.6905 21.1266 45.826 19.9528C45.9777 18.6218 46.2162 17.2751 45.9073 15.9442C45.8693 15.8551 45.7122 15.8918 45.7393 15.9913Z" fill="#161616"/>
<path d="M48.1511 21.2366C47.8476 21.7501 47.6471 22.3056 47.5604 22.8924C47.5441 22.992 47.7013 23.0339 47.7176 22.9344C47.8043 22.358 47.994 21.8182 48.2921 21.3152C48.3463 21.2314 48.2053 21.1528 48.1511 21.2366Z" fill="#161616"/>
<path d="M48.2541 21.2942C49.0563 21.2261 49.9018 21.0794 50.7039 21.1632C50.8069 21.1737 50.8069 21.0165 50.7039 21.006C49.9018 20.917 49.0563 21.0689 48.2541 21.137C48.1511 21.1475 48.1511 21.3047 48.2541 21.2942Z" fill="#161616"/>
<path d="M47.6417 23.0339C48.0373 23.2592 48.498 23.2383 48.9424 23.2278C49.4085 23.2121 49.8747 23.1597 50.2812 22.9239C50.3733 22.8715 50.2866 22.7352 50.1999 22.7876C49.815 23.013 49.3814 23.0549 48.9424 23.0706C48.5305 23.0863 48.0969 23.1125 47.723 22.9029C47.6362 22.8505 47.5549 22.9868 47.6417 23.0339Z" fill="#161616"/>
<path d="M50.628 21.1266C50.5251 21.703 50.3679 22.2584 50.1565 22.8034C50.1186 22.8977 50.2757 22.9396 50.3137 22.8453C50.5305 22.3003 50.6877 21.7396 50.7852 21.1685C50.8015 21.0689 50.6443 21.027 50.628 21.1266Z" fill="#161616"/>
<path d="M48.1078 21.5091C48.3733 22.075 49.1267 22.2165 49.7066 22.2217C49.8096 22.2217 49.8096 22.0645 49.7066 22.0645C49.1863 22.054 48.4872 21.9388 48.2487 21.4252C48.2053 21.3362 48.0644 21.42 48.1078 21.5091Z" fill="#161616"/>
<path d="M49.2785 22.0174C49.2622 22.1484 49.2459 22.2794 49.2297 22.4051C49.2188 22.5047 49.3814 22.5047 49.3923 22.4051C49.4085 22.2741 49.4248 22.1431 49.4411 22.0174C49.4519 21.9178 49.2893 21.9178 49.2785 22.0174Z" fill="#161616"/>
<path d="M49.5874 22.0174C49.5711 22.1484 49.5549 22.2794 49.544 22.4104C49.5332 22.5099 49.6958 22.5099 49.7066 22.4104C49.7229 22.2794 49.7392 22.1484 49.75 22.0174C49.7608 21.9178 49.5982 21.9178 49.5874 22.0174Z" fill="#161616"/>
<path d="M49.7283 22.2375C50.1132 22.1536 50.4329 21.923 50.6335 21.5982C50.6877 21.5091 50.5467 21.4305 50.4925 21.5196C50.3083 21.813 50.0264 22.0069 49.685 22.0855C49.582 22.1117 49.6254 22.2637 49.7283 22.2375Z" fill="#161616"/>
<path d="M48.5414 14.1521C48.3788 15.0796 48.5576 16.1852 49.5386 16.6097C49.6308 16.6516 49.7175 16.5153 49.6199 16.4734C48.704 16.0752 48.5468 15.0534 48.6985 14.194C48.7148 14.0945 48.5576 14.0525 48.5414 14.1521Z" fill="#161616"/>
<path d="M51.8746 13.9006C51.8855 14.1993 51.88 14.5032 51.9234 14.7966C51.9668 15.1163 52.2648 15.4726 52.1077 15.7922C52.0643 15.8813 52.2052 15.9651 52.2486 15.8708C52.3895 15.5826 52.2648 15.3416 52.1619 15.0586C52.0264 14.6971 52.0589 14.2779 52.0426 13.8953C52.0318 13.7958 51.8692 13.7958 51.8746 13.9006Z" fill="#161616"/>
<path d="M49.9831 16.4996C50.2215 16.3791 50.4925 16.5049 50.5467 16.7564C50.5521 16.7826 50.5901 16.7721 50.5847 16.7459C50.5196 16.4682 50.2215 16.332 49.9614 16.463C49.9397 16.4787 49.9614 16.5154 49.9831 16.4996Z" fill="white"/>
<path d="M50.395 16.7669C50.4329 16.8088 50.46 16.8559 50.4763 16.9083C50.4871 16.9345 50.5251 16.9241 50.5142 16.8979C50.4926 16.8402 50.46 16.7878 50.4221 16.7407C50.4058 16.7197 50.3733 16.7511 50.395 16.7669Z" fill="white"/>
<path d="M51.4844 16.4001C51.5331 16.1852 51.674 16.0071 51.88 15.9075C51.9017 15.897 51.8854 15.8603 51.8583 15.8761C51.6415 15.9756 51.4952 16.1643 51.4464 16.3896C51.441 16.4158 51.4789 16.4263 51.4844 16.4001Z" fill="white"/>
<path d="M41.94 5.29124C41.566 5.47464 41.2516 5.82048 41.1107 5.97244C40.7639 6.35497 40.585 6.71129 40.3899 7.10953C40.2273 7.43441 40.0376 7.89553 39.8858 8.47193C40.0972 8.50861 40.3086 8.54005 40.52 8.57673C40.5091 8.77585 40.5091 9.06929 40.5904 9.41513C40.6663 9.72953 40.791 10.2326 41.2245 10.5837C41.8207 11.0762 42.612 10.9557 42.7584 10.9347C42.7692 11.181 42.8234 11.5321 43.0294 11.8937C43.0836 11.9827 43.1378 12.0666 43.192 12.1399C43.4901 12.0561 43.9507 11.8832 44.4006 11.5269C45.5496 10.6308 45.7068 9.29461 45.7556 8.90685C45.826 8.30949 45.9615 7.18289 45.1973 6.25017C44.4006 5.286 42.8885 4.83012 41.94 5.29124Z" fill="white"/>
<path d="M40.8289 6.38117C40.9806 6.16108 41.2733 5.8362 41.6039 5.61088C42.1351 5.24932 42.3736 5.40128 42.6445 5.08164C42.8397 4.85108 42.9643 4.4738 42.818 4.29564C42.5849 4.01268 41.7557 4.35328 41.6473 4.40044C41.4088 4.5 40.6229 4.81964 40.3086 5.6266C40.0484 6.30257 40.2219 7.04141 40.3411 7.05713C40.3736 7.06237 40.3953 7.00997 40.5687 6.75321C40.65 6.62221 40.7422 6.50169 40.8289 6.38117Z" fill="#FEA300"/>
<path d="M42.0104 4.80392C41.9671 4.94016 41.902 5.21264 42.1188 5.74712C42.5036 6.70605 43.4033 7.56541 43.8532 7.40821C43.9507 7.37153 44.0537 7.27721 44.2488 7.26673C44.2976 7.26673 44.4927 7.25625 44.6445 7.37153C44.883 7.55493 44.8938 7.95317 44.7366 8.20993C44.7095 8.25709 44.5632 8.47193 44.341 8.48765C44.1459 8.50337 44.0808 8.35665 43.9236 8.34617C43.5388 8.32521 43.2082 9.14265 43.1649 9.25269C43.0781 9.4623 42.8668 10.0073 43.0185 10.7042C43.051 10.8561 43.1269 11.1758 43.36 11.5059C43.864 12.2133 44.7095 12.3862 45.0239 12.4491C45.3328 12.512 46.5089 12.7478 47.4249 12.0142C47.5712 11.8989 48.0536 11.5007 48.1837 10.8247C48.4059 9.68237 47.4141 8.82825 47.3544 8.78109C47.3111 8.18897 47.1647 7.24577 46.6499 6.21349C46.3247 5.55848 46.0211 4.95588 45.3328 4.5C44.4277 3.90788 43.1107 3.7402 42.4223 4.25372C42.3519 4.3166 42.1188 4.49476 42.0104 4.80392Z" fill="#FEA300"/>
<path d="M40.9806 10.4265C40.8993 10.5051 40.6609 10.7461 40.6175 11.1234C40.5579 11.6474 40.921 12.0089 40.9969 12.0823C41.3926 12.4753 42.0538 12.6325 42.5307 12.3967C42.5687 12.381 42.986 12.1661 43.0023 11.857C43.0077 11.7207 42.9318 11.6526 42.8234 11.3487C42.753 11.1496 42.7096 10.9871 42.6771 10.8771C42.5307 10.9243 42.2814 10.9871 41.9725 10.9452C41.4197 10.8771 41.0782 10.5313 40.9806 10.4265Z" fill="#FEA300"/>
<path opacity="0.12" d="M42.0646 5.26504C42.0701 5.42748 42.0917 5.66852 42.2056 5.92528C42.2814 6.0982 42.3573 6.203 42.4169 6.28684C42.6446 6.6222 42.7204 6.93661 42.8397 7.28769C43.0294 7.83265 42.9969 8.28853 42.9589 8.85445C42.9264 9.32605 42.818 10.0439 42.4657 10.8771C42.612 10.919 42.8234 11.0029 43.0511 11.1496C43.4684 11.4221 43.6581 11.7469 43.7773 11.8989C44.0212 12.2081 44.5632 12.5329 45.8694 12.512C45.7393 12.3862 45.555 12.1976 45.3545 11.967C44.883 11.4325 44.4711 10.9662 44.2272 10.4003C44.0862 10.0754 43.8695 9.40989 44.0375 8.44573C44.1892 8.51909 44.3681 8.51385 44.509 8.42477C44.6553 8.33045 44.7475 8.14181 44.6987 7.96889C44.6391 7.76977 44.3898 7.63353 44.135 7.69641C44.0808 7.56541 43.9941 7.37677 43.8532 7.17241C43.631 6.85277 43.3979 6.65364 43.3112 6.58028C43.0348 6.34972 42.6337 5.95672 42.0646 5.26504Z" fill="#606060"/>
<path opacity="0.14" d="M39.9455 8.37761C39.9509 8.29377 40.2273 8.22565 40.4603 8.24137C40.6663 8.25709 40.9102 8.34617 40.9048 8.42477C40.8993 8.49813 40.6717 8.55577 40.5037 8.56101C40.2436 8.57149 39.9455 8.46145 39.9455 8.37761Z" fill="#606060"/>
<path d="M40.6175 6.42833C40.3086 7.08333 40.0322 7.74881 39.7937 8.43001C39.7774 8.47193 39.8099 8.51385 39.8479 8.52433C40.0593 8.60293 40.2706 8.63961 40.4928 8.63437C40.5958 8.63437 40.5958 8.47717 40.4928 8.47717C40.2815 8.47717 40.0864 8.44049 39.8912 8.37237C39.9075 8.40381 39.9292 8.43525 39.9454 8.46669C40.1785 7.79597 40.4441 7.14097 40.753 6.50169C40.8018 6.41785 40.6609 6.334 40.6175 6.42833Z" fill="#161616"/>
<path d="M40.4712 8.66581C40.5145 9.34177 40.5796 10.0911 41.0999 10.5994C41.5985 11.0919 42.3194 11.05 42.9752 10.9767C43.0781 10.9662 43.0781 10.809 42.9752 10.8195C42.3681 10.8876 41.6798 10.9452 41.2137 10.4893C40.7259 10.0125 40.6771 9.29985 40.6338 8.66581C40.6283 8.56625 40.4658 8.56625 40.4712 8.66581Z" fill="#161616"/>
<path d="M42.6554 10.9924C42.7258 11.3592 42.8559 11.7103 43.0402 12.0351C43.089 12.1242 43.2299 12.0456 43.1811 11.9565C43.0023 11.6369 42.883 11.3068 42.8126 10.9505C42.7963 10.8509 42.6391 10.8928 42.6554 10.9924Z" fill="#161616"/>
<path d="M40.5796 9.46753C40.8452 9.69285 41.2408 9.58805 41.3438 9.25793C41.3763 9.15837 41.2191 9.12169 41.1866 9.21601C41.1216 9.42561 40.8668 9.50421 40.6988 9.35225C40.6175 9.28937 40.5037 9.39941 40.5796 9.46753Z" fill="#161616"/>
<path d="M41.0782 9.25269C41.1649 9.27365 41.23 9.32081 41.2842 9.38369C41.3113 9.41513 41.3709 9.40989 41.398 9.38369C41.4305 9.35225 41.4251 9.30509 41.398 9.27365C41.3275 9.18981 41.23 9.12693 41.1216 9.10073C41.024 9.07453 40.9807 9.22649 41.0782 9.25269Z" fill="#161616"/>
<path d="M41.3221 7.29293C41.3655 7.07285 41.6473 7.11477 41.7991 7.19337C41.9291 7.26149 42.0213 7.37153 42.0755 7.50253C42.1134 7.59685 42.2706 7.55493 42.2327 7.46061C42.1459 7.23529 41.9671 7.05713 41.7178 6.99425C41.4901 6.93661 41.2191 7.00473 41.1704 7.25101C41.1487 7.35057 41.3059 7.39249 41.3221 7.29293Z" fill="#161616"/>
<path d="M41.3167 6.36545C41.5606 5.97244 42.0375 6.27637 42.1351 6.60649C42.1622 6.70605 42.3194 6.66413 42.2923 6.56457C42.2218 6.32353 42.0484 6.09821 41.7828 6.03533C41.5443 5.98292 41.3004 6.08249 41.1758 6.28161C41.1216 6.37593 41.2625 6.45453 41.3167 6.36545Z" fill="#161616"/>
<path d="M41.4793 8.18373C41.5823 8.18373 41.5823 8.02653 41.4793 8.02653C41.3763 8.02653 41.3709 8.18373 41.4793 8.18373Z" fill="#161616"/>
<path d="M41.7882 7.94793C41.7936 7.94793 41.8045 7.94793 41.8099 7.94793C41.8533 7.94793 41.8912 7.91125 41.8912 7.86933C41.8912 7.82741 41.8533 7.79073 41.8099 7.79073C41.8045 7.79073 41.7936 7.79073 41.7882 7.79073C41.7449 7.79073 41.7069 7.82741 41.7069 7.86933C41.7069 7.91649 41.7449 7.94793 41.7882 7.94793Z" fill="#161616"/>
<path d="M41.7936 8.21517C41.7936 8.22041 41.7936 8.22565 41.7936 8.23089C41.7936 8.33045 41.9562 8.33045 41.9562 8.23089C41.9562 8.22565 41.9562 8.22041 41.9562 8.21517C41.9562 8.11561 41.7936 8.11561 41.7936 8.21517C41.7936 8.22041 41.7936 8.22565 41.7936 8.23089C41.7936 8.33045 41.9562 8.33045 41.9562 8.23089C41.9562 8.22565 41.9562 8.22041 41.9562 8.21517C41.9562 8.11561 41.7936 8.11561 41.7936 8.21517Z" fill="#161616"/>
<path d="M44.1567 7.41345C44.303 7.20909 44.5523 7.34009 44.6391 7.50777C44.7095 7.63877 44.7095 7.79597 44.7041 7.93745C44.6824 8.29377 44.3735 8.54529 44.0158 8.32521C43.9291 8.26757 43.8478 8.40381 43.9345 8.46145C44.1459 8.59769 44.4168 8.61341 44.6282 8.45621C44.845 8.29377 44.883 8.02653 44.8667 7.77501C44.8504 7.53397 44.7529 7.26673 44.4927 7.17765C44.3084 7.11477 44.1242 7.18289 44.0158 7.33485C43.9616 7.41345 44.1025 7.49205 44.1567 7.41345Z" fill="#161616"/>
<path d="M29.5772 4.4214C29.4634 4.4214 29.3495 4.42664 29.2411 4.42664C29.0569 4.77248 28.9539 5.08688 28.8943 5.31744C28.7208 5.9934 28.7642 6.55408 28.7967 6.82657C28.8184 7.00997 28.8509 7.16193 28.878 7.26673C28.9756 7.26673 29.0731 7.26673 29.1707 7.26673C29.2086 7.39249 29.2466 7.51825 29.2845 7.64401C30.2005 7.63877 30.9538 7.63877 31.4796 7.64401C34.6665 7.67021 36.8886 7.79073 37.4035 7.81693C38.0485 7.85361 38.5742 7.89029 38.8994 7.91125C38.9102 7.71737 38.9644 7.64925 39.0132 7.62829C39.0999 7.59161 39.1758 7.68069 39.2896 7.65973C39.4089 7.63877 39.4847 7.51825 39.5335 7.40821C39.6311 7.45537 39.8099 7.51825 40.0213 7.48681C40.0701 7.48157 40.1135 7.46585 40.1514 7.45537C40.2435 7.27721 40.3357 7.09905 40.4278 6.92089C40.2977 6.87897 40.1135 6.84229 39.8912 6.84229C39.7666 6.84229 39.6582 6.85801 39.566 6.87373C39.5552 6.84753 39.4685 6.61172 39.2409 6.55932C39.1704 6.5436 39.1108 6.54884 39.062 6.55932C39.0295 6.50168 38.997 6.44404 38.9644 6.3864C38.8344 6.36544 38.6338 6.334 38.3953 6.29208C36.4604 5.95148 35.1109 5.53752 34.0811 5.23884C33.0947 4.95064 31.6584 4.55764 29.8157 4.12272C29.7398 4.22228 29.6585 4.32184 29.5772 4.4214Z" fill="white"/>
<path opacity="0.07" d="M28.813 6.45452C28.8618 6.44404 28.916 6.56456 28.9756 6.54884C29.0731 6.52788 29.0515 6.19776 29.0731 5.95148C29.0894 5.71568 29.1599 5.37508 29.3983 4.96112C29.5555 5.024 29.794 5.12356 30.0812 5.24408C31.1164 5.679 31.8319 6.01436 32.0487 6.10868C33.4795 6.7532 35.0513 7.0414 35.4469 7.11476C36.3466 7.28244 37.5932 7.42917 39.0891 7.36629C39.0241 7.53921 38.959 7.71213 38.894 7.88505C38.6447 7.87981 38.2815 7.87981 37.8371 7.86933C35.9293 7.83265 34.596 7.77501 33.8318 7.74357C32.7532 7.70165 31.2086 7.65973 29.2574 7.66497C29.2357 7.52349 29.2141 7.382 29.1924 7.24052C29.0677 7.26148 28.9431 7.28244 28.8184 7.30341C28.7371 6.6484 28.7588 6.465 28.813 6.45452Z" fill="#606060"/>
<path d="M29.691 4.12796C29.0135 5.13928 28.8238 6.39688 29.1707 7.55492C29.1978 7.65448 29.355 7.61257 29.3279 7.51301C28.9918 6.39164 29.1761 5.18644 29.8319 4.20656C29.8915 4.11748 29.7506 4.03888 29.691 4.12796Z" fill="#161616"/>
<path d="M29.8319 4.27992C32.8833 5.024 35.9293 5.76808 38.9807 6.50692C39.0837 6.53312 39.127 6.38116 39.024 6.35496C35.9726 5.61088 32.9267 4.8668 29.8753 4.12796C29.7777 4.10176 29.7344 4.25372 29.8319 4.27992Z" fill="#161616"/>
<path d="M29.2845 7.72784C32.466 7.70164 35.6475 7.775 38.8235 7.94268C38.9265 7.94792 38.9265 7.79072 38.8235 7.78548C35.6475 7.6178 32.466 7.54444 29.2845 7.57064C29.1815 7.57064 29.1815 7.72784 29.2845 7.72784Z" fill="#161616"/>
<path d="M38.9319 6.44928C39.1487 6.91564 39.1 7.44488 38.8018 7.86933C38.7422 7.95317 38.8832 8.03177 38.9428 7.94793C39.2734 7.47633 39.3168 6.88944 39.0729 6.37068C39.0295 6.2816 38.8886 6.3602 38.9319 6.44928Z" fill="#161616"/>
<path d="M39.0945 6.65364C39.1541 6.69556 39.1975 6.67984 39.2679 6.69556C39.4034 6.73224 39.4576 6.85276 39.4847 6.97852C39.5281 7.20908 39.4685 7.6964 39.1162 7.56016C39.0186 7.52348 38.9753 7.67544 39.0728 7.71212C39.4305 7.84836 39.6636 7.4868 39.6636 7.18288C39.6636 7.0152 39.6419 6.82656 39.5444 6.68508C39.5118 6.63792 39.4685 6.59076 39.4143 6.56456C39.3438 6.53312 39.2463 6.55408 39.1866 6.51216C39.0891 6.45976 39.0078 6.596 39.0945 6.65364Z" fill="#161616"/>
<path d="M39.5715 6.94184C39.8479 6.92612 40.1243 6.93136 40.3953 6.96804C40.4983 6.97852 40.4983 6.82133 40.3953 6.81085C40.1189 6.77941 39.8479 6.76893 39.5715 6.78465C39.4685 6.79513 39.4685 6.95232 39.5715 6.94184Z" fill="#161616"/>
<path d="M39.5498 7.51824C39.772 7.55492 39.9942 7.57064 40.2164 7.54968C40.3194 7.5392 40.3194 7.382 40.2164 7.39248C40.0051 7.4082 39.7991 7.40296 39.5931 7.36628C39.4902 7.35056 39.4468 7.49728 39.5498 7.51824Z" fill="#161616"/>
<path d="M29.5989 4.37948C29.0731 4.08604 28.9268 5.00304 28.8563 5.29124C28.6937 5.95672 28.6179 6.64316 28.8184 7.30864C28.8292 7.34008 28.8618 7.36628 28.8943 7.36628C28.9647 7.36628 29.0406 7.36628 29.1111 7.36628C29.2141 7.36628 29.2141 7.20908 29.1111 7.20908C29.0406 7.20908 28.9647 7.20908 28.8943 7.20908C28.9214 7.23004 28.9485 7.24576 28.9702 7.26672C28.8292 6.78464 28.8292 6.29732 28.9105 5.80476C28.9485 5.58468 28.9973 5.3646 29.0569 5.14976C29.0948 5.00828 29.2141 4.3428 29.5122 4.51572C29.6097 4.56812 29.691 4.43188 29.5989 4.37948Z" fill="#161616"/>
<path d="M35.4578 5.50609C35.3602 5.39081 35.1976 5.40653 35.1759 5.40653C34.9971 5.41701 34.8236 5.57421 34.6339 5.95673C34.2654 6.68509 34.2491 7.41345 34.2491 7.52873C34.2437 8.03177 34.2925 8.84921 34.661 9.82385C34.6936 10.2326 34.764 10.8037 34.9212 11.4692C35.1976 12.6639 35.4903 13.9215 36.4984 15.0377C36.8778 15.4621 37.6257 16.2848 38.9265 16.5835C40.2869 16.8979 41.3925 16.4315 41.6635 16.311C41.902 16.2009 42.5687 15.8761 43.1323 15.1896C43.4738 14.7757 43.8694 14.325 43.8044 13.7696C43.7773 13.5285 43.6689 13.3242 43.5063 12.9993C43.3437 12.6744 43.257 12.512 43.0835 12.4491C42.8451 12.36 42.5903 12.5172 42.3085 12.6744C41.8315 12.9364 41.7882 13.1879 41.2733 13.4499C41.1378 13.5181 41.0023 13.5652 40.7313 13.6491C40.3031 13.7853 39.8804 13.9215 39.4902 13.9477C38.6392 14.0054 37.9563 13.5338 37.7612 13.3975C37.0404 12.8997 36.7585 12.2343 36.5743 11.7993C36.1623 10.8247 36.1949 9.92865 36.2653 9.40465C36.5201 9.36273 36.6772 9.26317 36.7531 9.20553C37.0404 8.99069 37.1108 8.69201 37.2192 8.23089C37.2897 7.94269 37.3222 7.79073 37.2463 7.73309C37.0891 7.61781 36.6068 7.99509 36.4984 8.08417C36.5201 7.72785 36.5743 7.43965 36.6285 7.23529C36.6989 6.96281 36.7369 6.82133 36.8344 6.71129C37.0241 6.49645 37.2463 6.51741 37.3222 6.31305C37.3656 6.20301 37.3601 6.05105 37.268 5.96197C37.1596 5.85717 36.9266 5.86241 36.726 6.01437C36.661 5.87813 36.5309 5.79429 36.39 5.78905C36.2491 5.78381 36.1569 5.86765 36.1298 5.88861C36.1461 5.74713 36.081 5.61613 35.9727 5.56373C35.8263 5.49037 35.5933 5.57421 35.5065 5.78905C35.512 5.76285 35.5499 5.61613 35.4578 5.50609Z" fill="white"/>
<path opacity="0.12" d="M35.1759 5.40652C35.0458 5.62661 34.8832 5.95149 34.7748 6.37593C34.5364 7.29817 34.7315 8.06845 34.8182 8.44049C35.7504 12.2814 35.3439 12.3757 35.9943 13.277C36.2328 13.6019 37.8696 15.7817 40.3085 15.4935C42.3518 15.2525 43.4358 13.4552 43.5767 13.2141C43.658 13.4237 43.7556 13.7801 43.6906 14.2045C43.593 14.8281 43.1919 15.2211 43.0456 15.3678C42.9047 15.504 42.7312 15.6245 42.3789 15.8603C42.0646 16.0752 41.7557 16.2638 41.6202 16.3319C40.9752 16.683 39.9779 16.7669 39.2842 16.6778C37.3981 16.4367 36.2653 14.7075 35.7938 13.9897C34.7152 12.3495 34.6068 10.6885 34.6177 9.86053C34.5147 9.52517 34.4117 9.18457 34.3087 8.84921C34.2383 8.33045 34.2329 7.90077 34.2437 7.60209C34.2708 6.85277 34.2925 6.29209 34.6881 5.81525C34.8616 5.60565 35.0513 5.47988 35.1759 5.40652Z" fill="#606060"/>
<path d="M42.5145 15.7817C43.3708 15.3887 43.9453 14.5661 43.8044 13.6333C43.7231 13.0674 43.2516 12.0928 42.4982 12.4386C42.1622 12.5958 41.8858 12.884 41.5768 13.0884C41.1486 13.3713 40.6554 13.5914 40.1622 13.7434C39.5335 13.9373 38.8344 13.9792 38.2273 13.6857C37.7829 13.4709 37.436 13.1198 37.1704 12.7216C36.5851 11.8465 36.2816 10.8142 36.352 9.77146C36.3575 9.67189 36.1949 9.67189 36.1894 9.77146C36.1298 10.6518 36.3304 11.4902 36.7314 12.2762C37.0837 12.9783 37.5986 13.6386 38.3791 13.9215C39.3276 14.2621 40.3628 13.9163 41.2191 13.4814C41.6039 13.2823 41.9345 13.0255 42.2814 12.7687C42.5958 12.5329 42.9101 12.4177 43.2299 12.7321C43.6255 13.1198 43.7448 13.7958 43.6255 14.3093C43.4792 14.9224 43.0077 15.3835 42.4332 15.6455C42.341 15.6874 42.4223 15.8237 42.5145 15.7817Z" fill="#161616"/>
<path d="M36.3412 9.83958C36.2708 9.55138 36.4821 9.47801 36.6773 9.34177C36.7911 9.26317 36.8778 9.15313 36.9591 9.04309C37.165 8.75489 37.3276 8.41953 37.371 8.06845C37.3927 7.89553 37.4306 7.62305 37.1867 7.61257C36.8995 7.60209 36.7802 7.95317 36.5092 7.97937C36.4063 7.98985 36.4063 8.14705 36.5092 8.13657C36.7152 8.11561 36.8182 7.98985 36.9754 7.87457C37.0675 7.80645 37.1705 7.72785 37.2192 7.87981C37.2463 7.96365 37.203 8.12085 37.1813 8.20469C37.1434 8.38285 37.0621 8.55577 36.9754 8.71821C36.8941 8.86493 36.8019 9.01689 36.6773 9.13741C36.5634 9.25269 36.4063 9.27889 36.2816 9.37321C36.1136 9.49898 36.1407 9.71382 36.1841 9.88674C36.2111 9.98106 36.3683 9.93914 36.3412 9.83958Z" fill="#161616"/>
<path d="M34.4497 9.01165C34.3413 8.33569 34.3304 7.64401 34.4388 6.96805C34.4822 6.69557 34.5364 6.41785 34.634 6.15585C34.6936 5.99341 34.7749 5.80476 34.8941 5.67376C35.0567 5.50084 35.3765 5.41176 35.4632 5.7052C35.4903 5.80477 35.6475 5.76284 35.6204 5.66328C35.5445 5.41176 35.2952 5.27552 35.035 5.37508C34.7044 5.50608 34.5472 5.89909 34.4443 6.19777C34.1407 7.10429 34.1407 8.12085 34.2871 9.05357C34.3088 9.15313 34.4659 9.11121 34.4497 9.01165Z" fill="#161616"/>
<path d="M35.2356 6.3078C35.3656 5.99864 35.7342 5.37508 36.1353 5.79952C36.2057 5.87288 36.3195 5.76284 36.2491 5.68948C36.0648 5.4956 35.7992 5.46416 35.5662 5.59516C35.306 5.73664 35.1868 6.01436 35.0784 6.27112C35.0404 6.3602 35.1976 6.40212 35.2356 6.3078Z" fill="#161616"/>
<path d="M35.9185 6.43881C35.9239 6.23969 36.0052 6.01961 36.2057 5.92529C36.3737 5.84668 36.5743 5.88336 36.6881 6.02485C36.7531 6.10345 36.8669 5.99341 36.8019 5.91481C36.6447 5.72616 36.3629 5.679 36.1407 5.77856C35.8805 5.89908 35.7613 6.17157 35.7559 6.43881C35.7505 6.53837 35.913 6.53837 35.9185 6.43881Z" fill="#161616"/>
<path d="M36.39 6.49121C36.4876 6.14013 36.8941 5.82049 37.2463 6.10345C37.3276 6.16633 37.4415 6.05629 37.3602 5.99341C36.9103 5.63709 36.3683 5.97245 36.2328 6.44929C36.2057 6.54885 36.3629 6.59077 36.39 6.49121Z" fill="#161616"/>
<path d="M37.2138 6.07725C37.3872 6.31305 37.0024 6.45977 36.8669 6.56981C36.7531 6.65889 36.6881 6.77417 36.6393 6.90517C36.5092 7.26673 36.4496 7.65973 36.4171 8.03701C36.4062 8.13657 36.5688 8.13657 36.5797 8.03701C36.6068 7.75929 36.6501 7.48157 36.7206 7.20909C36.7423 7.12001 36.764 7.03093 36.7965 6.94185C36.8669 6.75845 36.9699 6.69033 37.1271 6.58029C37.3222 6.44405 37.5282 6.22397 37.3547 5.98817C37.2951 5.91481 37.1542 5.99341 37.2138 6.07725Z" fill="#161616"/>
<path d="M34.2491 8.85445C34.3359 9.21077 34.4443 9.56185 34.5798 9.90769C34.6177 10.002 34.7749 9.96009 34.7369 9.86577C34.6014 9.51993 34.493 9.16885 34.4063 8.81253C34.3846 8.71297 34.2275 8.75489 34.2491 8.85445Z" fill="#161616"/>
<path d="M34.5526 10.0073C34.7586 11.8098 35.2193 13.6595 36.4713 15.0639C37.4685 16.18 39.0511 17.0289 40.6121 16.7512C41.3492 16.6202 42.0212 16.2638 42.5578 15.766C42.6337 15.6979 42.5199 15.5826 42.444 15.656C41.3709 16.6516 39.8424 16.9136 38.4821 16.3215C37.0187 15.677 35.9943 14.4665 35.4144 13.036C35.0242 12.0666 34.8291 11.0395 34.7098 10.0125C34.7044 9.90769 34.5418 9.9077 34.5526 10.0073Z" fill="#161616"/>
</svg>
