<svg width="149" height="111" viewBox="0 0 149 111" fill="none" xmlns="http://www.w3.org/2000/svg">
<g clip-path="url(#clip0_24_3)">
<path d="M90.6227 52.2331C89.6998 53.3154 88.4009 54.9727 87.1704 57.1711C82.966 64.4767 82.6926 71.6469 82.6242 77.9378C82.5558 87.1035 82.4875 91.7033 83.4787 101.681C84.4016 111.016 84.6409 124.409 81.3253 141.489C84.2991 143.654 88.6401 146.156 94.3143 147.476C110.653 151.264 124.189 141.827 126.752 140.001C123.505 121.162 121.728 106.078 120.702 95.4913C120.053 88.7946 117.66 79.0539 112.909 59.5387C111.473 53.586 110.004 47.9039 105.56 46.2805C99.4073 43.9806 91.8532 51.0494 90.6227 52.2331Z" fill="#EC615B"/>
<path opacity="0.1" d="M105.389 46.754C105.936 48.9524 106.722 52.267 107.508 56.3594C108.534 61.6356 109.901 69.6176 110.858 81.4891C111.849 93.7326 112.977 116.698 113.319 146.393C115.643 145.717 118.446 144.702 121.42 143.079C123.403 141.996 125.112 140.847 126.547 139.764C126.308 137.16 125.864 133.203 125.146 128.434C124.223 122.447 123.3 118.287 122.856 116.224C121.762 110.88 120.531 102.898 120.395 91.8048C118.993 85.9198 117.934 81.1847 117.216 78.0393C115.233 69.1103 114.652 65.8296 113.148 60.4181C111.644 54.9727 110.072 50.6435 109.081 48.0392C107.85 47.5657 106.62 47.1599 105.389 46.754Z" fill="#606060"/>
<path d="M90.5885 55.4801C90.8961 56.0888 91.4088 56.2918 92.5368 56.8329C93.4939 57.3064 94.4168 57.8814 95.3739 58.2873C98.3135 59.5387 101.766 65.0855 102.313 65.9648C104.398 69.3132 106.825 73.2365 108.226 78.9186C108.602 80.4068 109.457 84.2625 108.465 97.2839C107.406 110.644 106.038 112.504 107.098 119.167C107.884 124.003 108.876 129.787 113.695 132.932C118.173 135.841 123.334 134.826 124.394 134.623C130.888 133.372 134.58 128.4 138.169 123.564C143.638 116.224 145.723 108.885 146.612 104.623C147.022 102.628 146.954 96.7766 146.851 85.108C146.714 73.0674 146.509 68.9073 143.33 65.3899C141.177 63.0223 138.545 61.9062 136.733 61.3312C136.87 60.5872 136.904 59.471 136.289 58.524C135.127 56.7653 132.358 56.7991 130.581 56.8329C122.958 57.0359 117.284 62.1091 117.011 62.3459C112.26 66.7089 110.858 72.0528 110.414 74.285C109.457 70.0911 107.884 66.878 106.654 64.8149C105.594 63.0223 104.022 61.196 100.843 57.4755C98.3477 54.5669 97.1513 53.4507 95.2713 52.8419C94.8611 52.7067 91.7506 51.7935 90.7252 53.1802C90.2466 53.8228 90.2467 54.8036 90.5885 55.4801Z" fill="white"/>
<path opacity="0.11" d="M90.3493 54.2286C90.5543 53.8566 92.8445 54.7022 93.0838 54.8036C96.4677 56.0889 99.4757 58.7608 103.338 64.9502C105.321 68.1294 107.816 72.6278 109.935 78.4789C111.439 76.957 112.704 75.7055 113.695 74.7585C113.695 74.7585 117.353 71.2749 123.266 67.8927C123.847 67.5545 124.565 67.1486 125.077 67.453C126.137 68.028 125.009 70.8352 125.317 73.4395C125.556 75.4011 126.718 78.1069 131.128 81.117C131.23 81.692 131.264 82.5037 130.786 83.0449C129.829 84.0934 127.368 83.2478 126.103 82.8081C124.052 82.0979 120.087 80.2377 115.404 74.7924C114.96 76.5511 114.379 79.0539 113.934 82.1317C113.524 84.8036 112.396 93.6988 114.276 105.131C115.028 109.663 116.43 115.717 119.301 122.616C120.566 123.158 122.172 123.665 124.086 123.969C128.085 124.578 131.401 123.8 133.315 123.191C132.187 123.733 130.649 124.646 129.316 126.235C127.709 128.163 127.675 129.618 126.342 131.41C125.453 132.628 123.847 134.15 120.873 135.232C119.95 135.131 118.549 134.894 117.011 134.217C112.328 132.154 110.209 127.791 109.252 125.762C107.987 123.022 106.038 117.476 107.884 98.7044C108.944 87.9829 110.106 84.6345 108.329 78.5128C106.961 73.8115 104.603 69.922 103.783 68.6029C102.313 66.2354 99.6808 62.0077 94.8954 58.1182C92.6394 56.2241 90.1442 54.6683 90.3493 54.2286Z" fill="#606060"/>
<path d="M128.462 61.8048C127.846 62.6165 127.06 63.8003 126.445 65.3561C126.103 66.2693 125.283 68.4 125.488 71.1058C125.864 76.4835 129.76 79.7642 130.478 80.3392C130.957 80.7112 131.367 81.0156 131.64 81.1847C131.23 82.5714 130.752 84.6345 130.581 87.1712C130.307 90.7563 130.034 94.7811 132.153 95.9649C133.52 96.7089 135.571 96.2016 136.699 95.1193C136.973 94.8487 137.759 94.0032 137.964 90.1813C138.203 85.6492 137.246 83.7552 138.614 82.4361C139.195 81.8273 140.186 81.4553 141.04 81.0832C141.998 80.6774 142.852 80.4744 143.467 80.3392C143.091 83.1126 142.818 85.5815 142.613 87.577C142.374 90.046 142.271 91.2974 143.126 92.0753C143.912 92.7856 145.211 92.9209 146.202 92.4812C147.501 91.9062 147.911 90.3166 148.629 87.1374C149.21 84.6345 149.688 82.5376 149.381 79.6965C149.21 78.2422 148.902 77.0584 148.629 76.2467C148.56 75.6717 148.39 74.8262 148.116 73.8454C147.535 71.8837 146.988 71.3087 146.646 70.0573C146.134 68.2647 146.715 67.3854 146.851 65.3561C146.988 63.7664 146.851 61.5004 145.689 58.6593C145.245 58.6932 144.322 58.7608 143.365 59.4034C142.203 60.1475 141.724 61.2298 141.553 61.6018C140.664 61.3989 139.058 61.196 137.212 61.7033C134.033 62.5488 132.358 64.8826 131.914 65.5928C132.803 63.665 132.051 61.7709 130.854 61.2974C129.829 60.8578 128.598 61.7371 128.462 61.8048Z" fill="#272727"/>
<path d="M132.324 72.2895C132.666 71.6469 134.375 70.2264 134.956 71.4102C135.23 71.9851 136.118 71.4778 135.845 70.9028C135.469 70.1249 134.546 69.8882 133.726 70.0573C132.734 70.2264 131.914 70.9028 131.435 71.7822C131.128 72.3572 132.016 72.8645 132.324 72.2895Z" fill="white"/>
<path d="M142.339 69.6853C142.544 69.2456 142.749 68.7382 143.091 68.4C143.433 68.0618 144.458 67.6898 144.493 68.4677C144.527 69.1103 145.552 69.1103 145.518 68.4677C145.45 67.4868 144.595 66.8442 143.604 66.9795C142.476 67.1824 141.895 68.1971 141.45 69.1441C141.177 69.7529 142.066 70.2941 142.339 69.6853Z" fill="white"/>
<path d="M142.613 72.8983C142.613 72.9322 142.613 72.966 142.613 72.9998C142.544 73.0674 142.476 73.1351 142.442 73.1689C142.271 73.2704 141.997 73.1689 142.032 72.966C142.032 72.966 142.032 72.8645 142.066 72.8983L141.963 72.9998C142.203 72.9998 142.442 72.9998 142.681 72.9998C142.647 72.966 142.647 72.966 142.613 72.9322C142.647 72.966 142.647 72.966 142.647 72.966C142.613 72.9321 142.647 72.9322 142.647 72.9998C142.681 73.2027 142.579 73.338 142.305 73.4395C142.203 73.4057 142.134 73.4057 142.032 73.3718C141.895 73.3042 141.929 73.1013 141.963 72.9998C141.997 72.966 141.963 72.966 141.929 73.0336C141.963 72.9998 141.963 72.9998 141.929 73.0336C141.69 73.2027 141.587 73.4733 141.758 73.7439C141.895 73.9468 142.237 74.0821 142.476 73.913C142.715 73.7439 142.955 73.5071 142.989 73.1689C142.989 72.7969 142.715 72.4586 142.339 72.4586C141.963 72.4586 141.69 72.6954 141.656 73.0674C141.621 73.338 141.792 73.5748 141.963 73.7439C142.168 73.9468 142.476 73.913 142.681 73.7439C143.125 73.4057 143.228 72.6954 142.715 72.3572C142.476 72.2219 142.168 72.1881 141.929 72.3233C141.621 72.4925 141.587 72.8983 141.656 73.2027C141.69 73.4733 142.032 73.6086 142.271 73.541C142.544 73.4395 142.647 73.1689 142.613 72.8983Z" fill="white"/>
<path d="M137.144 73.9468C136.152 74.5218 134.819 74.2512 134.17 73.3041C133.794 72.763 132.905 73.2703 133.281 73.8115C134.272 75.1982 136.152 75.6717 137.691 74.8262C138.238 74.4879 137.725 73.6086 137.144 73.9468Z" fill="white"/>
<path d="M136.392 76.1453C135.64 76.7202 134.99 77.4643 134.546 78.3099C134.238 78.8848 135.127 79.3921 135.435 78.8172C135.845 78.0393 136.426 77.3967 137.144 76.8555C137.349 76.6864 137.315 76.3144 137.144 76.1453C136.904 75.9423 136.597 75.9762 136.392 76.1453Z" fill="white"/>
<path d="M144.698 72.4249C145.381 71.6469 145.894 70.7676 146.236 69.7867C146.441 69.1779 145.45 68.9073 145.245 69.5161C144.971 70.3279 144.527 71.072 143.98 71.7146C143.57 72.2219 144.288 72.9322 144.698 72.4249Z" fill="white"/>
<path d="M144.766 73.71C145.587 73.5409 146.544 73.338 147.193 74.0144C147.637 74.488 148.355 73.7777 147.911 73.3042C146.988 72.3233 145.655 72.4925 144.459 72.763C143.843 72.8645 144.117 73.8453 144.766 73.71Z" fill="white"/>
<path d="M90.1784 54.7021C91.7507 52.267 95.4765 53.7213 97.3564 54.9389C99.6124 56.3594 101.321 58.4902 102.86 60.621C105.97 64.9163 108.739 69.5838 109.764 74.8262C109.901 75.4688 110.892 75.1982 110.756 74.5556C109.559 68.2985 105.868 62.2782 101.697 57.4755C99.2706 54.7022 92.4001 49.4598 89.2896 54.2286C88.9478 54.736 89.8366 55.2771 90.1784 54.7021Z" fill="#272727"/>
<path d="M92.2976 57.0021C100.501 61.568 105.116 70.125 107.44 78.851C107.611 79.4936 108.602 79.223 108.431 78.5804C106.039 69.6176 101.219 60.7901 92.8103 56.1227C92.2292 55.7845 91.7165 56.6639 92.2976 57.0021Z" fill="#272727"/>
<path d="M110.756 74.3865C111.61 68.4 115.473 63.3944 120.771 60.5195C123.505 59.0314 126.547 58.1182 129.658 57.6785C131.128 57.4756 132.837 57.2726 134.272 57.8138C135.845 58.3887 137.349 60.8577 135.366 61.9739C134.785 62.2783 135.298 63.1576 135.879 62.8532C138.067 61.6356 137.52 58.524 135.606 57.3403C132.632 55.4801 127.71 56.7991 124.667 57.8138C117.147 60.2151 110.926 66.2354 109.798 74.1836C109.662 74.7586 110.653 75.0291 110.756 74.3865Z" fill="#272727"/>
<path d="M113.046 75.9085C114.721 73.9806 116.84 72.3572 118.891 70.8352C120.873 69.347 122.993 68.1294 125.454 67.5883C126.103 67.453 125.83 66.4722 125.18 66.6074C122.651 67.1824 120.429 68.4338 118.378 69.9558C116.259 71.5454 114.071 73.2027 112.328 75.1982C111.884 75.6717 112.601 76.4158 113.046 75.9085Z" fill="#272727"/>
<path d="M125.59 67.6897C126.308 66.0663 127.231 64.5105 128.359 63.1238C128.564 62.887 128.803 62.4811 129.077 62.312C129.316 61.8723 129.624 61.8385 130.068 62.2444C130.615 62.2444 130.854 62.4473 130.854 62.9208C131.23 63.6311 131.265 64.8487 131.401 65.6604C131.538 66.303 132.529 66.0325 132.392 65.3898C132.119 64.1046 131.777 59.5048 129.316 60.7562C128.359 61.2297 127.641 62.4135 127.026 63.2252C126.103 64.4766 125.351 65.7957 124.702 67.1824C124.428 67.7574 125.317 68.2985 125.59 67.6897Z" fill="#272727"/>
<path d="M132.187 65.9649C133.931 63.7326 137.486 60.6548 140.528 62.3121C141.109 62.6165 141.621 61.7371 141.04 61.4327C137.52 59.5725 133.555 62.6165 131.435 65.2546C131.059 65.7619 131.777 66.4722 132.187 65.9649Z" fill="#272727"/>
<path d="M141.519 62.143C141.997 61.3989 144.219 58.7269 145.176 59.4372C145.689 59.8092 145.792 61.1283 145.928 61.7371C146.133 62.6841 146.202 63.6311 146.236 64.612C146.27 65.2546 147.296 65.2546 147.261 64.612C147.227 63.2591 147.056 61.94 146.715 60.621C146.509 59.8769 146.339 58.4564 145.45 58.2196C144.629 58.0167 143.501 58.7946 142.886 59.2343C141.963 59.8769 141.245 60.6886 140.664 61.6356C140.288 62.1768 141.177 62.6841 141.519 62.143Z" fill="#272727"/>
<path d="M114.379 74.2512C116.737 76.5173 119.233 78.6142 121.899 80.5083C124.531 82.3685 127.094 83.6875 130.41 83.5184C131.059 83.4846 131.059 82.4699 130.41 82.5037C127.026 82.6729 124.531 81.1847 121.899 79.2907C119.472 77.5319 117.216 75.6041 115.062 73.5409C114.618 73.1013 113.9 73.8115 114.379 74.2512Z" fill="#272727"/>
<path d="M107.474 77.7348C111.2 94.1046 101.492 111.996 109.525 127.656C111.029 130.598 113.319 133.27 116.464 134.589C119.54 135.875 123.095 135.773 126.274 134.759C133.315 132.526 137.862 126.066 141.348 119.978C143.57 116.157 145.416 112.064 146.509 107.769C147.056 105.638 147.398 103.406 147.501 101.207C147.603 98.6706 147.261 96.1339 147.364 93.5973C147.398 92.9547 146.373 92.9547 146.339 93.5973C146.202 97.7236 146.749 101.647 145.928 105.739C145.211 109.392 143.877 112.943 142.203 116.258C139.092 122.481 134.888 129.482 128.427 132.763C125.078 134.454 120.942 135.097 117.353 133.778C113.832 132.492 111.508 129.415 110.004 126.134C106.79 118.998 107.166 110.88 108.021 103.304C108.978 94.7134 110.482 86.0212 108.534 77.4304C108.294 76.8555 107.303 77.0922 107.474 77.7348Z" fill="#272727"/>
<path d="M123.334 111.963C128.393 111.523 133.726 110.576 138.784 111.117C139.434 111.185 139.434 110.17 138.784 110.102C133.726 109.527 128.393 110.508 123.334 110.948C122.685 111.016 122.685 112.03 123.334 111.963Z" fill="#272727"/>
<path d="M138.306 110.88C137.656 114.601 136.665 118.186 135.332 121.703C135.093 122.312 136.084 122.583 136.323 121.974C137.691 118.456 138.682 114.837 139.297 111.151C139.4 110.508 138.408 110.238 138.306 110.88Z" fill="#272727"/>
<path d="M125.146 65.8634C124.121 71.8498 125.249 78.9862 131.435 81.7258C132.017 81.9964 132.563 81.117 131.948 80.8464C126.171 78.276 125.18 71.6807 126.137 66.134C126.24 65.4913 125.249 65.2208 125.146 65.8634Z" fill="#272727"/>
<path d="M146.168 64.24C146.236 66.1678 146.202 68.1295 146.475 70.0235C146.749 72.0866 148.629 74.3865 147.637 76.4496C147.364 77.0246 148.253 77.5658 148.526 76.957C149.415 75.0968 148.629 73.541 147.979 71.7146C147.125 69.3809 147.33 66.6751 147.227 64.2061C147.159 63.5635 146.133 63.5635 146.168 64.24Z" fill="#272727"/>
<path d="M134.238 81.0156C135.742 80.2377 137.451 81.0494 137.793 82.6729C137.827 82.842 138.067 82.7743 138.032 82.6052C137.622 80.8126 135.742 79.9333 134.102 80.7788C133.965 80.8803 134.102 81.117 134.238 81.0156Z" fill="white"/>
<path d="M136.836 82.7405C137.075 83.011 137.246 83.3154 137.349 83.6537C137.417 83.8228 137.656 83.7551 137.588 83.586C137.451 83.214 137.246 82.8757 137.007 82.5713C136.905 82.4361 136.699 82.639 136.836 82.7405Z" fill="white"/>
<path d="M143.706 80.373C144.014 78.9863 144.903 77.8363 146.202 77.1937C146.338 77.1261 146.236 76.8893 146.065 76.9908C144.698 77.6334 143.775 78.851 143.467 80.3053C143.433 80.4744 143.672 80.5421 143.706 80.373Z" fill="white"/>
<path d="M83.513 8.67055C81.1545 9.85432 79.172 12.0866 78.2832 13.0674C76.0956 15.5364 74.9676 17.8363 73.7371 20.4067C72.7117 22.5037 71.5153 25.48 70.5582 29.2004C71.8913 29.4372 73.2244 29.6401 74.5575 29.8769C74.4891 31.1621 74.4891 33.0561 75.0018 35.2884C75.4804 37.3177 76.2665 40.5646 79.001 42.8307C82.761 46.0099 87.7515 45.232 88.6744 45.0967C88.7427 46.6864 89.0846 48.9524 90.3834 51.2861C90.7253 51.8611 91.0671 52.4023 91.4089 52.8758C93.2889 52.3346 96.1943 51.2185 99.0313 48.9186C106.278 43.1351 107.269 34.5105 107.577 32.0077C108.021 28.152 108.876 20.8803 104.056 14.86C99.0313 8.63673 89.4947 5.69422 83.513 8.67055Z" fill="white"/>
<path d="M76.5058 15.7055C77.4629 14.285 79.3087 12.188 81.3937 10.7337C84.7435 8.39998 86.2475 9.38081 87.9566 7.31768C89.1871 5.82951 89.9733 3.39434 89.0504 2.24439C87.5806 0.41801 82.3508 2.61643 81.6672 2.92083C80.1632 3.56345 75.2069 5.62659 73.2244 10.8352C71.5837 15.1982 72.6775 19.9671 73.4295 20.0685C73.6346 20.1024 73.7713 19.7641 74.8651 18.1069C75.3778 17.2613 75.9589 16.4834 76.5058 15.7055Z" fill="#FEA300"/>
<path d="M83.9574 5.52511C83.684 6.40448 83.2738 8.16322 84.6411 11.6131C87.068 17.8025 92.7421 23.3493 95.5791 22.3346C96.1944 22.0979 96.8438 21.4891 98.0744 21.4214C98.382 21.4214 99.6125 21.3538 100.57 22.0979C102.074 23.2816 102.142 25.8521 101.151 27.5094C100.98 27.8138 100.057 29.2005 98.6555 29.3019C97.4249 29.4034 97.0148 28.4564 96.0235 28.3887C93.5966 28.2534 91.5115 33.5297 91.2381 34.2399C90.6912 35.5928 89.3581 39.1103 90.3152 43.6086C90.5203 44.5894 90.9988 46.6526 92.4686 48.7833C95.6475 53.3493 100.98 54.4654 102.962 54.8713C104.911 55.2771 112.328 56.7991 118.105 52.0641C119.028 51.32 122.07 48.7495 122.89 44.3865C124.292 37.0133 118.036 31.5003 117.66 31.196C117.387 27.3741 116.464 21.2861 113.217 14.6232C111.166 10.3955 109.252 6.50595 104.911 3.56345C99.2024 -0.25843 90.8963 -1.34074 86.5552 1.97381C86.1109 2.37968 84.6411 3.52962 83.9574 5.52511Z" fill="#FEA300"/>
<path d="M77.4628 41.816C76.95 42.3234 75.4461 43.8792 75.1726 46.3143C74.7966 49.6965 77.0868 52.0302 77.5653 52.5037C80.0606 55.0404 84.2307 56.055 87.2387 54.533C87.4779 54.4316 90.1099 53.0449 90.2125 51.0494C90.2466 50.17 89.7681 49.7303 89.0845 47.7687C88.6401 46.4834 88.3667 45.435 88.1616 44.7247C87.2387 45.0291 85.6663 45.435 83.718 45.1644C80.2315 44.7247 78.078 42.4925 77.4628 41.816Z" fill="#FEA300"/>
<path opacity="0.12" d="M84.2993 8.50144C84.3335 9.54992 84.4702 11.1057 85.188 12.763C85.6666 13.8791 86.1451 14.5556 86.5211 15.0967C87.9567 17.2613 88.4352 19.2906 89.1872 21.5567C90.3836 25.0742 90.1785 28.0167 89.9392 31.6694C89.7341 34.7134 89.0505 39.347 86.8287 44.7247C87.7516 44.9953 89.0847 45.5364 90.5203 46.4834C93.1523 48.2422 94.3486 50.3391 95.1006 51.32C96.6388 53.3154 100.057 55.4124 108.295 55.2771C107.474 54.4654 106.312 53.2478 105.047 51.7596C102.074 48.3098 99.4758 45.2997 97.9377 41.6469C97.0489 39.5499 95.6817 35.2546 96.7413 29.0313C97.6984 29.5048 98.8264 29.471 99.7151 28.896C100.638 28.2872 101.219 27.0697 100.911 25.9535C100.535 24.6683 98.9631 23.7889 97.3566 24.1948C97.0148 23.3493 96.4679 22.1317 95.5791 20.8126C94.1777 18.7495 92.7079 17.4642 92.161 16.9907C90.4178 15.5026 87.8884 12.9659 84.2993 8.50144Z" fill="#606060"/>
<path opacity="0.14" d="M70.9343 28.5916C70.9685 28.0505 72.7117 27.6108 74.1815 27.7123C75.4804 27.8137 77.0185 28.3887 76.9843 28.896C76.9501 29.3695 75.5145 29.7416 74.4549 29.7754C72.8143 29.843 70.9343 29.1328 70.9343 28.5916Z" fill="#606060"/>
<path d="M75.1727 16.0099C73.2243 20.2376 71.4811 24.533 69.9771 28.9299C69.8746 29.2004 70.0797 29.471 70.319 29.5387C71.652 30.046 72.9851 30.2827 74.3865 30.2489C75.0359 30.2489 75.0359 29.2343 74.3865 29.2343C73.0534 29.2343 71.8229 28.9975 70.5924 28.5578C70.695 28.7608 70.8317 28.9637 70.9342 29.1666C72.404 24.8374 74.0789 20.6097 76.0272 16.4834C76.3348 15.9423 75.4461 15.4011 75.1727 16.0099Z" fill="#272727"/>
<path d="M74.2499 30.4519C74.5233 34.8149 74.9335 39.6514 78.2149 42.9321C81.3596 46.1113 85.9057 45.8408 90.0417 45.3673C90.6911 45.2996 90.6911 44.285 90.0417 44.3526C86.2134 44.7923 81.8723 45.1643 78.9327 42.2218C75.8564 39.1441 75.5488 34.5443 75.2753 30.4519C75.2411 29.8092 74.2157 29.8092 74.2499 30.4519Z" fill="#272727"/>
<path d="M88.0249 45.4688C88.4692 47.8363 89.2896 50.1024 90.4517 52.1993C90.7594 52.7743 91.6481 52.267 91.3404 51.692C90.2125 49.6289 89.4605 47.4981 89.0161 45.1982C88.9136 44.5556 87.9223 44.8261 88.0249 45.4688Z" fill="#272727"/>
<path d="M74.9334 35.6266C76.6083 37.081 79.1036 36.4045 79.753 34.2737C79.9581 33.6311 78.9668 33.3944 78.7618 34.0032C78.3516 35.356 76.745 35.8634 75.6854 34.8825C75.1727 34.4767 74.4548 35.1869 74.9334 35.6266Z" fill="#272727"/>
<path d="M78.0781 34.2399C78.625 34.3752 79.0352 34.6796 79.377 35.0854C79.5479 35.2884 79.9239 35.2546 80.0948 35.0854C80.2999 34.8825 80.2657 34.5781 80.0948 34.3752C79.6504 33.8341 79.0352 33.4282 78.3516 33.2591C77.7363 33.09 77.4629 34.0708 78.0781 34.2399Z" fill="#272727"/>
<path d="M79.6162 21.5905C79.8897 20.17 81.6671 20.4406 82.6242 20.9479C83.4446 21.3876 84.0257 22.0978 84.3675 22.9434C84.6068 23.5522 85.5981 23.2816 85.3588 22.6728C84.8119 21.2185 83.6839 20.0685 82.1115 19.6627C80.6759 19.2906 78.9668 19.7303 78.6592 21.3199C78.5224 21.9626 79.5137 22.2331 79.6162 21.5905Z" fill="#272727"/>
<path d="M79.5821 15.604C81.1202 13.0674 84.1282 15.0291 84.7434 17.1599C84.9143 17.8025 85.9056 17.5319 85.7347 16.8893C85.2903 15.3335 84.1965 13.8791 82.5216 13.4733C81.0177 13.135 79.4795 13.7777 78.6933 15.0629C78.3515 15.6717 79.2402 16.179 79.5821 15.604Z" fill="#272727"/>
<path d="M80.6076 27.3402C81.2571 27.3402 81.2571 26.3256 80.6076 26.3256C79.9581 26.3256 79.9239 27.3402 80.6076 27.3402Z" fill="#272727"/>
<path d="M82.5559 25.8182C82.59 25.8182 82.6584 25.8182 82.6926 25.8182C82.9661 25.8182 83.2054 25.5815 83.2054 25.3109C83.2054 25.0403 82.9661 24.8036 82.6926 24.8036C82.6584 24.8036 82.59 24.8036 82.5559 24.8036C82.2824 24.8036 82.0431 25.0403 82.0431 25.3109C82.0431 25.6153 82.2824 25.8182 82.5559 25.8182Z" fill="#272727"/>
<path d="M82.5901 27.5432C82.5901 27.577 82.5901 27.6108 82.5901 27.6446C82.5901 28.2872 83.6156 28.2872 83.6156 27.6446C83.6156 27.6108 83.6156 27.577 83.6156 27.5432C83.6156 26.9006 82.5901 26.9006 82.5901 27.5432C82.5901 27.577 82.5901 27.6108 82.5901 27.6446C82.5901 28.2872 83.6156 28.2872 83.6156 27.6446C83.6156 27.6108 83.6156 27.577 83.6156 27.5432C83.6156 26.9006 82.5901 26.9006 82.5901 27.5432Z" fill="#272727"/>
<path d="M97.4932 22.3684C98.4161 21.0494 99.9884 21.8949 100.535 22.9772C100.98 23.8228 100.98 24.8374 100.946 25.7506C100.809 28.0505 98.8604 29.674 96.6044 28.2535C96.0575 27.8814 95.5448 28.7608 96.0917 29.1328C97.4248 30.0122 99.1339 30.1137 100.467 29.099C101.834 28.0505 102.074 26.3256 101.971 24.7021C101.868 23.1463 101.253 21.4214 99.6124 20.8464C98.4503 20.4406 97.2881 20.8803 96.6044 21.8611C96.2626 22.3684 97.1513 22.8758 97.4932 22.3684Z" fill="#272727"/>
<path d="M5.54504 3.05612C4.82723 3.05612 4.10943 3.08994 3.4258 3.08994C2.26363 5.32218 1.61418 7.3515 1.23818 8.83966C0.144374 13.2027 0.41783 16.8216 0.622919 18.5804C0.759645 19.7641 0.964734 20.745 1.13564 21.4214C1.75091 21.4214 2.36616 21.4214 2.98143 21.4214C3.2207 22.2331 3.45998 23.0449 3.69925 23.8566C9.47592 23.8228 14.2271 23.8228 17.5428 23.8566C37.6415 24.0257 51.6559 24.8036 54.9031 24.9727C58.9707 25.2095 62.2863 25.4462 64.3372 25.5815C64.4055 24.3301 64.7474 23.8904 65.055 23.7551C65.6019 23.5184 66.0804 24.0933 66.7983 23.958C67.5502 23.8228 68.0288 23.0449 68.3364 22.3346C68.9517 22.639 70.0797 23.0449 71.4128 22.8419C71.7204 22.8081 71.9938 22.7066 72.2331 22.639C72.8142 21.4891 73.3953 20.3391 73.9764 19.1892C73.156 18.9186 71.9939 18.6818 70.5924 18.6818C69.8062 18.6818 69.1226 18.7833 68.5415 18.8848C68.4732 18.7157 67.9263 17.1937 66.4906 16.8555C66.0463 16.754 65.6703 16.7878 65.3626 16.8555C65.1575 16.4834 64.9525 16.1114 64.7474 15.7393C63.927 15.604 62.6623 15.4011 61.1583 15.1305C48.9555 12.9321 40.4443 10.2602 33.9499 8.33233C27.7288 6.47213 18.6707 3.93548 7.04903 1.12827C6.57049 1.77088 6.05776 2.4135 5.54504 3.05612Z" fill="white"/>
<path opacity="0.07" d="M0.725527 16.179C1.03316 16.1114 1.37497 16.8893 1.75097 16.7878C2.36624 16.6525 2.22951 14.5217 2.36623 12.9321C2.46878 11.4101 2.91313 9.21168 4.41712 6.53975C5.40838 6.94561 6.91237 7.58823 8.72399 8.36614C15.2526 11.1734 19.7646 13.338 21.1318 13.9468C30.1557 18.1069 40.0684 19.9671 42.5636 20.4406C48.2377 21.5229 56.0994 22.4699 65.5335 22.064C65.1233 23.1801 64.7132 24.2963 64.303 25.4124C62.7306 25.3786 60.4405 25.3786 57.6376 25.3109C45.6057 25.0742 37.1971 24.7021 32.3775 24.4992C25.5754 24.2286 15.8337 23.958 3.52841 23.9919C3.39168 23.0787 3.25495 22.1655 3.11823 21.2523C2.33205 21.3876 1.54587 21.5229 0.7597 21.6582C0.246979 17.4304 0.383713 16.2466 0.725527 16.179Z" fill="#606060"/>
<path d="M6.26304 1.16209C1.99031 7.68971 0.793937 15.807 2.98157 23.2816C3.15248 23.9242 4.14376 23.6536 3.97285 23.011C1.85358 15.7731 3.01576 7.99411 7.15175 1.66942C7.52775 1.09444 6.63903 0.587115 6.26304 1.16209Z" fill="#272727"/>
<path d="M7.15162 2.14292C26.3958 6.94562 45.6057 11.7483 64.8499 16.5172C65.4993 16.6863 65.7728 15.7055 65.1233 15.5364C45.8792 10.7337 26.6692 5.93097 7.42507 1.16209C6.8098 0.992977 6.53636 1.97381 7.15162 2.14292Z" fill="#272727"/>
<path d="M3.69937 24.3977C23.7639 24.2286 43.8283 24.7021 63.8586 25.7844C64.5081 25.8182 64.5081 24.8036 63.8586 24.7698C43.8283 23.6875 23.7639 23.214 3.69937 23.3831C3.04992 23.3831 3.04992 24.3977 3.69937 24.3977Z" fill="#272727"/>
<path d="M64.5423 16.1452C65.9096 19.1553 65.602 22.5713 63.722 25.3109C63.3459 25.8521 64.2347 26.3594 64.6107 25.8182C66.6959 22.7743 66.9693 18.9862 65.4311 15.6379C65.1576 15.0629 64.2689 15.5702 64.5423 16.1452Z" fill="#272727"/>
<path d="M65.5677 17.4642C65.9437 17.7348 66.2171 17.6334 66.6615 17.7348C67.516 17.9716 67.8578 18.7495 68.0288 19.5612C68.3022 21.0494 67.9262 24.1948 65.7044 23.3154C65.0891 23.0787 64.8157 24.0595 65.4309 24.2963C67.6869 25.1756 69.1568 22.8419 69.1568 20.8803C69.1568 19.798 69.02 18.5804 68.4047 17.6672C68.1997 17.3628 67.9262 17.0584 67.5844 16.8893C67.14 16.6863 66.5248 16.8216 66.1488 16.5511C65.5335 16.2128 65.0207 17.0922 65.5677 17.4642Z" fill="#272727"/>
<path d="M68.5758 19.3244C70.3191 19.223 72.0623 19.2568 73.7713 19.4935C74.4208 19.5612 74.4208 18.5465 73.7713 18.4789C72.0281 18.276 70.3191 18.2083 68.5758 18.3098C67.9264 18.3774 67.9264 19.3921 68.5758 19.3244Z" fill="#272727"/>
<path d="M68.439 23.0448C69.8404 23.2816 71.2419 23.3831 72.6433 23.2478C73.2927 23.1801 73.2927 22.1655 72.6433 22.2331C71.3102 22.3346 70.0113 22.3008 68.7124 22.064C68.063 21.9626 67.7895 22.9096 68.439 23.0448Z" fill="#272727"/>
<path d="M5.68185 2.78554C2.36625 0.891514 1.44335 6.81034 0.998994 8.67054C-0.0264474 12.9659 -0.504991 17.3966 0.75972 21.692C0.828083 21.8949 1.03318 22.064 1.23827 22.064C1.68263 22.064 2.16117 22.064 2.60552 22.064C3.25497 22.064 3.25497 21.0494 2.60552 21.0494C2.16117 21.0494 1.68263 21.0494 1.23827 21.0494C1.40917 21.1846 1.58009 21.2861 1.71682 21.4214C0.8281 18.3098 0.828087 15.1643 1.34081 11.9851C1.58008 10.5646 1.88771 9.14405 2.26371 7.75735C2.50298 6.84416 3.25498 2.54878 5.13495 3.6649C5.75022 4.00312 6.26293 3.12376 5.68185 2.78554Z" fill="#272727"/>
<path d="M42.6319 10.0573C42.0167 9.31318 40.9912 9.41464 40.8545 9.41464C39.7265 9.48229 38.6327 10.4969 37.4364 12.9659C35.112 17.6672 35.0095 22.3684 35.0095 23.1125C34.9753 26.3594 35.2829 31.6356 37.6073 37.9265C37.8124 40.5646 38.2567 44.2512 39.248 48.5466C40.9912 56.258 42.837 64.3752 49.1947 71.5793C51.5874 74.3189 56.3045 79.6289 64.508 81.5567C73.0876 83.586 80.0606 80.5759 81.7696 79.798C83.2736 79.0877 87.4779 76.9908 91.0328 72.5601C93.1862 69.8882 95.6815 66.9795 95.2713 63.3944C95.1004 61.8386 94.4168 60.5195 93.3913 58.4226C92.3659 56.3256 91.819 55.2771 90.7252 54.8713C89.2212 54.2963 87.6147 55.3109 85.8372 56.3256C82.8293 58.0167 82.5558 59.6401 79.3086 61.3312C78.454 61.7709 77.5995 62.0753 75.8904 62.6165C73.1901 63.4958 70.524 64.3752 68.0629 64.5443C62.6964 64.9164 58.3895 61.8724 57.159 60.993C52.6129 57.7799 50.8355 53.4846 49.6733 50.6773C47.0755 44.3865 47.2806 38.6029 47.725 35.2207C49.3315 34.9502 50.3227 34.3076 50.8013 33.9355C52.6129 32.5488 53.0572 30.621 53.7409 27.6446C54.1852 25.7844 54.3903 24.8036 53.9118 24.4316C52.9205 23.6875 49.8784 26.1227 49.1947 26.6976C49.3315 24.3977 49.6733 22.5375 50.0151 21.2185C50.4595 19.4597 50.6987 18.5466 51.314 17.8363C52.5104 16.4496 53.9118 16.5849 54.3903 15.2658C54.6638 14.5556 54.6296 13.5747 54.0485 12.9998C53.3649 12.3233 51.8951 12.3571 50.6304 13.338C50.2202 12.4586 49.3998 11.9175 48.5111 11.8836C47.6224 11.8498 47.0413 12.391 46.8704 12.5263C46.973 11.6131 46.5628 10.7675 45.8791 10.4293C44.9563 9.95579 43.4865 10.4969 42.9396 11.8836C42.9737 11.7145 43.213 10.7675 42.6319 10.0573Z" fill="white"/>
<path opacity="0.12" d="M40.8545 9.41463C40.0341 10.8352 39.0087 12.9321 38.325 15.6717C36.821 21.6243 38.0516 26.5962 38.5985 28.9975C44.4777 53.789 41.9141 54.3978 46.0158 60.2151C47.5198 62.3121 57.8426 76.382 73.2242 74.5218C86.1106 72.966 92.9469 61.3651 93.8356 59.8092C94.3483 61.1621 94.9636 63.462 94.5534 66.2016C93.9381 70.2264 91.4087 72.763 90.4858 73.7101C89.5971 74.5894 88.5033 75.3673 86.2815 76.8893C84.299 78.276 82.3507 79.4936 81.4961 79.9333C77.4285 82.1993 71.1392 82.7405 66.7639 82.1655C54.8688 80.6097 47.7249 69.4485 44.7511 64.8149C37.949 54.2286 37.2654 43.5071 37.3338 38.1632C36.6843 35.9986 36.0349 33.8002 35.3854 31.6356C34.9411 28.2873 34.9069 25.5139 34.9753 23.586C35.1462 18.7495 35.2829 15.1305 37.7781 12.0527C38.8719 10.6999 40.0683 9.88814 40.8545 9.41463Z" fill="#606060"/>
<path d="M87.1362 76.382C92.5368 73.8453 96.1601 68.5353 95.2713 62.515C94.7586 58.8623 91.7848 52.5714 87.0336 54.8036C84.9144 55.8183 83.1711 57.6785 81.2228 58.9975C78.5225 60.8239 75.412 62.2444 72.3015 63.2253C68.3364 64.4767 63.927 64.7473 60.0987 62.8532C57.2958 61.4665 55.1082 59.2005 53.4333 56.63C49.7417 50.9818 47.8276 44.3188 48.2719 37.5883C48.3061 36.9457 47.2807 36.9457 47.2465 37.5883C46.8705 43.2704 48.1352 48.6819 50.6646 53.7551C52.8864 58.2873 56.1336 62.5488 61.0558 64.3752C67.0375 66.5736 73.5662 64.3414 78.9668 61.5342C81.3937 60.249 83.4788 58.5917 85.6664 56.9344C87.6489 55.4124 89.6314 54.6683 91.6481 56.6977C94.1434 59.2005 94.8953 63.5635 94.1434 66.878C93.2205 70.8352 90.2467 73.8115 86.6235 75.5026C86.0424 75.7732 86.5551 76.6526 87.1362 76.382Z" fill="#272727"/>
<path d="M48.2035 38.028C47.7592 36.1678 49.0922 35.6943 50.3228 34.8149C51.0406 34.3076 51.5875 33.5973 52.1002 32.887C53.3991 31.0268 54.4246 28.8622 54.698 26.5961C54.8348 25.48 55.074 23.7213 53.5359 23.6536C51.7242 23.586 50.9722 25.8521 49.2632 26.0212C48.6137 26.0888 48.6137 27.1035 49.2632 27.0358C50.5621 26.9005 51.2115 26.0888 52.2028 25.3447C52.7838 24.9051 53.4333 24.3977 53.7409 25.3786C53.9118 25.9197 53.6384 26.9344 53.5017 27.4755C53.2624 28.6255 52.7497 29.7416 52.2028 30.7901C51.69 31.7371 51.109 32.7179 50.3228 33.4958C49.605 34.2399 48.6137 34.409 47.8275 35.0178C46.7679 35.8295 46.9388 37.2162 47.2123 38.3324C47.3832 38.9412 48.3744 38.6706 48.2035 38.028Z" fill="#272727"/>
<path d="M36.2742 32.6841C35.5906 28.3211 35.5222 23.8566 36.2058 19.4936C36.4793 17.7348 36.8211 15.9423 37.4364 14.2512C37.8124 13.2027 38.3251 11.9851 39.0771 11.1395C40.1025 10.0234 42.1192 9.44846 42.6661 11.3425C42.837 11.9851 43.8283 11.7145 43.6574 11.0719C43.1788 9.44845 41.6065 8.56908 39.9658 9.2117C37.8807 10.0572 36.8895 12.5939 36.24 14.5217C34.3259 20.3729 34.3259 26.9344 35.2488 32.9547C35.3855 33.5973 36.3767 33.3267 36.2742 32.6841Z" fill="#272727"/>
<path d="M41.2305 15.232C42.0509 13.2365 44.3752 9.2117 46.9046 11.9513C47.3489 12.4248 48.0667 11.7145 47.6224 11.241C46.4602 9.9896 44.7853 9.78667 43.3155 10.6322C41.6749 11.5454 40.9229 13.338 40.2392 14.9952C40 15.5702 40.9912 15.8408 41.2305 15.232Z" fill="#272727"/>
<path d="M45.5374 16.0776C45.5716 14.7923 46.0843 13.3718 47.349 12.763C48.4086 12.2557 49.6733 12.4924 50.3911 13.4056C50.8013 13.913 51.5191 13.2027 51.1089 12.6954C50.1177 11.4778 48.3402 11.1734 46.9388 11.816C45.2981 12.5939 44.5461 14.3526 44.5119 16.0776C44.4778 16.7202 45.5032 16.7202 45.5374 16.0776Z" fill="#272727"/>
<path d="M48.5111 16.4158C49.1264 14.1497 51.69 12.0866 53.9118 13.9129C54.4245 14.3188 55.1424 13.6085 54.6296 13.2027C51.7926 10.9028 48.3744 13.0674 47.5198 16.1452C47.3489 16.7878 48.3402 17.0584 48.5111 16.4158Z" fill="#272727"/>
<path d="M53.7068 13.7438C54.8006 15.2658 52.3737 16.2128 51.5191 16.9231C50.8013 17.4981 50.3912 18.2421 50.0835 19.0877C49.2632 21.4214 48.8872 23.958 48.6821 26.3932C48.6137 27.0358 49.6392 27.0358 49.7075 26.3932C49.8784 24.6007 50.1519 22.8081 50.5963 21.0494C50.733 20.4744 50.8697 19.8994 51.0748 19.3244C51.5192 18.1407 52.1686 17.701 53.1599 16.9907C54.3904 16.1114 55.6893 14.6909 54.5955 13.1689C54.2195 12.6954 53.3308 13.2027 53.7068 13.7438Z" fill="#272727"/>
<path d="M35.0095 31.6694C35.5564 33.9693 36.24 36.2354 37.0945 38.4676C37.3338 39.0764 38.3251 38.8058 38.0858 38.1971C37.2313 35.9648 36.5476 33.6987 36.0008 31.3989C35.864 30.7562 34.8728 31.0268 35.0095 31.6694Z" fill="#272727"/>
<path d="M36.9237 39.1103C38.2226 50.745 41.128 62.6841 49.0239 71.7484C55.3133 78.9525 65.2942 84.4316 75.1385 82.639C79.7871 81.7935 84.0256 79.4936 87.4096 76.2805C87.8881 75.8408 87.1703 75.0968 86.6918 75.5703C79.9239 81.9964 70.2847 83.6875 61.7052 79.8656C52.4762 75.7056 46.0159 67.8927 42.3585 58.6593C39.8975 52.4023 38.6669 45.7732 37.9149 39.1441C37.8807 38.4676 36.8553 38.4676 36.9237 39.1103Z" fill="#272727"/>
</g>
<defs>
<clipPath id="clip0_24_3">
<rect width="149" height="111" fill="white"/>
</clipPath>
</defs>
</svg>
