<svg width="125" height="93" viewBox="0 0 125 93" fill="none" xmlns="http://www.w3.org/2000/svg">
<path d="M78.9027 89.9221C75.5243 89.1247 72.2182 88.0348 69.0295 86.6792C67.3764 85.9704 65.7595 85.1641 63.998 84.7388C62.3088 84.3223 60.5564 84.1983 58.813 84.2426C56.7986 84.2869 54.8023 84.5527 52.815 84.8628C52.6433 84.8894 52.5711 84.6324 52.7427 84.6059C56.1301 84.0831 59.6169 83.6578 63.0224 84.2603C64.7749 84.5704 66.3828 85.2261 67.9907 85.9438C69.6799 86.6969 71.3871 87.3792 73.1396 87.9817C75.0546 88.6373 76.9967 89.2044 78.975 89.6651C79.1466 89.7006 79.0743 89.9575 78.9027 89.9221Z" fill="#161616"/>
<path d="M57.5574 84.34C56.0398 84.3046 54.5403 84.0919 53.0769 83.6755C51.5864 83.2591 50.114 82.6743 48.5332 82.8249C47.7293 82.8958 46.9434 83.1173 46.1666 83.3122C45.3536 83.516 44.5496 83.7198 43.7366 83.9236C42.1739 84.3135 40.6202 84.7033 39.0575 85.0932C38.8858 85.1375 38.8136 84.8805 38.9852 84.8362C40.6021 84.4286 42.2191 84.0299 43.836 83.6223C45.3174 83.2502 46.835 82.754 48.3526 82.5768C49.843 82.4085 51.2522 82.8604 52.6614 83.2857C54.2603 83.7641 55.8862 84.0388 57.5483 84.0831C57.729 84.0742 57.729 84.34 57.5574 84.34Z" fill="#161616"/>
<path d="M41.7403 85.7134C38.1903 84.9426 34.4596 84.278 30.8554 85.0932C29.0668 85.5008 27.3866 86.2805 25.7155 86.9982C23.9631 87.7602 22.2016 88.5133 20.4492 89.2753C20.2866 89.3462 20.1511 89.1158 20.3137 89.0449C23.0598 87.8576 25.7787 86.5729 28.579 85.5185C31.289 84.4996 34.1073 84.2958 36.9798 84.6147C38.6058 84.8008 40.2227 85.1109 41.8216 85.4653C41.9842 85.4919 41.9119 85.7489 41.7403 85.7134Z" fill="#161616"/>
<path d="M73.8351 92.9967C72.9047 92.8372 71.9653 92.6777 71.0348 92.5182C70.1044 92.3587 69.165 92.1549 68.2255 92.0574C67.3584 91.9688 66.4731 92.1195 65.615 92.1992C64.6665 92.2967 63.709 92.3853 62.7605 92.4827C62.5888 92.5005 62.5888 92.2347 62.7605 92.2169C63.709 92.1195 64.6665 92.0309 65.615 91.9334C66.5363 91.8448 67.4668 91.6942 68.3972 91.8094C70.2399 92.0309 72.0737 92.4296 73.9074 92.7397C74.079 92.7751 74.0068 93.0321 73.8351 92.9967Z" fill="#161616"/>
<path d="M44.7391 79.1035C44.5674 80.1668 44.3958 81.2389 44.2332 82.3021C47.8013 83.4362 49.5537 84.1539 49.4815 84.4552C49.3911 84.8273 46.5367 84.5526 40.9181 83.6578C41.2432 81.9743 41.5594 80.2908 41.8846 78.6073C42.8421 78.7668 43.7906 78.9352 44.7391 79.1035Z" fill="black"/>
<path d="M52.4173 43.5025C52.4805 44.7075 52.5708 46.4264 52.6521 48.5086C52.7334 50.7149 52.7786 51.8667 52.7696 53.2844C52.7696 53.8957 52.7424 56.3855 52.4173 59.593C52.1463 62.2954 51.7217 66.3357 50.2132 71.3064C49.617 73.2734 48.6956 75.9138 47.2593 78.9263C46.5999 79.0238 45.823 79.0769 44.9378 79.0415C43.2757 78.9617 41.9298 78.563 40.9993 78.1909C41.2703 77.3226 41.6497 76.091 42.0472 74.6113C42.5801 72.6089 44.1158 66.5749 44.712 58.4677C45.0101 54.3919 45.1185 49.3061 44.5945 43.4582C47.1961 43.4671 49.8067 43.4848 52.4173 43.5025Z" fill="white"/>
<path opacity="0.09" d="M44.8204 44.1848C44.992 44.8227 45.2178 45.7442 45.4617 46.8606C46.094 49.8111 46.7444 54.0198 46.6812 61.1347C46.6451 65.5117 46.3289 71.5634 45.1727 78.8732C44.721 78.8289 44.2603 78.7757 43.7815 78.7048C42.7789 78.5542 41.8485 78.3593 40.9993 78.1378C41.3787 76.9327 41.9027 75.1429 42.4446 72.9633C44.3687 65.1927 44.9107 58.6006 45.0552 54.2502C45.1365 51.6629 45.1365 48.234 44.8204 44.1848Z" fill="#606060"/>
<path d="M44.7933 43.7329C45.6966 52.6996 45.1365 61.7992 43.1402 70.5975C42.5711 73.0962 41.8936 75.5594 41.0987 77.996C41.0445 78.1554 40.7825 78.0846 40.8367 77.9251C43.619 69.3571 45.0101 60.3727 44.9378 51.3794C44.9197 48.8276 44.7752 46.267 44.5223 43.724C44.5042 43.5645 44.7752 43.5645 44.7933 43.7329Z" fill="#161616"/>
<path d="M52.7876 51.6806C53.1218 58.9461 52.083 66.256 49.7524 73.1582C49.1021 75.0898 48.3433 76.9859 47.4851 78.8377C47.4129 78.9972 47.178 78.8554 47.2503 78.7048C50.2764 72.1038 52.0559 64.9712 52.4805 57.75C52.5979 55.7298 52.6069 53.7097 52.5166 51.6806C52.5076 51.5034 52.7786 51.5123 52.7876 51.6806Z" fill="#161616"/>
<path d="M47.3768 78.9175C47.0696 79.2541 46.365 79.1744 45.9495 79.1833C45.3172 79.1921 44.6758 79.1301 44.0525 79.0415C43.3751 78.944 42.6976 78.8023 42.0291 78.6428C41.6949 78.563 40.9993 78.5453 40.8277 78.182C40.7554 78.0314 40.9903 77.8896 41.0626 78.0491C41.1439 78.2352 41.5955 78.2706 41.7671 78.3061C42.0201 78.3681 42.264 78.4213 42.5169 78.4833C42.9957 78.5896 43.4654 78.6871 43.9441 78.758C44.441 78.8377 44.9378 78.8909 45.4346 78.9086C45.814 78.9263 46.898 79.0415 47.178 78.7314C47.3045 78.5985 47.4942 78.7934 47.3768 78.9175Z" fill="#161616"/>
<path d="M55.082 43.4493C55.344 44.0075 55.6963 45.0708 55.9492 46.01C56.2654 47.2061 56.3466 47.9238 56.5273 48.9694C56.8615 50.9009 57.0874 51.2288 57.5752 53.3464C58.0901 55.6147 58.3249 57.3601 58.5056 58.7512C58.6501 59.8322 58.9121 62.0384 59.0295 64.8915C59.0837 66.1231 59.1108 66.8496 59.0837 67.8508C59.0114 70.9963 58.4965 73.4329 58.2707 74.3898C57.6655 77.0213 56.7802 79.2719 55.895 81.0971C55.4885 81.3009 54.8742 81.5578 54.0974 81.7262C53.1399 81.93 51.9114 82.1958 50.7371 81.611C50.4119 81.4515 49.6712 81.0085 49.1111 79.963C49.5447 78.8023 50.0776 77.1542 50.5022 75.1341C51.5501 70.1191 51.1707 66.1496 50.9087 63.651C50.4209 58.9284 49.3008 55.3843 47.3767 49.2706C46.7263 47.215 46.1482 45.5493 45.7508 44.4417C45.6153 43.5645 45.2991 40.933 46.7354 39.8343C48.8401 38.204 53.7451 40.6229 55.082 43.4493Z" fill="white"/>
<path opacity="0.08" d="M47.0245 48.1631C47.6116 49.0757 48.4246 50.4313 49.2285 52.1414C50.2222 54.2502 51.6856 57.9538 52.4714 65.3345C52.905 69.366 53.1941 75.01 52.5256 81.8237C52.2456 81.8502 51.0532 81.9477 50.0325 81.1414C49.5086 80.725 49.2376 80.2465 49.1021 79.9452C49.5447 78.7491 50.1138 76.9947 50.5474 74.824C51.8301 68.4976 51.0261 63.4118 50.43 59.8676C49.9422 56.9083 48.9937 52.8236 47.0245 48.1631Z" fill="#606060"/>
<path d="M53.6638 81.7085C53.3567 82.7895 53.0496 83.8793 52.7424 84.9602C57.5842 86.4045 59.9599 87.3082 59.8786 87.6626C59.7883 88.0702 56.4912 87.769 49.9873 86.7589C50.159 85.0223 50.3306 83.2945 50.4932 81.5579C51.5591 81.6022 52.616 81.6553 53.6638 81.7085Z" fill="black"/>
<path d="M55.1814 43.5557C56.1389 45.9302 56.6267 48.4466 57.1416 50.9452C57.6836 53.559 58.2075 56.1728 58.5869 58.8132C59.2915 63.7042 59.5083 68.7103 58.5417 73.5835C58.0268 76.2062 57.1597 78.758 55.886 81.1148C55.8047 81.2654 55.5698 81.1325 55.6511 80.9819C60.4839 71.9709 59.0205 61.427 57.0513 51.8667C56.4822 49.0934 55.9763 46.2669 54.9104 43.6265C54.8562 43.4671 55.1182 43.3962 55.1814 43.5557Z" fill="#161616"/>
<path d="M47.1419 48.1453C50.168 56.0577 52.1914 64.5636 51.0171 73.043C50.6919 75.3821 50.1228 77.677 49.2918 79.8921C49.2285 80.0516 48.9666 79.9807 49.0298 79.8212C52.0378 71.8557 51.4236 63.1194 49.1653 55.0476C48.5149 52.735 47.7381 50.4579 46.8799 48.2074C46.8167 48.0479 47.0787 47.9859 47.1419 48.1453Z" fill="#161616"/>
<path d="M55.8589 81.106C54.5852 81.7971 53.1218 82.0894 51.6765 81.9034C50.4932 81.7439 49.1202 81.2123 49.0027 79.8744C48.9847 79.706 49.2557 79.706 49.2737 79.8744C49.4002 81.2654 51.1165 81.6376 52.2818 81.6907C53.4832 81.7439 54.6665 81.4515 55.7143 80.8756C55.8769 80.7958 56.0124 81.0262 55.8589 81.106Z" fill="#161616"/>
<path d="M53.2212 20.3592C53.4651 20.6427 53.8084 21.0769 54.1335 21.6528C55.2446 23.5666 55.3169 25.445 55.335 27.0931C55.353 29.4942 55.3711 30.6993 55.1091 33.3131C54.8652 35.7585 54.802 39.2672 55.6782 43.7417C54.8923 44.3088 53.7451 44.9645 52.2456 45.31C47.9278 46.3024 44.3506 43.8303 43.6732 43.3519C44.5313 38.4166 45.001 34.4649 45.272 31.6916C45.4437 29.9373 46.076 27.3855 47.3316 22.273C47.711 20.7136 48.0994 19.2251 49.2737 18.7998C50.8997 18.1973 52.896 20.0491 53.2212 20.3592Z" fill="#EC615B"/>
<path opacity="0.1" d="M49.3189 18.9238C49.1743 19.4997 48.9666 20.3681 48.7588 21.4402C48.4878 22.8224 48.1265 24.9134 47.8736 28.0234C47.6116 31.2309 47.3135 37.2471 47.2232 45.0265C46.6089 44.8493 45.8682 44.5835 45.0823 44.1582C44.5584 43.8746 44.1068 43.5734 43.7274 43.2899C43.7906 42.6076 43.908 41.5709 44.0977 40.3216C44.3416 38.7533 44.5855 37.6635 44.7029 37.123C44.992 35.7231 45.3172 33.632 45.3533 30.7258C45.7237 29.1841 46.0037 27.9437 46.1934 27.1197C46.7173 24.7805 46.8709 23.9211 47.2684 22.5034C47.6658 21.0769 48.0813 19.9428 48.3433 19.2605C48.6685 19.1365 48.9937 19.0301 49.3189 18.9238Z" fill="#606060"/>
<path d="M53.2303 21.2098C53.149 21.3693 53.0135 21.4224 52.7154 21.5642C52.4625 21.6882 52.2186 21.8389 51.9656 21.9452C51.1888 22.273 50.2764 23.7261 50.1319 23.9565C49.5809 24.8337 48.9395 25.8615 48.5692 27.35C48.4698 27.7399 48.244 28.75 48.5059 32.1612C48.786 35.6611 49.1473 36.1484 48.8673 37.8939C48.6595 39.1609 48.3975 40.6761 47.1239 41.5001C45.9405 42.2621 44.5765 41.9962 44.2965 41.9431C42.5802 41.6153 41.6046 40.3128 40.6561 39.0457C39.2108 37.123 38.6598 35.2003 38.4249 34.0839C38.3165 33.5612 38.3346 32.0283 38.3617 28.9715C38.3978 25.8172 38.452 24.7274 39.2921 23.8059C39.8612 23.1857 40.5567 22.8933 41.0355 22.7426C40.9994 22.5477 40.9903 22.2553 41.1529 22.0072C41.4601 21.5465 42.1917 21.5553 42.6615 21.5642C44.6759 21.6174 46.1754 22.9464 46.2476 23.0084C47.5032 24.1514 47.8736 25.5514 47.991 26.1362C48.244 25.0375 48.6595 24.1957 48.9847 23.6553C49.2647 23.1857 49.6802 22.7072 50.5203 21.7325C51.1797 20.9706 51.4959 20.6782 51.9927 20.5187C52.1011 20.4832 52.9231 20.244 53.1941 20.6073C53.3206 20.7756 53.3206 21.0326 53.2303 21.2098Z" fill="white"/>
<path opacity="0.11" d="M53.2935 20.8819C53.2393 20.7845 52.6341 21.006 52.5708 21.0326C51.6765 21.3693 50.8816 22.0692 49.8609 23.6907C49.337 24.5236 48.6775 25.702 48.1175 27.2348C47.72 26.8361 47.3858 26.5083 47.1238 26.2602C47.1238 26.2602 46.1573 25.3476 44.5946 24.4615C44.441 24.3729 44.2513 24.2666 44.1158 24.3464C43.8358 24.497 44.1339 25.2324 44.0526 25.9146C43.9893 26.4285 43.6822 27.1374 42.5169 27.926C42.4899 28.0766 42.4808 28.2892 42.6073 28.431C42.8602 28.7057 43.5106 28.4842 43.8448 28.369C44.3868 28.1829 45.4346 27.6956 46.6722 26.2691C46.7896 26.7298 46.9432 27.3855 47.0606 28.1918C47.169 28.8917 47.4671 31.222 46.9703 34.2168C46.7716 35.4041 46.4012 36.9901 45.6424 38.7976C45.3082 38.9394 44.8836 39.0723 44.3778 39.1521C43.3209 39.3115 42.4447 39.1077 41.9388 38.9483C42.2369 39.09 42.6434 39.3293 42.9957 39.7457C43.4203 40.2507 43.4293 40.6317 43.7816 41.1013C44.0164 41.4203 44.441 41.819 45.2269 42.1026C45.4708 42.076 45.8411 42.014 46.2476 41.8368C47.4852 41.2963 48.0452 40.1533 48.2982 39.6217C48.6324 38.904 49.1473 37.4509 48.6595 32.5333C48.3794 29.7246 48.0723 28.8474 48.542 27.2437C48.9034 26.0121 49.5267 24.9932 49.7435 24.6476C50.1319 24.0274 50.8274 22.9198 52.0921 21.9009C52.6883 21.4047 53.3477 20.9971 53.2935 20.8819Z" fill="#606060"/>
<path d="M43.2215 22.8667C43.3841 23.0793 43.5919 23.3894 43.7545 23.797C43.8448 24.0362 44.0616 24.5945 44.0074 25.3033C43.908 26.7121 42.8783 27.5715 42.6886 27.7222C42.5621 27.8196 42.4537 27.8994 42.3814 27.9437C42.4898 28.307 42.6163 28.8474 42.6615 29.512C42.7337 30.4512 42.806 31.5055 42.2459 31.8157C41.8846 32.0106 41.3426 31.8777 41.0445 31.5941C40.9722 31.5233 40.7645 31.3018 40.7103 30.3005C40.647 29.1132 40.9 28.6171 40.5386 28.2715C40.3851 28.112 40.1231 28.0146 39.8973 27.9171C39.6444 27.8108 39.4185 27.7576 39.2559 27.7222C39.3553 28.4487 39.4276 29.0955 39.4818 29.6183C39.545 30.2651 39.5721 30.5929 39.3463 30.7967C39.1385 30.9828 38.7952 31.0182 38.5333 30.903C38.19 30.7524 38.0816 30.336 37.8919 29.5031C37.7383 28.8474 37.6119 28.2981 37.6932 27.5538C37.7383 27.1728 37.8196 26.8627 37.8919 26.6501C37.91 26.4994 37.9551 26.2779 38.0274 26.021C38.181 25.5071 38.3255 25.3564 38.4158 25.0286C38.5513 24.559 38.3978 24.3286 38.3616 23.797C38.3255 23.3806 38.3616 22.7869 38.6688 22.0427C38.7862 22.0515 39.0301 22.0692 39.283 22.2376C39.5902 22.4325 39.7166 22.7161 39.7618 22.8135C39.9967 22.7604 40.4212 22.7072 40.909 22.8401C41.7491 23.0616 42.1917 23.673 42.3092 23.859C42.0743 23.354 42.273 22.8578 42.5892 22.7338C42.8602 22.6186 43.1854 22.849 43.2215 22.8667Z" fill="black"/>
<path d="M42.2007 25.6134C42.1104 25.445 41.6588 25.0729 41.5052 25.383C41.4329 25.5337 41.1981 25.4007 41.2703 25.2501C41.3697 25.0463 41.6136 24.9843 41.8304 25.0286C42.0923 25.0729 42.3091 25.2501 42.4356 25.4805C42.5169 25.6311 42.282 25.764 42.2007 25.6134Z" fill="white"/>
<path d="M39.5541 24.9311C39.4999 24.816 39.4457 24.6831 39.3553 24.5945C39.265 24.5058 38.994 24.4084 38.985 24.6122C38.976 24.7805 38.705 24.7805 38.714 24.6122C38.7321 24.3552 38.9579 24.1869 39.2198 24.2223C39.5179 24.2755 39.6715 24.5413 39.7889 24.7894C39.8612 24.9489 39.6263 25.0906 39.5541 24.9311Z" fill="white"/>
<path d="M39.4818 25.7729C39.4818 25.7817 39.4818 25.7906 39.4818 25.7995C39.4998 25.8172 39.5179 25.8349 39.5269 25.8438C39.5721 25.8703 39.6444 25.8438 39.6353 25.7906C39.6353 25.7906 39.6353 25.764 39.6263 25.7729L39.6534 25.7995C39.5902 25.7995 39.5269 25.7995 39.4637 25.7995C39.4727 25.7906 39.4727 25.7906 39.4818 25.7817C39.4727 25.7906 39.4727 25.7906 39.4727 25.7906C39.4818 25.7817 39.4727 25.7817 39.4727 25.7995C39.4637 25.8526 39.4908 25.8881 39.5631 25.9147C39.5902 25.9058 39.6082 25.9058 39.6353 25.8969C39.6715 25.8792 39.6624 25.826 39.6534 25.7995C39.6444 25.7906 39.6534 25.7906 39.6624 25.8083C39.6534 25.7995 39.6534 25.7995 39.6624 25.8083C39.7257 25.8526 39.7528 25.9235 39.7076 25.9944C39.6715 26.0476 39.5811 26.083 39.5179 26.0387C39.4547 25.9944 39.3914 25.9324 39.3824 25.8438C39.3824 25.7463 39.4547 25.6577 39.554 25.6577C39.6534 25.6577 39.7257 25.7197 39.7347 25.8172C39.7437 25.8881 39.6986 25.9501 39.6534 25.9944C39.5992 26.0476 39.5179 26.0387 39.4637 25.9944C39.3463 25.9058 39.3192 25.7197 39.4547 25.6311C39.5179 25.5957 39.5992 25.5868 39.6624 25.6223C39.7437 25.6666 39.7528 25.7729 39.7347 25.8526C39.7257 25.9235 39.6353 25.959 39.5721 25.9412C39.4998 25.9147 39.4727 25.8438 39.4818 25.7729Z" fill="white"/>
<path d="M40.9271 26.0476C41.1891 26.1982 41.5414 26.1273 41.713 25.8792C41.8124 25.7374 42.0472 25.8703 41.9479 26.0121C41.6859 26.3754 41.1891 26.4994 40.7826 26.2779C40.638 26.1893 40.7735 25.9589 40.9271 26.0476Z" fill="white"/>
<path d="M41.1258 26.6235C41.3245 26.7741 41.4962 26.969 41.6136 27.1905C41.6949 27.3412 41.46 27.4741 41.3787 27.3235C41.2703 27.1197 41.1168 26.9513 40.9271 26.8096C40.8729 26.7653 40.8819 26.6678 40.9271 26.6235C40.9903 26.5703 41.0716 26.5792 41.1258 26.6235Z" fill="white"/>
<path d="M38.9308 25.6488C38.7501 25.4451 38.6146 25.2147 38.5243 24.9577C38.4701 24.7982 38.732 24.7274 38.7862 24.8868C38.8585 25.0995 38.9759 25.2944 39.1205 25.4628C39.2289 25.5957 39.0392 25.7818 38.9308 25.6488Z" fill="white"/>
<path d="M38.9127 25.9855C38.6959 25.9412 38.4429 25.8881 38.2713 26.0653C38.1539 26.1893 37.9642 26.0032 38.0816 25.8792C38.3255 25.6223 38.6778 25.6666 38.994 25.7374C39.1566 25.764 39.0843 26.021 38.9127 25.9855Z" fill="white"/>
<path d="M53.3386 21.006C52.9231 20.3681 51.9385 20.749 51.4417 21.068C50.8455 21.4402 50.3938 21.9984 49.9873 22.5566C49.1653 23.6818 48.4336 24.9046 48.1627 26.2779C48.1265 26.4463 47.8646 26.3754 47.9007 26.207C48.2168 24.5679 49.1924 22.9907 50.2945 21.7325C50.9358 21.006 52.7515 19.6326 53.5735 20.882C53.6638 21.0149 53.429 21.1566 53.3386 21.006Z" fill="#161616"/>
<path d="M52.7786 21.6085C50.6106 22.8047 49.3912 25.0463 48.7769 27.3323C48.7317 27.5007 48.4698 27.4298 48.5149 27.2614C49.1473 24.9134 50.4209 22.6009 52.6431 21.3781C52.7966 21.2895 52.9321 21.5199 52.7786 21.6085Z" fill="#161616"/>
<path d="M47.9007 26.1627C47.6749 24.5945 46.6541 23.2831 45.254 22.53C44.5313 22.1401 43.7274 21.9009 42.9053 21.7857C42.5169 21.7325 42.0653 21.6794 41.6859 21.8212C41.2703 21.9718 40.8729 22.6186 41.3968 22.911C41.5504 22.9907 41.4149 23.2211 41.2613 23.1413C40.6832 22.8224 40.8277 22.0072 41.3336 21.6971C42.1195 21.2098 43.4202 21.5553 44.2242 21.8212C46.2115 22.4502 47.8555 24.0274 48.1536 26.1096C48.1898 26.2602 47.9278 26.3311 47.9007 26.1627Z" fill="#161616"/>
<path d="M47.2955 26.5615C46.8528 26.0564 46.2928 25.6311 45.7508 25.2324C45.2269 24.8425 44.6668 24.5236 44.0164 24.3818C43.8448 24.3464 43.9171 24.0894 44.0887 24.1248C44.7572 24.2755 45.3443 24.6033 45.8863 25.002C46.4463 25.4185 47.0245 25.8526 47.4851 26.3754C47.6026 26.4994 47.4129 26.6944 47.2955 26.5615Z" fill="#161616"/>
<path d="M43.9803 24.4084C43.7906 23.9831 43.5467 23.5755 43.2486 23.2122C43.1944 23.1502 43.1312 23.0439 43.0589 22.9996C42.9957 22.8844 42.9144 22.8755 42.7969 22.9819C42.6524 22.9819 42.5892 23.035 42.5892 23.1591C42.4898 23.3451 42.4808 23.6641 42.4447 23.8768C42.4085 24.0451 42.1466 23.9742 42.1827 23.8059C42.255 23.4692 42.3453 22.2642 42.9957 22.592C43.2486 22.716 43.4383 23.0262 43.6009 23.2388C43.8448 23.5666 44.0435 23.9122 44.2151 24.2755C44.2874 24.4261 44.0525 24.5679 43.9803 24.4084Z" fill="#161616"/>
<path d="M42.2369 23.9565C41.7762 23.3717 40.8367 22.5654 40.0328 22.9996C39.8792 23.0793 39.7437 22.849 39.8973 22.7692C40.8277 22.2819 41.8755 23.0793 42.4356 23.7704C42.535 23.9033 42.3453 24.0894 42.2369 23.9565Z" fill="#161616"/>
<path d="M39.7708 22.9553C39.6444 22.7603 39.0572 22.0604 38.8043 22.2464C38.6688 22.3439 38.6417 22.6895 38.6056 22.8489C38.5514 23.097 38.5333 23.3451 38.5243 23.6021C38.5152 23.7704 38.2442 23.7704 38.2533 23.6021C38.2623 23.2477 38.3075 22.9021 38.3978 22.5566C38.452 22.3616 38.4972 21.9895 38.732 21.9275C38.9488 21.8743 39.2469 22.0781 39.4095 22.1933C39.6534 22.3616 39.8431 22.5743 39.9967 22.8224C40.096 22.9641 39.8612 23.097 39.7708 22.9553Z" fill="#161616"/>
<path d="M46.9432 26.1273C46.3199 26.7209 45.6605 27.2703 44.9559 27.7665C44.2603 28.2538 43.5828 28.5993 42.7066 28.555C42.535 28.5462 42.535 28.2804 42.7066 28.2892C43.6009 28.3335 44.2603 27.9437 44.9559 27.4475C45.5972 26.9868 46.1934 26.4817 46.7625 25.9412C46.8799 25.826 47.0696 26.0121 46.9432 26.1273Z" fill="#161616"/>
<path d="M48.7679 27.0399C47.7832 31.3283 50.3487 36.0155 48.2259 40.1178C47.8284 40.8887 47.2232 41.5887 46.3921 41.9342C45.5791 42.2709 44.6397 42.2443 43.7996 41.9785C41.9388 41.3937 40.7374 39.7014 39.816 38.1065C39.2288 37.1053 38.741 36.0332 38.452 34.9079C38.3074 34.3497 38.2171 33.7649 38.19 33.189C38.1629 32.5245 38.2532 31.86 38.2261 31.1954C38.2171 31.0271 38.4881 31.0271 38.4971 31.1954C38.5333 32.2764 38.3887 33.3042 38.6055 34.3763C38.7952 35.3332 39.1475 36.2636 39.5901 37.1319C40.4122 38.7622 41.5232 40.5963 43.2305 41.4558C44.1158 41.8988 45.2088 42.0671 46.1573 41.7216C47.0877 41.3849 47.7019 40.5786 48.0994 39.7191C48.9485 37.8496 48.8492 35.7231 48.6233 33.7384C48.3704 31.4878 47.9729 29.2107 48.4878 26.9602C48.5511 26.8095 48.813 26.8715 48.7679 27.0399Z" fill="#161616"/>
<path d="M44.7481 35.9092C45.254 36.7775 45.5882 37.7167 45.7327 38.7091C45.7598 38.8774 45.4979 38.9483 45.4708 38.7799C45.3262 37.8053 45.0101 36.8927 44.5132 36.0421C44.4229 35.9003 44.6578 35.7674 44.7481 35.9092Z" fill="#161616"/>
<path d="M44.5765 36.0066C43.2396 35.8914 41.8304 35.6433 40.4935 35.7851C40.3219 35.8028 40.3219 35.537 40.4935 35.5193C41.8304 35.3687 43.2396 35.6256 44.5765 35.7408C44.7481 35.7585 44.7481 36.0243 44.5765 36.0066Z" fill="#161616"/>
<path d="M45.5972 38.9483C44.9378 39.3293 44.17 39.2938 43.4293 39.2761C42.6524 39.2495 41.8756 39.1609 41.1981 38.7622C41.0445 38.6736 41.189 38.4432 41.3336 38.5318C41.9749 38.9128 42.6976 38.9837 43.4293 39.0103C44.1158 39.0369 44.8384 39.0812 45.4617 38.7268C45.6063 38.6382 45.7418 38.8685 45.5972 38.9483Z" fill="#161616"/>
<path d="M40.6199 35.7231C40.7916 36.6977 41.0535 37.6369 41.4058 38.5584C41.4691 38.7179 41.2071 38.7888 41.1439 38.6293C40.7825 37.7078 40.5206 36.7598 40.358 35.794C40.3309 35.6256 40.5928 35.5547 40.6199 35.7231Z" fill="#161616"/>
<path d="M44.8204 36.3699C44.3778 37.3268 43.1222 37.5661 42.1556 37.5749C41.984 37.5749 41.984 37.3091 42.1556 37.3091C43.0228 37.2914 44.1881 37.0965 44.5855 36.2281C44.6578 36.0775 44.8927 36.2193 44.8204 36.3699Z" fill="#161616"/>
<path d="M42.8693 37.2294C42.8964 37.4509 42.9235 37.6724 42.9506 37.885C42.9686 38.0534 42.6976 38.0534 42.6795 37.885C42.6524 37.6635 42.6253 37.442 42.5982 37.2294C42.5802 37.061 42.8512 37.061 42.8693 37.2294Z" fill="#161616"/>
<path d="M42.3543 37.2294C42.3814 37.4509 42.4085 37.6724 42.4266 37.8939C42.4447 38.0622 42.1737 38.0622 42.1556 37.8939C42.1285 37.6724 42.1014 37.4509 42.0833 37.2294C42.0652 37.061 42.3363 37.061 42.3543 37.2294Z" fill="#161616"/>
<path d="M42.1195 37.6015C41.4781 37.4597 40.9451 37.0699 40.6109 36.5205C40.5206 36.3699 40.7554 36.237 40.8458 36.3876C41.1529 36.8838 41.6226 37.2116 42.1917 37.3445C42.3634 37.3889 42.2911 37.6458 42.1195 37.6015Z" fill="#161616"/>
<path d="M44.0977 23.9299C44.3687 25.4982 44.0706 27.3677 42.4356 28.0854C42.282 28.1563 42.1375 27.926 42.3001 27.8551C43.8267 27.1817 44.0887 25.4539 43.8357 24.0008C43.8086 23.8325 44.0706 23.7616 44.0977 23.9299Z" fill="#161616"/>
<path d="M38.5423 23.5046C38.5243 24.0097 38.5333 24.5236 38.461 25.0198C38.3888 25.5602 37.8919 26.1627 38.1539 26.7032C38.2262 26.8539 37.9913 26.9956 37.919 26.8361C37.6842 26.3488 37.8919 25.9412 38.0636 25.4628C38.2894 24.8514 38.2352 24.1426 38.2623 23.4958C38.2804 23.3274 38.5514 23.3274 38.5423 23.5046Z" fill="#161616"/>
<path d="M41.6949 27.8994C41.2974 27.6956 40.8458 27.9082 40.7554 28.3335C40.7464 28.3778 40.6832 28.3601 40.6922 28.3158C40.8006 27.8462 41.2974 27.6158 41.731 27.8373C41.7672 27.8639 41.731 27.926 41.6949 27.8994Z" fill="white"/>
<path d="M41.0084 28.3512C40.9451 28.4221 40.9 28.5019 40.8729 28.5905C40.8548 28.6348 40.7916 28.617 40.8096 28.5727C40.8458 28.4753 40.9 28.3867 40.9632 28.3069C40.9903 28.2715 41.0445 28.3247 41.0084 28.3512Z" fill="white"/>
<path d="M39.1927 27.731C39.1114 27.3677 38.8766 27.0665 38.5333 26.8981C38.4972 26.8804 38.5243 26.8184 38.5695 26.845C38.9308 27.0133 39.1747 27.3323 39.256 27.7133C39.265 27.7576 39.2018 27.7753 39.1927 27.731Z" fill="white"/>
<path d="M55.1001 8.94701C55.7234 9.25713 56.2473 9.84191 56.4822 10.0989C57.0603 10.7457 57.3584 11.3482 57.6836 12.0216C57.9546 12.5709 58.2707 13.3506 58.5237 14.3253C58.1714 14.3873 57.8191 14.4405 57.4668 14.5025C57.4848 14.8392 57.4848 15.3353 57.3493 15.9201C57.2229 16.4518 57.0151 17.3024 56.2925 17.896C55.2988 18.7289 53.98 18.5251 53.7361 18.4896C53.718 18.9061 53.6277 19.4997 53.2844 20.1111C53.1941 20.2617 53.1038 20.4035 53.0134 20.5275C52.5166 20.3858 51.7488 20.0934 50.999 19.4909C49.084 17.9757 48.8221 15.7163 48.7408 15.0607C48.6233 14.0506 48.3975 12.1456 49.6712 10.5685C50.999 8.93815 53.5193 8.1673 55.1001 8.94701Z" fill="white"/>
<path d="M56.9519 10.79C56.699 10.4178 56.2112 9.86849 55.6601 9.4875C54.7749 8.87613 54.3774 9.13308 53.9258 8.5926C53.6006 8.20274 53.3928 7.56479 53.6367 7.26354C54.0251 6.78508 55.4072 7.361 55.5879 7.44075C55.9853 7.60909 57.2951 8.14958 57.8191 9.51408C58.2527 10.6571 57.9636 11.9064 57.7649 11.933C57.7107 11.9418 57.6745 11.8532 57.3855 11.4191C57.25 11.1976 57.0964 10.9938 56.9519 10.79Z" fill="#FEA300"/>
<path d="M54.9826 8.123C55.0549 8.35337 55.1633 8.81411 54.802 9.71787C54.1606 11.3393 52.6611 12.7924 51.9114 12.5266C51.7488 12.4646 51.5771 12.3051 51.2519 12.2874C51.1706 12.2874 50.8454 12.2697 50.5925 12.4646C50.1951 12.7747 50.177 13.4481 50.439 13.8822C50.4841 13.962 50.728 14.3253 51.0984 14.3518C51.4236 14.3784 51.532 14.1303 51.7939 14.1126C52.4353 14.0772 52.9863 15.4594 53.0586 15.6455C53.2031 15.9999 53.5554 16.9214 53.3025 18.0998C53.2483 18.3567 53.1218 18.8972 52.7334 19.4554C51.8933 20.6516 50.4841 20.944 49.9602 21.0503C49.4453 21.1566 47.4851 21.5553 45.9585 20.3149C45.7146 20.12 44.9107 19.4466 44.6939 18.3036C44.3235 16.372 45.9766 14.9278 46.0759 14.848C46.1482 13.8468 46.3921 12.2519 47.2503 10.5064C47.7922 9.39889 48.2981 8.37995 49.4453 7.60909C50.9538 6.60787 53.1489 6.32434 54.2961 7.19265C54.4135 7.29898 54.802 7.60023 54.9826 8.123Z" fill="#FEA300"/>
<path d="M56.699 17.6302C56.8345 17.7631 57.2319 18.1707 57.3042 18.8086C57.4036 19.6947 56.7983 20.306 56.6719 20.4301C56.0124 21.0946 54.9104 21.3604 54.1155 20.9617C54.0522 20.9351 53.3567 20.5718 53.3296 20.0491C53.3206 19.8187 53.447 19.7035 53.6277 19.1896C53.7451 18.8529 53.8174 18.5782 53.8716 18.3922C54.1155 18.4719 54.531 18.5782 55.0459 18.5074C55.9673 18.3922 56.5364 17.8074 56.699 17.6302Z" fill="#FEA300"/>
<path opacity="0.12" d="M54.8923 8.90271C54.8833 9.17738 54.8471 9.58496 54.6574 10.0191C54.531 10.3115 54.4045 10.4887 54.3052 10.6305C53.9258 11.1975 53.7993 11.7292 53.6006 12.3228C53.2844 13.2443 53.3386 14.0152 53.4018 14.9721C53.456 15.7695 53.6367 16.9834 54.2239 18.3922C53.98 18.4631 53.6277 18.6048 53.2483 18.8529C52.5527 19.3137 52.2366 19.863 52.0378 20.12C51.6314 20.6427 50.728 21.1921 48.5511 21.1566C48.7679 20.944 49.075 20.625 49.4092 20.2351C50.1951 19.3314 50.8816 18.5428 51.2881 17.5859C51.5229 17.0365 51.8843 15.9113 51.6042 14.281C51.3513 14.405 51.0532 14.3961 50.8184 14.2455C50.5745 14.086 50.4209 13.7671 50.5022 13.4747C50.6016 13.138 51.0171 12.9076 51.4417 13.0139C51.532 12.7924 51.6765 12.4734 51.9114 12.1279C52.2817 11.5874 52.6702 11.2507 52.8147 11.1267C53.2754 10.7368 53.9438 10.0723 54.8923 8.90271Z" fill="#606060"/>
<path opacity="0.14" d="M58.4243 14.1658C58.4152 14.024 57.9545 13.9088 57.5661 13.9354C57.2229 13.962 56.8164 14.1126 56.8254 14.2455C56.8345 14.3696 57.2138 14.467 57.4939 14.4759C57.9274 14.4936 58.4243 14.3075 58.4243 14.1658Z" fill="#606060"/>
<path d="M57.3042 10.8697C57.8191 11.9773 58.2797 13.1025 58.6772 14.2544C58.7043 14.3253 58.6501 14.3961 58.5869 14.4139C58.2346 14.5468 57.8823 14.6088 57.5119 14.5999C57.3403 14.5999 57.3403 14.3341 57.5119 14.3341C57.8642 14.3341 58.1894 14.2721 58.5146 14.1569C58.4875 14.2101 58.4514 14.2632 58.4243 14.3164C58.0359 13.1823 57.5932 12.0747 57.0784 10.9938C56.9971 10.852 57.2319 10.7102 57.3042 10.8697Z" fill="#161616"/>
<path d="M57.5481 14.6531C57.4758 15.7961 57.3674 17.0631 56.5002 17.9226C55.6692 18.7554 54.4678 18.6846 53.3747 18.5605C53.2031 18.5428 53.2031 18.277 53.3747 18.2947C54.3865 18.4099 55.5337 18.5074 56.3105 17.7365C57.1235 16.9302 57.2048 15.7252 57.2771 14.6531C57.2861 14.4847 57.5571 14.4847 57.5481 14.6531Z" fill="#161616"/>
<path d="M53.9077 18.5871C53.7903 19.2073 53.5735 19.801 53.2664 20.3503C53.1851 20.501 52.9502 20.368 53.0315 20.2174C53.3296 19.6769 53.5283 19.1187 53.6457 18.5162C53.6728 18.3479 53.9348 18.4188 53.9077 18.5871Z" fill="#161616"/>
<path d="M57.3674 16.0087C56.9248 16.3897 56.2653 16.2125 56.0937 15.6543C56.0395 15.486 56.3015 15.424 56.3557 15.5834C56.4641 15.9379 56.8886 16.0708 57.1687 15.8138C57.3042 15.7075 57.4939 15.8936 57.3674 16.0087Z" fill="#161616"/>
<path d="M56.5363 15.6455C56.3918 15.6809 56.2834 15.7606 56.1931 15.867C56.1479 15.9201 56.0485 15.9113 56.0034 15.867C55.9492 15.8138 55.9582 15.7341 56.0034 15.6809C56.1208 15.5391 56.2834 15.4328 56.4641 15.3885C56.6267 15.3442 56.6989 15.6012 56.5363 15.6455Z" fill="#161616"/>
<path d="M56.1299 12.3317C56.0576 11.9595 55.5879 12.0304 55.3349 12.1633C55.1181 12.2785 54.9646 12.4646 54.8742 12.6861C54.811 12.8456 54.549 12.7747 54.6123 12.6152C54.7568 12.2342 55.0549 11.933 55.4704 11.8266C55.8498 11.7292 56.3015 11.8444 56.3828 12.2608C56.4189 12.4291 56.157 12.5 56.1299 12.3317Z" fill="#161616"/>
<path d="M56.1389 10.7634C55.7324 10.0989 54.9375 10.6128 54.7749 11.171C54.7297 11.3393 54.4678 11.2684 54.5129 11.1001C54.6304 10.6925 54.9194 10.3115 55.362 10.2052C55.7595 10.1166 56.166 10.2849 56.3738 10.6216C56.4641 10.7811 56.2292 10.914 56.1389 10.7634Z" fill="#161616"/>
<path d="M55.8679 13.8379C55.6962 13.8379 55.6962 13.5721 55.8679 13.5721C56.0395 13.5721 56.0486 13.8379 55.8679 13.8379Z" fill="#161616"/>
<path d="M55.353 13.4392C55.344 13.4392 55.3259 13.4392 55.3169 13.4392C55.2446 13.4392 55.1814 13.3772 55.1814 13.3063C55.1814 13.2354 55.2446 13.1734 55.3169 13.1734C55.3259 13.1734 55.344 13.1734 55.353 13.1734C55.4253 13.1734 55.4885 13.2354 55.4885 13.3063C55.4885 13.3861 55.4253 13.4392 55.353 13.4392Z" fill="#161616"/>
<path d="M55.344 13.8911C55.344 13.9 55.344 13.9088 55.344 13.9177C55.344 14.086 55.073 14.086 55.073 13.9177C55.073 13.9088 55.073 13.9 55.073 13.8911C55.073 13.7228 55.344 13.7228 55.344 13.8911C55.344 13.9 55.344 13.9088 55.344 13.9177C55.344 14.086 55.073 14.086 55.073 13.9177C55.073 13.9088 55.073 13.9 55.073 13.8911C55.073 13.7228 55.344 13.7228 55.344 13.8911Z" fill="#161616"/>
<path d="M51.4056 12.5355C51.1617 12.1899 50.7461 12.4114 50.6016 12.695C50.4842 12.9165 50.4842 13.1823 50.4932 13.4215C50.5293 14.024 51.0442 14.4493 51.6404 14.0772C51.785 13.9797 51.9204 14.2101 51.7759 14.3075C51.4236 14.5379 50.972 14.5645 50.6197 14.2987C50.2583 14.024 50.1951 13.5721 50.2222 13.1468C50.2493 12.7393 50.4119 12.2874 50.8455 12.1368C51.1526 12.0304 51.4598 12.1456 51.6404 12.4026C51.7308 12.5355 51.4959 12.6684 51.4056 12.5355Z" fill="#161616"/>
<path d="M75.7047 7.47619C75.8944 7.47619 76.0841 7.48505 76.2647 7.48505C76.5719 8.06983 76.7435 8.60146 76.8429 8.99131C77.1319 10.1343 77.0597 11.0824 77.0055 11.5431C76.9693 11.8532 76.9151 12.1102 76.87 12.2874C76.7074 12.2874 76.5448 12.2874 76.3822 12.2874C76.3189 12.5 76.2557 12.7127 76.1925 12.9253C74.6659 12.9165 73.4103 12.9165 72.534 12.9253C67.2225 12.9696 63.519 13.1734 62.6608 13.2177C61.5859 13.2797 60.7096 13.3418 60.1677 13.3772C60.1496 13.0494 60.0592 12.9342 59.9779 12.8987C59.8334 12.8367 59.707 12.9873 59.5173 12.9519C59.3185 12.9165 59.1921 12.7127 59.1108 12.5266C58.9482 12.6064 58.6501 12.7127 58.2978 12.6595C58.2165 12.6507 58.1442 12.6241 58.081 12.6064C57.9274 12.3051 57.7739 12.0038 57.6203 11.7026C57.8371 11.6317 58.1442 11.5697 58.5146 11.5697C58.7223 11.5697 58.903 11.5963 59.0566 11.6228C59.0746 11.5785 59.2192 11.1798 59.5986 11.0912C59.716 11.0646 59.8154 11.0735 59.8967 11.0912C59.9509 10.9938 60.0051 10.8963 60.0592 10.7988C60.276 10.7634 60.6103 10.7102 61.0077 10.6393C64.2326 10.0634 66.4818 9.36345 68.1981 8.85841C69.8422 8.37109 72.236 7.70656 75.3072 6.97115C75.4337 7.13949 75.5692 7.30784 75.7047 7.47619Z" fill="white"/>
<path opacity="0.07" d="M76.9784 10.914C76.8971 10.8963 76.8067 11.1001 76.7074 11.0735C76.5448 11.0381 76.5809 10.4799 76.5448 10.0634C76.5177 9.6647 76.4002 9.08877 76.0028 8.3888C75.7408 8.49513 75.3434 8.66347 74.8646 8.86726C73.1393 9.60268 71.9469 10.1697 71.5856 10.3292C69.2008 11.4191 66.5812 11.9064 65.9218 12.0304C64.4223 12.314 62.3447 12.562 59.8515 12.4557C59.9599 12.7481 60.0683 13.0405 60.1767 13.3329C60.5922 13.324 61.1974 13.324 61.9382 13.3063C65.1178 13.2443 67.34 13.1468 68.6137 13.0937C70.4113 13.0228 72.9857 12.9519 76.2376 12.9608C76.2738 12.7215 76.3099 12.4823 76.346 12.2431C76.5538 12.2785 76.7616 12.314 76.9693 12.3494C77.1048 11.2418 77.0687 10.9317 76.9784 10.914Z" fill="#606060"/>
<path d="M75.515 6.98001C76.6441 8.69006 76.9603 10.8166 76.3822 12.7747C76.337 12.943 76.075 12.8722 76.1202 12.7038C76.6803 10.8077 76.3731 8.7698 75.2801 7.11291C75.1807 6.96228 75.4156 6.82938 75.515 6.98001Z" fill="#161616"/>
<path d="M75.2801 7.23695C70.1945 8.49513 65.1178 9.7533 60.0322 11.0026C59.8605 11.0469 59.7883 10.79 59.9599 10.7457C65.0456 9.48749 70.1222 8.22932 75.2078 6.98C75.3704 6.9357 75.4427 7.19265 75.2801 7.23695Z" fill="#161616"/>
<path d="M76.1925 13.0671C70.89 13.0228 65.5876 13.1468 60.2941 13.4304C60.1225 13.4392 60.1225 13.1734 60.2941 13.1646C65.5876 12.881 70.89 12.757 76.1925 12.8013C76.3641 12.8013 76.3641 13.0671 76.1925 13.0671Z" fill="#161616"/>
<path d="M60.1135 10.9052C59.7521 11.6937 59.8334 12.5886 60.3303 13.3063C60.4296 13.4481 60.1948 13.581 60.0954 13.4392C59.5444 12.6418 59.4721 11.6494 59.8786 10.7722C59.9509 10.6216 60.1857 10.7545 60.1135 10.9052Z" fill="#161616"/>
<path d="M59.8425 11.2507C59.7431 11.3216 59.6709 11.295 59.5534 11.3216C59.3276 11.3836 59.2373 11.5874 59.1921 11.8001C59.1198 12.1899 59.2192 13.0139 59.8064 12.7836C59.969 12.7215 60.0412 12.9785 59.8786 13.0405C59.2824 13.2709 58.894 12.6595 58.894 12.1456C58.894 11.8621 58.9301 11.5431 59.0927 11.3039C59.1469 11.2241 59.2192 11.1444 59.3095 11.1001C59.427 11.0469 59.5896 11.0824 59.6889 11.0115C59.8515 10.9229 59.987 11.1532 59.8425 11.2507Z" fill="#161616"/>
<path d="M59.0475 11.738C58.5869 11.7115 58.1262 11.7203 57.6745 11.7823C57.5029 11.8001 57.5029 11.5342 57.6745 11.5165C58.1352 11.4634 58.5869 11.4456 59.0475 11.4722C59.2192 11.4899 59.2192 11.7558 59.0475 11.738Z" fill="#161616"/>
<path d="M59.0837 12.7127C58.7133 12.7747 58.343 12.8013 57.9726 12.7658C57.801 12.7481 57.801 12.4823 57.9726 12.5C58.3249 12.5266 58.6682 12.5177 59.0114 12.4557C59.183 12.4291 59.2553 12.6772 59.0837 12.7127Z" fill="#161616"/>
<path d="M75.6686 7.4053C76.5448 6.90912 76.7887 8.45969 76.9061 8.94701C77.1771 10.0723 77.3036 11.233 76.9693 12.3583C76.9513 12.4114 76.8971 12.4557 76.8429 12.4557C76.7254 12.4557 76.599 12.4557 76.4815 12.4557C76.3099 12.4557 76.3099 12.1899 76.4815 12.1899C76.599 12.1899 76.7254 12.1899 76.8429 12.1899C76.7977 12.2253 76.7525 12.2519 76.7164 12.2874C76.9513 11.4722 76.9513 10.6482 76.8158 9.81533C76.7525 9.44319 76.6712 9.07105 76.5719 8.70778C76.5086 8.46855 76.3099 7.34328 75.8131 7.63567C75.6505 7.72428 75.515 7.49391 75.6686 7.4053Z" fill="#161616"/>
<path d="M65.9037 9.31029C66.0663 9.11536 66.3373 9.14194 66.3735 9.14194C66.6716 9.15967 66.9606 9.42548 67.2768 10.0723C67.891 11.3039 67.9181 12.5355 67.9181 12.7304C67.9272 13.581 67.8459 14.9632 67.2316 16.6112C67.1774 17.3024 67.06 18.2681 66.798 19.3934C66.3373 21.4136 65.8495 23.5401 64.1694 25.4273C63.5371 26.145 62.2905 27.5361 60.1225 28.0411C57.8552 28.5728 56.0124 27.7842 55.5608 27.5804C55.1633 27.3943 54.0523 26.845 53.1128 25.6843C52.5437 24.9843 51.8843 24.2223 51.9927 23.2831C52.0379 22.8755 52.2185 22.53 52.4895 21.9806C52.7605 21.4313 52.905 21.1566 53.1941 21.0503C53.5916 20.8997 54.0161 21.1655 54.4858 21.4313C55.2808 21.8743 55.353 22.2996 56.2112 22.7426C56.437 22.8578 56.6628 22.9376 57.1145 23.0793C57.8281 23.3097 58.5327 23.5401 59.1831 23.5844C60.6013 23.6818 61.7395 22.8844 62.0647 22.654C63.2661 21.8123 63.7358 20.687 64.0429 19.9516C64.7294 18.3036 64.6752 16.7885 64.5578 15.9024C64.1332 15.8315 63.8713 15.6632 63.7448 15.5657C63.2661 15.2024 63.1486 14.6974 62.968 13.9177C62.8505 13.4304 62.7963 13.1734 62.9228 13.076C63.1848 12.881 63.9887 13.519 64.1694 13.6696C64.1332 13.0671 64.0429 12.5798 63.9526 12.2342C63.8351 11.7735 63.7719 11.5342 63.6093 11.3482C63.2932 10.9849 62.9228 11.0203 62.7963 10.6748C62.7241 10.4887 62.7331 10.2318 62.8867 10.0811C63.0673 9.90394 63.4558 9.9128 63.79 10.1697C63.8984 9.93938 64.1152 9.79761 64.35 9.78875C64.5849 9.77989 64.7385 9.92166 64.7836 9.9571C64.7565 9.71787 64.8649 9.49636 65.0456 9.40776C65.2895 9.28371 65.6779 9.42548 65.8224 9.78875C65.8134 9.74445 65.7502 9.49636 65.9037 9.31029Z" fill="white"/>
<path opacity="0.12" d="M66.3735 9.14194C66.5902 9.51407 66.8612 10.0634 67.0419 10.7811C67.4394 12.3405 67.1142 13.643 66.9696 14.2721C65.4159 20.7668 66.0934 20.9262 65.0095 22.4502C64.612 22.9996 61.884 26.6855 57.8191 26.1982C54.4136 25.7906 52.607 22.7515 52.3721 22.3439C52.2366 22.6983 52.074 23.3008 52.1824 24.0185C52.345 25.0729 53.0134 25.7374 53.2573 25.9855C53.4922 26.2159 53.7813 26.4197 54.3684 26.8184C54.8923 27.1817 55.4072 27.5006 55.6331 27.6158C56.708 28.2095 58.3701 28.3512 59.5263 28.2006C62.6699 27.793 64.5578 24.8691 65.3437 23.6552C67.1413 20.8819 67.3219 18.0732 67.3039 16.6733C67.4755 16.1062 67.6471 15.5303 67.8188 14.9632C67.9362 14.086 67.9452 13.3595 67.9272 12.8544C67.882 11.5874 67.8459 10.6393 67.1864 9.83305C66.8974 9.47863 66.5812 9.26598 66.3735 9.14194Z" fill="#606060"/>
<path d="M54.1426 26.6855C52.7153 26.021 51.7578 24.6299 51.9927 23.0527C52.1282 22.0958 52.9141 20.4478 54.1697 21.0326C54.7297 21.2984 55.1904 21.7857 55.7053 22.1313C56.4189 22.6097 57.2409 22.9819 58.0629 23.2388C59.1108 23.5666 60.2761 23.6375 61.2878 23.1413C62.0285 22.7781 62.6066 22.1844 63.0492 21.511C64.0248 20.0314 64.5307 18.2859 64.4133 16.5226C64.4042 16.3543 64.6752 16.3543 64.6842 16.5226C64.7836 18.0112 64.4494 19.4288 63.7809 20.7579C63.1938 21.9452 62.3356 23.0616 61.0349 23.5401C59.4541 24.116 57.7287 23.5312 56.3015 22.7958C55.6601 22.4591 55.1091 22.0249 54.531 21.5908C54.0071 21.1921 53.4831 20.9971 52.9502 21.5288C52.2908 22.1844 52.092 23.3274 52.2908 24.1957C52.5347 25.2324 53.3205 26.0121 54.2781 26.4551C54.4316 26.526 54.2961 26.7564 54.1426 26.6855Z" fill="#161616"/>
<path d="M64.4313 16.6378C64.5487 16.1505 64.1965 16.0265 63.8713 15.7961C63.6816 15.6632 63.537 15.4771 63.4015 15.291C63.0583 14.8037 62.7873 14.2367 62.715 13.643C62.6789 13.3506 62.6157 12.8899 63.0221 12.8722C63.5009 12.8544 63.6996 13.4481 64.1513 13.4924C64.3229 13.5101 64.3229 13.7759 64.1513 13.7582C63.808 13.7228 63.6364 13.5101 63.3744 13.3152C63.2209 13.2 63.0492 13.0671 62.968 13.324C62.9228 13.4658 62.995 13.7316 63.0312 13.8734C63.0944 14.1746 63.2299 14.467 63.3744 14.7417C63.5099 14.9898 63.6635 15.2467 63.8713 15.4505C64.061 15.6455 64.3229 15.6898 64.5307 15.8493C64.8107 16.0619 64.7655 16.4252 64.6933 16.7176C64.6481 16.8771 64.3862 16.8062 64.4313 16.6378Z" fill="#161616"/>
<path d="M67.5839 15.2379C67.7646 14.0949 67.7826 12.9253 67.602 11.7823C67.5297 11.3216 67.4394 10.852 67.2768 10.409C67.1774 10.1343 67.0419 9.81533 66.8432 9.59382C66.5722 9.30143 66.0392 9.1508 65.8947 9.64698C65.8495 9.81533 65.5876 9.74445 65.6327 9.5761C65.7592 9.1508 66.1747 8.92043 66.6083 9.08878C67.1593 9.31029 67.4213 9.97482 67.5929 10.4799C68.0988 12.0127 68.0988 13.7316 67.8549 15.3088C67.8188 15.4771 67.5568 15.4062 67.5839 15.2379Z" fill="#161616"/>
<path d="M66.2741 10.6659C66.0573 10.1432 65.443 9.08878 64.7746 9.80647C64.6571 9.93051 64.4674 9.74444 64.5849 9.6204C64.892 9.29257 65.3346 9.2394 65.7231 9.46091C66.1566 9.70014 66.3554 10.1697 66.536 10.6039C66.5993 10.7545 66.3373 10.8254 66.2741 10.6659Z" fill="#161616"/>
<path d="M65.1359 10.8874C65.1269 10.5507 64.9914 10.1786 64.6571 10.0191C64.3771 9.88621 64.0429 9.94823 63.8532 10.1875C63.7448 10.3204 63.5551 10.1343 63.6635 10.0014C63.9255 9.68242 64.3952 9.60268 64.7655 9.77102C65.1991 9.97481 65.3979 10.4356 65.4069 10.8874C65.4159 11.0558 65.1449 11.0558 65.1359 10.8874Z" fill="#161616"/>
<path d="M64.35 10.976C64.1874 10.3824 63.5099 9.84191 62.9228 10.3204C62.7873 10.4267 62.5976 10.2406 62.7331 10.1343C63.4828 9.53179 64.3861 10.0989 64.612 10.9052C64.6571 11.0735 64.3952 11.1444 64.35 10.976Z" fill="#161616"/>
<path d="M62.977 10.2761C62.6879 10.6748 63.3293 10.9229 63.5551 11.1089C63.7448 11.2596 63.8532 11.4545 63.9345 11.676C64.1513 12.2874 64.2507 12.9519 64.3049 13.5899C64.3229 13.7582 64.0519 13.7582 64.0339 13.5899C63.9887 13.1203 63.9164 12.6507 63.799 12.1899C63.7629 12.0393 63.7267 11.8887 63.6725 11.738C63.5551 11.4279 63.3835 11.3127 63.1215 11.1267C62.7963 10.8963 62.4531 10.5242 62.7421 10.1254C62.8415 10.0014 63.0763 10.1343 62.977 10.2761Z" fill="#161616"/>
<path d="M67.9181 14.9721C67.7736 15.5746 67.5929 16.1682 67.3671 16.753C67.3038 16.9125 67.0419 16.8416 67.1051 16.6821C67.3309 16.0973 67.5116 15.5037 67.6561 14.9012C67.6923 14.7328 67.9542 14.8037 67.9181 14.9721Z" fill="#161616"/>
<path d="M67.4123 16.9214C67.069 19.9693 66.3012 23.097 64.2145 25.4716C62.5524 27.3589 59.9147 28.7943 57.3132 28.3247C56.0847 28.1032 54.9646 27.5007 54.0703 26.6589C53.9438 26.5437 54.1335 26.3488 54.26 26.4729C56.0486 28.1563 58.5959 28.5993 60.8632 27.5981C63.3022 26.5083 65.0094 24.4615 65.976 22.0427C66.6264 20.4035 66.9516 18.6669 67.1503 16.9302C67.1593 16.753 67.4303 16.753 67.4123 16.9214Z" fill="#161616"/>
</svg>
