<svg width="345" height="136" viewBox="0 0 345 136" fill="none" xmlns="http://www.w3.org/2000/svg">
<g clip-path="url(#clip0_24_4)">
<path d="M331.337 33.7807C328.397 33.3748 323.578 32.3263 322.723 29.0118C321.493 24.412 328.124 22.9577 331.337 22.3827C340.737 20.7931 350.376 22.2474 359.844 22.2474C378.61 22.2136 397.102 18.6961 415.765 17.3771C425.097 16.7006 434.497 16.5992 443.794 17.7829C445.913 18.0535 448.135 18.2564 450.186 18.8652C451.04 19.102 451.998 19.5078 452.647 20.1166C454.219 21.6386 452.681 23.0253 451.246 23.7694C447.554 25.6973 443.35 26.4752 439.214 26.6443C430.942 27.0163 422.704 25.3252 414.432 25.6296C410.57 25.7649 406.775 26.4075 403.118 27.7266C398.845 29.2824 394.88 31.4808 390.573 32.9351C385.583 34.6262 380.319 35.4718 375.021 35.4718C369.654 35.4718 364.356 34.6601 359.058 34.0513C348.325 32.8337 337.558 32.8675 326.859 34.288C326.21 34.3895 326.21 35.4041 326.859 35.3027C337.319 33.916 347.915 33.8145 358.409 34.9983C363.604 35.5732 368.8 36.385 374.064 36.4864C378.918 36.5879 383.806 35.9791 388.488 34.6601C393.274 33.3072 397.649 30.9735 402.264 29.1471C406.741 27.3883 411.356 26.6104 416.141 26.6104C424.96 26.5428 433.813 28.5045 442.632 27.3545C444.785 27.084 446.87 26.6104 448.921 25.8664C450.494 25.2914 452.613 24.5811 453.741 23.2621C455.86 20.7254 452.784 18.4932 450.494 17.8506C445.982 16.5315 440.889 16.2948 436.206 16.0242C431.113 15.7198 426.02 15.7536 420.927 15.9904C400.315 16.9712 379.943 21.2328 359.263 21.1651C353.384 21.1651 347.505 20.624 341.626 20.5902C336.635 20.5563 330.927 20.6578 326.244 22.5856C323.304 23.8032 320.433 26.6443 322.074 29.9926C323.612 33.1381 327.953 34.2204 331.098 34.6601C331.713 34.863 331.986 33.8822 331.337 33.7807Z" fill="#DBDBDB"/>
<path d="M0.768337 79.9475C29.2756 67.704 60.5175 79.1358 86.803 91.4132C100.202 97.6702 113.396 104.367 127.376 109.305C141.083 114.141 155.337 117.49 169.796 119.418C198.816 123.307 228.519 121.582 257.061 115.258C286.969 108.628 315.306 96.5879 344.975 89.0456C375.841 81.199 408.108 79.5079 439.589 84.5473C443.418 85.1561 447.212 85.8664 451.006 86.6781C451.655 86.8134 451.929 85.8326 451.28 85.6973C420.721 79.2711 388.967 78.9667 358.34 84.987C327.714 91.0073 298.899 103.318 268.853 111.334C239.697 119.113 209.241 122.259 179.127 119.451C164.156 118.065 149.321 115.19 134.965 110.725C120.13 106.126 106.218 99.429 92.2378 92.7999C66.9778 80.7931 38.4705 68.6172 9.89478 75.7536C6.57918 76.5654 3.40031 77.6815 0.255615 79.0344C-0.325469 79.3388 0.187252 80.2181 0.768337 79.9475Z" fill="#DBDBDB"/>
<path d="M117.737 67.8393C151.132 86.2723 190.886 87.659 227.938 82.518C269.879 76.7007 310.281 63.0028 352.29 57.6589C375.67 54.6826 399.529 54.3106 422.67 59.3839C423.319 59.5191 423.593 58.5383 422.943 58.403C382.028 49.474 340.053 57.3545 299.993 66.5879C260.513 75.686 220.589 86.3061 179.674 83.7018C158.311 82.3489 137.05 77.3095 118.25 66.96C117.703 66.6217 117.19 67.5011 117.737 67.8393Z" fill="#DBDBDB"/>
<path d="M18.0299 4.69386C46.7423 -2.07052 77.3689 0.601413 104.441 12.27C117.737 17.9859 130.213 25.4267 143.271 31.6161C156.431 37.8393 170.172 42.1347 184.664 44.0626C201.242 46.261 218.026 45.8889 234.638 44.8066C235.287 44.7728 235.287 43.7582 234.638 43.792C219.632 44.7728 204.49 45.1787 189.518 43.6229C174.342 42.0332 159.849 38.1099 146.005 31.7852C132.845 25.7311 120.403 18.2903 107.175 12.4053C94.1862 6.52025 80.4111 2.63073 66.2258 0.973453C50.0579 -0.954395 33.5825 -0.00738222 17.7565 3.71303C17.107 3.84831 17.3805 4.82915 18.0299 4.69386Z" fill="#DBDBDB"/>
</g>
<defs>
<clipPath id="clip0_24_4">
<rect width="345" height="136" fill="white"/>
</clipPath>
</defs>
</svg>
