<svg width="209" height="157" viewBox="0 0 209 157" fill="none" xmlns="http://www.w3.org/2000/svg">
<path d="M59.1318 132.658C73.3592 132.942 87.1335 129.038 101.044 126.72C105.107 126.047 109.2 125.508 113.323 125.239C113.61 125.224 113.61 124.775 113.323 124.79C99.0804 125.717 85.3513 129.936 71.2145 131.581C67.2121 132.045 63.1795 132.299 59.1469 132.224C58.8297 132.209 58.8297 132.658 59.1318 132.658Z" fill="#E8E8E8"/>
<path d="M125.632 127.632C130.692 126.555 135.933 126.376 141.053 127.153C145.765 127.871 150.281 129.412 154.736 131.057C159.132 132.673 163.496 134.393 168.058 135.545C172.77 136.726 177.558 137.026 182.421 137.026C188.16 137.026 193.945 136.801 199.579 138.058C199.866 138.118 199.986 137.684 199.699 137.624C189.746 135.41 179.431 137.654 169.477 135.41C160.189 133.316 151.701 128.604 142.306 126.914C136.748 125.912 131.039 126.032 125.526 127.198C125.224 127.258 125.345 127.692 125.632 127.632Z" fill="#E8E8E8"/>
<path d="M43.1373 70.1191C41.8384 69.7302 39.2859 68.6682 40.2374 66.8733C40.9171 65.5869 42.9409 65.4822 44.1945 65.5271C48.4235 65.6467 52.6524 66.0057 56.8814 65.6617C60.8536 65.3326 64.6445 64.2108 68.511 63.3133C72.4379 62.3859 76.5914 61.7128 80.5485 62.8496C82.2854 63.3432 83.9014 64.1659 85.6081 64.7343C86.4237 65.0035 87.2695 65.213 88.1304 65.3027C89.1574 65.4074 90.1844 65.2578 91.1964 65.213C92.2385 65.1681 93.3108 65.198 94.2019 65.8113C95.0175 66.3647 95.6972 67.4118 95.1686 68.384C94.4134 69.7901 92.2083 69.4012 90.9396 69.1319C87.1789 68.3541 83.3879 68.1148 79.5667 68.6234C77.5429 68.8926 75.5643 69.3862 73.6311 69.9995C71.5468 70.6576 69.523 71.241 67.3027 70.9418C65.2336 70.6576 63.255 69.9995 61.1557 69.9247C59.0563 69.8349 56.972 70.1042 54.9028 70.3734C50.8853 70.9119 46.596 71.6 42.8352 69.6704C42.5784 69.5358 42.3519 69.9247 42.6087 70.0593C46.1277 71.8692 50.0999 71.4504 53.906 70.9568C55.8997 70.6875 57.9084 70.4033 59.9323 70.3585C62.1525 70.3136 64.2217 70.8222 66.3814 71.241C68.5865 71.6598 70.5802 71.4354 72.7249 70.7773C74.8545 70.1191 76.9538 69.476 79.1589 69.1469C81.4396 68.8028 83.7504 68.7131 86.0461 68.8776C88.0851 69.0123 90.0334 69.5507 92.0422 69.7751C93.2353 69.9097 94.7608 69.8649 95.5008 68.758C96.3466 67.4866 95.4404 66.0057 94.2775 65.3027C92.5104 64.2407 90.3204 64.9886 88.4022 64.8689C86.2878 64.7343 84.3394 63.762 82.3911 63.0142C78.3434 61.4585 74.205 61.653 70.0214 62.5355C65.5961 63.4629 61.2916 64.8839 56.7606 65.2429C54.1477 65.4523 51.5046 65.4074 48.8917 65.3027C47.5324 65.2429 46.158 65.183 44.7986 65.1232C43.9529 65.0933 43.1222 65.0783 42.2915 65.2429C41.0077 65.4972 39.5427 66.2451 39.6333 67.7558C39.739 69.4161 41.6722 70.179 43.0315 70.5828C43.2883 70.6427 43.4091 70.2089 43.1373 70.1191Z" fill="#E8E8E8"/>
<path d="M154.601 14.9396C153.302 14.7601 151.172 14.2964 150.794 12.8306C150.251 10.7963 153.181 10.1531 154.601 9.89883C158.754 9.19581 163.013 9.839 167.197 9.839C175.489 9.82404 183.66 8.26843 191.906 7.68507C196.029 7.38591 200.183 7.34104 204.291 7.86457C205.227 7.98423 206.209 8.07398 207.115 8.34322C207.493 8.44792 207.916 8.62742 208.203 8.89666C208.897 9.56976 208.218 10.183 207.583 10.5121C205.952 11.3647 204.094 11.7087 202.267 11.7835C198.612 11.9481 194.972 11.2002 191.317 11.3348C189.61 11.3946 187.934 11.6788 186.318 12.2622C184.43 12.9502 182.678 13.9225 180.775 14.5657C178.57 15.3136 176.244 15.6875 173.903 15.6875C171.531 15.6875 169.19 15.3285 166.849 15.0593C162.107 14.5208 157.349 14.5358 152.622 15.164C152.335 15.2089 152.335 15.6576 152.622 15.6127C157.244 14.9995 161.926 14.9546 166.562 15.4781C168.858 15.7324 171.154 16.0914 173.48 16.1363C175.625 16.1811 177.784 15.9119 179.853 15.3285C181.968 14.7302 183.901 13.6981 185.94 12.8904C187.919 12.1126 189.958 11.7686 192.072 11.7686C195.969 11.7386 199.881 12.6062 203.777 12.0976C204.729 11.978 205.65 11.7686 206.556 11.4395C207.251 11.1852 208.188 10.8711 208.686 10.2877C209.622 9.1659 208.263 8.17868 207.251 7.89448C205.257 7.31112 203.007 7.20642 200.938 7.08676C198.687 6.95214 196.437 6.96709 194.187 7.0718C185.079 7.50558 176.078 9.39027 166.94 9.36035C164.342 9.36035 161.744 9.12103 159.147 9.10607C156.942 9.09111 154.419 9.13598 152.35 9.98858C151.051 10.5271 149.783 11.7835 150.507 13.2643C151.187 14.6554 153.105 15.1341 154.495 15.3285C154.767 15.4183 154.887 14.9845 154.601 14.9396Z" fill="#E8E8E8"/>
<path d="M8.53534 35.3571C21.1316 29.9423 34.9361 34.9981 46.5506 40.4278C52.4712 43.195 58.3011 46.1566 64.4784 48.3405C70.5349 50.4795 76.833 51.9603 83.2217 52.8129C96.0446 54.533 109.169 53.7702 121.781 50.9731C134.996 48.0413 147.517 42.7163 160.627 39.3807C174.265 35.9105 188.523 35.1626 202.433 37.3914C204.125 37.6606 205.801 37.9747 207.478 38.3337C207.765 38.3935 207.885 37.9598 207.598 37.8999C194.096 35.0579 180.065 34.9233 166.532 37.5858C153 40.2483 140.267 45.693 126.991 49.238C114.108 52.6783 100.651 54.0693 87.345 52.8278C80.7297 52.2146 74.1748 50.9432 67.8314 48.9687C61.2765 46.9345 55.1294 43.9728 48.9521 41.0411C37.7907 35.731 25.1944 30.3462 12.568 33.5023C11.1029 33.8613 9.6983 34.3549 8.30879 34.9532C8.05203 35.0878 8.27858 35.4767 8.53534 35.3571Z" fill="#E8E8E8"/>
<path d="M60.2193 30.0022C74.9753 38.1542 92.5406 38.7675 108.913 36.4939C127.445 33.9212 145.297 27.8632 163.859 25.4999C174.19 24.1836 184.732 24.019 194.957 26.2627C195.244 26.3226 195.365 25.8888 195.078 25.8289C176.999 21.8801 158.452 25.3653 140.751 29.4487C123.306 33.4724 105.665 38.1692 87.5867 37.0174C78.147 36.4191 68.7527 34.1904 60.4458 29.6133C60.2042 29.4637 59.9776 29.8526 60.2193 30.0022Z" fill="#E8E8E8"/>
<path d="M16.1626 2.07588C28.8494 -0.915694 42.3821 0.265977 54.344 5.42644C60.2193 7.95431 65.732 11.245 71.5015 13.9823C77.3163 16.7346 83.3879 18.6342 89.7918 19.4868C97.1169 20.4591 104.533 20.2945 111.873 19.8159C112.16 19.8009 112.16 19.3522 111.873 19.3672C105.243 19.8009 98.5517 19.9804 91.9364 19.2924C85.2305 18.5893 78.8267 16.8542 72.7098 14.0571C66.895 11.3797 61.3973 8.08893 55.5523 5.48627C49.813 2.8836 43.7263 1.16345 37.4584 0.430513C30.3145 -0.422084 23.0346 -0.00326481 16.0417 1.6421C15.7548 1.70193 15.8756 2.13571 16.1626 2.07588Z" fill="#E8E8E8"/>
<path d="M144.844 92.7354C143.515 92.4662 141.34 91.7931 141.234 90.1627C141.174 89.1605 142.019 88.4276 142.91 88.1583C143.983 87.8143 145.116 88.1284 146.158 88.4276C148.061 88.981 149.979 89.4297 151.973 89.5045C153.83 89.5793 155.673 89.3101 157.47 88.8314C159.403 88.3229 161.291 87.6348 163.21 87.0963C165.233 86.5279 167.303 86.2288 169.417 86.1988C173.45 86.139 177.437 86.857 181.454 87.0215C183.463 87.0963 185.442 86.9916 187.42 86.6925C189.565 86.3634 191.755 85.8698 193.945 86.1241C195.516 86.3036 198.038 87.3506 197.525 89.3549C197.071 91.105 194.564 92.0922 193.024 92.5859C185.291 95.0689 177.316 90.9405 169.477 92.0324C164.962 92.6606 160.702 94.5453 156.141 94.9043C154.057 95.0689 151.912 94.9342 149.934 94.2013C148.121 93.5132 146.49 92.0174 144.421 92.3764C144.134 92.4213 144.255 92.8551 144.542 92.8102C145.78 92.6008 146.868 93.1842 147.91 93.7526C148.756 94.2013 149.601 94.6201 150.523 94.8894C152.411 95.4578 154.434 95.5325 156.398 95.3531C160.717 94.9492 164.78 93.2589 169.055 92.5709C173.767 91.823 178.404 92.9 183.055 93.5132C186.846 94.0068 190.909 94.1265 194.474 92.5559C195.833 91.9576 197.645 91.0003 197.993 89.4148C198.31 87.9938 197.207 86.857 196.014 86.2736C194.247 85.421 192.118 85.5856 190.245 85.8399C187.964 86.139 185.744 86.6177 183.433 86.6476C178.932 86.7224 174.492 85.8099 170.006 85.795C167.861 85.795 165.732 86.0343 163.648 86.5728C161.578 87.1113 159.57 87.8592 157.516 88.4126C154.978 89.0857 152.426 89.2951 149.828 88.8913C148.529 88.6819 147.306 88.3229 146.052 87.9639C145.116 87.6946 144.104 87.4703 143.122 87.6797C141.657 87.9938 140.328 89.3699 140.977 90.9106C141.566 92.3166 143.364 92.9299 144.753 93.2141C144.995 93.229 145.116 92.7953 144.844 92.7354Z" fill="#E8E8E8"/>
<path d="M77.0746 151.804C82.7233 150.458 88.2512 148.618 93.5827 146.329C96.3466 145.133 99.0501 143.772 101.995 143.054C104.82 142.351 107.75 142.141 110.665 142.216C114.033 142.291 117.371 142.74 120.693 143.263C120.98 143.308 121.101 142.874 120.814 142.829C115.15 141.947 109.32 141.229 103.626 142.246C100.696 142.769 98.008 143.876 95.3196 145.088C92.4952 146.359 89.6407 147.511 86.7106 148.528C83.5087 149.635 80.2615 150.592 76.9538 151.37C76.6669 151.43 76.7877 151.864 77.0746 151.804Z" fill="#161616"/>
<path d="M112.764 142.38C115.301 142.321 117.809 141.962 120.255 141.259C122.747 140.556 125.209 139.568 127.852 139.823C129.197 139.942 130.511 140.316 131.809 140.645C133.169 140.989 134.513 141.333 135.872 141.677C138.485 142.336 141.083 142.994 143.696 143.652C143.983 143.727 144.104 143.293 143.817 143.218C141.113 142.53 138.41 141.857 135.706 141.169C133.229 140.541 130.692 139.703 128.154 139.404C125.662 139.12 123.306 139.883 120.95 140.601C118.277 141.408 115.558 141.872 112.779 141.947C112.477 141.932 112.477 142.38 112.764 142.38Z" fill="#161616"/>
<path d="M139.21 144.699C145.146 143.398 151.384 142.276 157.41 143.652C160.4 144.34 163.21 145.656 166.004 146.868C168.934 148.154 171.879 149.426 174.809 150.712C175.081 150.832 175.307 150.443 175.036 150.323C170.444 148.319 165.898 146.15 161.216 144.37C156.685 142.65 151.973 142.306 147.17 142.844C144.451 143.158 141.748 143.682 139.074 144.28C138.802 144.325 138.923 144.759 139.21 144.699Z" fill="#161616"/>
<path d="M85.5477 156.994C87.1033 156.725 88.6741 156.456 90.2297 156.187C91.7854 155.917 93.3561 155.573 94.9269 155.409C96.3768 155.259 97.857 155.514 99.2918 155.648C100.878 155.813 102.479 155.962 104.064 156.127C104.351 156.157 104.351 155.708 104.064 155.678C102.479 155.514 100.878 155.364 99.2918 155.199C97.7512 155.05 96.1956 154.796 94.6399 154.99C91.5588 155.364 88.4928 156.037 85.4268 156.561C85.1399 156.62 85.2607 157.054 85.5477 156.994Z" fill="#161616"/>
<path d="M134.196 133.54C134.483 135.335 134.77 137.145 135.042 138.94C129.076 140.855 126.146 142.066 126.267 142.575C126.418 143.203 131.191 142.739 140.585 141.229C140.041 138.387 139.513 135.545 138.969 132.703C137.368 132.972 135.782 133.256 134.196 133.54Z" fill="black"/>
<path d="M121.358 73.4397C121.253 75.474 121.102 78.3758 120.966 81.8909C120.83 85.6154 120.754 87.5599 120.769 89.9532C120.769 90.9853 120.815 95.1884 121.358 100.603C121.812 105.165 122.521 111.986 125.044 120.377C126.04 123.698 127.581 128.156 129.982 133.241C131.085 133.406 132.384 133.495 133.864 133.436C136.643 133.301 138.893 132.628 140.449 132C139.996 130.534 139.362 128.455 138.697 125.957C137.806 122.576 135.238 112.39 134.242 98.7035C133.743 91.8229 133.562 83.2371 134.438 73.3649C130.088 73.3799 125.723 73.4098 121.358 73.4397Z" fill="white"/>
<path opacity="0.09" d="M134.06 74.5915C133.773 75.6685 133.396 77.2241 132.988 79.1088C131.931 84.0897 130.843 91.1947 130.949 103.206C131.01 110.595 131.538 120.811 133.471 133.151C134.227 133.077 134.997 132.987 135.797 132.867C137.474 132.613 139.029 132.284 140.449 131.91C139.815 129.876 138.939 126.854 138.033 123.175C134.816 110.057 133.909 98.9279 133.668 91.5836C133.532 87.2159 133.532 81.4272 134.06 74.5915Z" fill="#606060"/>
<path d="M134.106 73.8286C132.595 88.966 133.532 104.328 136.87 119.181C137.821 123.399 138.954 127.557 140.283 131.671C140.374 131.94 140.812 131.82 140.721 131.551C136.069 117.087 133.743 101.919 133.864 86.7372C133.894 82.4294 134.136 78.1066 134.559 73.8137C134.589 73.5444 134.136 73.5444 134.106 73.8286Z" fill="#161616"/>
<path d="M120.739 87.2458C120.18 99.5112 121.917 111.851 125.814 123.504C126.901 126.764 128.17 129.965 129.605 133.092C129.726 133.361 130.118 133.122 129.998 132.867C124.938 121.724 121.963 109.683 121.253 97.4919C121.056 94.0815 121.041 90.6711 121.192 87.2458C121.207 86.9466 120.754 86.9616 120.739 87.2458Z" fill="#161616"/>
<path d="M129.786 133.226C130.3 133.795 131.478 133.66 132.172 133.675C133.23 133.69 134.302 133.585 135.344 133.436C136.477 133.271 137.61 133.032 138.727 132.763C139.286 132.628 140.449 132.598 140.736 131.985C140.857 131.73 140.464 131.491 140.343 131.76C140.208 132.074 139.452 132.134 139.165 132.194C138.742 132.299 138.335 132.389 137.912 132.493C137.111 132.673 136.326 132.837 135.525 132.957C134.695 133.092 133.864 133.181 133.033 133.211C132.399 133.241 130.587 133.436 130.118 132.912C129.907 132.688 129.59 133.017 129.786 133.226Z" fill="#161616"/>
<path d="M116.903 73.35C116.465 74.2923 115.876 76.0873 115.453 77.6728C114.924 79.6921 114.788 80.9037 114.486 82.6687C113.928 85.9295 113.55 86.483 112.734 90.0579C111.873 93.8871 111.481 96.8338 111.179 99.1822C110.937 101.007 110.499 104.732 110.303 109.548C110.212 111.627 110.167 112.854 110.212 114.544C110.333 119.854 111.194 123.967 111.571 125.583C112.583 130.025 114.063 133.825 115.544 136.906C116.223 137.25 117.25 137.684 118.549 137.968C120.15 138.312 122.204 138.761 124.168 137.773C124.711 137.504 125.95 136.756 126.886 134.991C126.161 133.032 125.27 130.25 124.56 126.839C122.808 118.373 123.443 111.672 123.881 107.454C124.696 99.4813 126.569 93.4982 129.786 83.1773C130.874 79.7071 131.84 76.895 132.505 75.0252C132.731 73.5444 133.26 69.1019 130.858 67.2472C127.339 64.4949 119.138 68.5784 116.903 73.35Z" fill="white"/>
<path opacity="0.08" d="M130.375 81.3076C129.393 82.8482 128.034 85.1368 126.69 88.0236C125.029 91.5836 122.582 97.836 121.268 110.296C120.543 117.102 120.06 126.63 121.177 138.132C121.645 138.177 123.639 138.342 125.346 136.981C126.222 136.278 126.675 135.47 126.901 134.961C126.161 132.942 125.21 129.98 124.485 126.316C122.34 115.636 123.684 107.05 124.681 101.067C125.497 96.071 127.083 89.1754 130.375 81.3076Z" fill="#606060"/>
<path d="M119.274 137.938C119.788 139.763 120.301 141.603 120.815 143.428C112.719 145.866 108.747 147.391 108.883 147.99C109.034 148.678 114.547 148.169 125.421 146.464C125.134 143.532 124.847 140.615 124.575 137.684C122.793 137.759 121.026 137.848 119.274 137.938Z" fill="black"/>
<path d="M116.737 73.5295C115.136 77.5382 114.32 81.7862 113.459 86.0043C112.553 90.4169 111.677 94.8294 111.043 99.2869C109.865 107.544 109.502 115.995 111.118 124.222C111.979 128.649 113.429 132.957 115.559 136.936C115.695 137.19 116.087 136.966 115.951 136.711C107.871 121.499 110.318 103.699 113.61 87.5599C114.562 82.8781 115.408 78.1066 117.19 73.6491C117.281 73.3799 116.843 73.2602 116.737 73.5295Z" fill="#161616"/>
<path d="M130.179 81.2776C125.119 94.635 121.736 108.995 123.699 123.309C124.243 127.258 125.195 131.132 126.584 134.872C126.69 135.141 127.128 135.021 127.022 134.752C121.993 121.305 123.02 106.556 126.796 92.9298C127.883 89.0258 129.182 85.1816 130.617 81.3823C130.723 81.1131 130.285 81.0084 130.179 81.2776Z" fill="#161616"/>
<path d="M115.604 136.921C117.734 138.088 120.18 138.581 122.597 138.267C124.575 137.998 126.871 137.1 127.067 134.842C127.098 134.558 126.645 134.558 126.614 134.842C126.403 137.19 123.533 137.818 121.585 137.908C119.576 137.998 117.598 137.504 115.846 136.532C115.574 136.397 115.347 136.786 115.604 136.921Z" fill="#161616"/>
<path d="M120.014 34.3698C119.606 34.8485 119.032 35.5814 118.489 36.5537C116.631 39.7845 116.51 42.9556 116.48 45.7378C116.45 49.7913 116.42 51.8256 116.858 56.2382C117.265 60.3665 117.371 66.2899 115.906 73.8436C117.22 74.8009 119.138 75.9077 121.645 76.4911C128.865 78.1664 134.846 73.9931 135.979 73.1854C134.544 64.8539 133.758 58.1827 133.305 53.5009C133.018 50.5392 131.961 46.2314 129.862 37.6007C129.227 34.9681 128.578 32.4552 126.614 31.7372C123.896 30.7201 120.558 33.8463 120.014 34.3698Z" fill="#EC615B"/>
<path opacity="0.1" d="M126.539 31.9466C126.781 32.9189 127.128 34.3848 127.475 36.1947C127.928 38.5281 128.533 42.0581 128.955 47.3083C129.393 52.7231 129.892 62.8795 130.043 76.0125C131.07 75.7133 132.308 75.2646 133.622 74.5466C134.498 74.0679 135.254 73.5594 135.888 73.0807C135.782 71.929 135.586 70.1789 135.269 68.0698C134.861 65.4223 134.453 63.5825 134.257 62.6701C133.773 60.3067 133.23 56.7767 133.169 51.8705C132.55 49.2678 132.082 47.1737 131.765 45.7826C130.889 41.8338 130.632 40.3829 129.967 37.9896C129.303 35.5814 128.608 33.6668 128.17 32.515C127.626 32.3056 127.083 32.1261 126.539 31.9466Z" fill="#606060"/>
<path d="M119.999 35.8058C120.135 36.075 120.362 36.1647 120.86 36.4041C121.283 36.6135 121.691 36.8678 122.114 37.0473C123.412 37.6007 124.938 40.0538 125.18 40.4427C126.101 41.9235 127.173 43.6586 127.792 46.1716C127.959 46.8297 128.336 48.5349 127.898 54.2937C127.43 60.202 126.826 61.0247 127.294 63.9714C127.641 66.1104 128.079 68.6682 130.209 70.0592C132.188 71.3456 134.468 70.8969 134.936 70.8071C137.806 70.2537 139.437 68.0549 141.023 65.9159C143.44 62.6701 144.361 59.4242 144.754 57.5395C144.935 56.657 144.905 54.0693 144.859 48.9088C144.799 43.5838 144.708 41.744 143.304 40.1884C142.352 39.1414 141.189 38.6478 140.389 38.3935C140.449 38.0644 140.464 37.5708 140.192 37.152C139.679 36.3742 138.455 36.3891 137.67 36.4041C134.302 36.4938 131.795 38.7375 131.674 38.8422C129.575 40.7718 128.955 43.1351 128.759 44.1223C128.336 42.2676 127.641 40.8466 127.098 39.9341C126.629 39.1414 125.935 38.3336 124.53 36.6883C123.428 35.4019 122.899 34.9083 122.068 34.639C121.887 34.5792 120.513 34.1754 120.059 34.7886C119.848 35.0728 119.848 35.5066 119.999 35.8058Z" fill="white"/>
<path opacity="0.11" d="M119.893 35.2523C119.984 35.0878 120.996 35.4617 121.102 35.5066C122.597 36.075 123.926 37.2567 125.633 39.994C126.509 41.4 127.611 43.3894 128.548 45.9771C129.212 45.304 129.771 44.7506 130.209 44.3317C130.209 44.3317 131.825 42.7911 134.438 41.2953C134.695 41.1457 135.012 40.9662 135.238 41.1008C135.707 41.3551 135.208 42.5966 135.344 43.7484C135.45 44.6159 135.963 45.8126 137.912 47.1438C137.957 47.3981 137.972 47.7571 137.761 47.9964C137.338 48.4601 136.25 48.0862 135.692 47.8917C134.785 47.5776 133.033 46.7549 130.964 44.3467C130.768 45.1245 130.511 46.2314 130.315 47.5925C130.133 48.7742 129.635 52.7081 130.466 57.7639C130.798 59.7682 131.417 62.4457 132.686 65.4971C133.245 65.7364 133.955 65.9608 134.8 66.0954C136.568 66.3646 138.033 66.0206 138.878 65.7514C138.38 65.9907 137.7 66.3946 137.111 67.0976C136.401 67.9502 136.386 68.5934 135.797 69.3861C135.405 69.9246 134.695 70.5977 133.381 71.0764C132.973 71.0315 132.354 70.9268 131.674 70.6276C129.605 69.7152 128.668 67.7856 128.246 66.8882C127.687 65.6766 126.826 63.2235 127.641 54.9219C128.11 50.1802 128.623 48.6994 127.838 45.9921C127.234 43.9129 126.191 42.1928 125.829 41.6094C125.18 40.5624 124.017 38.6926 121.902 36.9725C120.905 36.1348 119.803 35.4468 119.893 35.2523Z" fill="#606060"/>
<path d="M136.734 38.6029C136.462 38.9619 136.114 39.4854 135.843 40.1735C135.692 40.5773 135.329 41.5197 135.42 42.7163C135.586 45.0946 137.308 46.5455 137.625 46.7998C137.836 46.9643 138.017 47.0989 138.138 47.1737C137.957 47.787 137.746 48.6994 137.67 49.8213C137.549 51.4068 137.428 53.1868 138.365 53.7103C138.969 54.0394 139.875 53.815 140.374 53.3364C140.494 53.2167 140.842 52.8427 140.932 51.1525C141.038 49.1482 140.615 48.3105 141.219 47.7272C141.476 47.4579 141.914 47.2934 142.292 47.1288C142.715 46.9494 143.092 46.8596 143.364 46.7998C143.198 48.0263 143.077 49.1182 142.987 50.0008C142.881 51.0927 142.836 51.6461 143.213 51.9901C143.56 52.3043 144.134 52.3641 144.572 52.1696C145.146 51.9154 145.328 51.2123 145.645 49.8063C145.902 48.6994 146.113 47.772 145.977 46.5156C145.902 45.8724 145.766 45.3489 145.645 44.9899C145.615 44.7356 145.539 44.3616 145.418 43.9279C145.161 43.0603 144.92 42.806 144.769 42.2526C144.542 41.4598 144.799 41.0709 144.859 40.1735C144.92 39.4704 144.859 38.4683 144.346 37.2118C144.15 37.2268 143.742 37.2567 143.319 37.5409C142.805 37.8699 142.594 38.3486 142.518 38.5131C142.126 38.4234 141.416 38.3336 140.6 38.558C139.196 38.932 138.455 39.964 138.259 40.2782C138.652 39.4256 138.32 38.5879 137.791 38.3785C137.338 38.1841 136.794 38.573 136.734 38.6029Z" fill="black"/>
<path d="M138.44 43.2398C138.591 42.9556 139.347 42.3274 139.603 42.8509C139.724 43.1052 140.117 42.8808 139.996 42.6265C139.83 42.2825 139.422 42.1778 139.06 42.2526C138.622 42.3274 138.259 42.6265 138.048 43.0154C137.912 43.2697 138.304 43.4941 138.44 43.2398Z" fill="white"/>
<path d="M142.866 42.0881C142.956 41.8936 143.047 41.6692 143.198 41.5197C143.349 41.3701 143.802 41.2055 143.817 41.5496C143.832 41.8338 144.285 41.8338 144.27 41.5496C144.24 41.1158 143.862 40.8316 143.424 40.8914C142.926 40.9812 142.669 41.4299 142.473 41.8487C142.352 42.118 142.745 42.3573 142.866 42.0881Z" fill="white"/>
<path d="M142.987 43.5091C142.987 43.524 142.987 43.539 142.987 43.5539C142.956 43.5838 142.926 43.6138 142.911 43.6287C142.835 43.6736 142.715 43.6287 142.73 43.539C142.73 43.539 142.73 43.4941 142.745 43.5091L142.7 43.5539C142.805 43.5539 142.911 43.5539 143.017 43.5539C143.002 43.539 143.002 43.539 142.987 43.524C143.002 43.539 143.002 43.539 143.002 43.539C142.987 43.524 143.002 43.524 143.002 43.5539C143.017 43.6437 142.971 43.7035 142.851 43.7484C142.805 43.7334 142.775 43.7334 142.73 43.7185C142.669 43.6885 142.684 43.5988 142.7 43.5539C142.715 43.539 142.7 43.539 142.684 43.5689C142.7 43.5539 142.7 43.5539 142.684 43.5689C142.579 43.6437 142.533 43.7633 142.609 43.883C142.669 43.9728 142.82 44.0326 142.926 43.9578C143.032 43.883 143.138 43.7783 143.153 43.6287C143.153 43.4642 143.032 43.3146 142.866 43.3146C142.7 43.3146 142.579 43.4193 142.564 43.5838C142.549 43.7035 142.624 43.8082 142.7 43.883C142.79 43.9728 142.926 43.9578 143.017 43.883C143.213 43.7334 143.258 43.4193 143.032 43.2697C142.926 43.2099 142.79 43.1949 142.684 43.2548C142.549 43.3296 142.533 43.5091 142.564 43.6437C142.579 43.7633 142.73 43.8232 142.835 43.7933C142.956 43.7484 143.002 43.6287 142.987 43.5091Z" fill="white"/>
<path d="M140.57 43.9727C140.132 44.227 139.543 44.1074 139.256 43.6885C139.09 43.4492 138.697 43.6736 138.863 43.9129C139.301 44.5262 140.132 44.7356 140.812 44.3616C141.053 44.2121 140.827 43.8232 140.57 43.9727Z" fill="white"/>
<path d="M140.238 44.945C139.905 45.1993 139.618 45.5284 139.422 45.9023C139.286 46.1566 139.679 46.381 139.815 46.1267C139.996 45.7827 140.253 45.4985 140.57 45.2591C140.661 45.1843 140.646 45.0198 140.57 44.945C140.464 44.8553 140.328 44.8702 140.238 44.945Z" fill="white"/>
<path d="M143.908 43.2997C144.21 42.9556 144.436 42.5667 144.587 42.1329C144.678 41.8637 144.24 41.744 144.149 42.0133C144.029 42.3723 143.832 42.7013 143.591 42.9855C143.409 43.2099 143.727 43.524 143.908 43.2997Z" fill="white"/>
<path d="M143.938 43.868C144.301 43.7932 144.723 43.7035 145.01 44.0027C145.207 44.2121 145.524 43.898 145.328 43.6885C144.92 43.2548 144.331 43.3296 143.802 43.4492C143.53 43.4941 143.651 43.9279 143.938 43.868Z" fill="white"/>
<path d="M119.818 35.4617C120.513 34.3848 122.159 35.0279 122.99 35.5664C123.986 36.1947 124.742 37.137 125.421 38.0793C126.796 39.979 128.019 42.0432 128.472 44.3616C128.533 44.6458 128.971 44.5262 128.91 44.242C128.381 41.4748 126.75 38.8123 124.908 36.6883C123.835 35.4617 120.8 33.1433 119.425 35.2523C119.274 35.4767 119.667 35.716 119.818 35.4617Z" fill="#161616"/>
<path d="M120.754 36.4789C124.379 38.4982 126.418 42.2825 127.445 46.1416C127.521 46.4258 127.959 46.3062 127.883 46.022C126.826 42.0581 124.696 38.1542 120.981 36.09C120.724 35.9404 120.498 36.3293 120.754 36.4789Z" fill="#161616"/>
<path d="M128.91 44.1672C129.288 41.5197 130.994 39.3059 133.335 38.0345C134.544 37.3763 135.888 36.9725 137.262 36.778C137.912 36.6883 138.667 36.5985 139.301 36.8379C139.996 37.0921 140.661 38.1841 139.785 38.6777C139.528 38.8123 139.754 39.2012 140.011 39.0666C140.978 38.5281 140.736 37.152 139.89 36.6284C138.576 35.8058 136.401 36.3891 135.057 36.8379C131.734 37.8999 128.986 40.5624 128.487 44.0775C128.427 44.3318 128.865 44.4514 128.91 44.1672Z" fill="#161616"/>
<path d="M129.922 44.8403C130.662 43.9877 131.599 43.2697 132.505 42.5966C133.381 41.9385 134.317 41.4 135.405 41.1607C135.692 41.1008 135.571 40.6671 135.284 40.7269C134.166 40.9812 133.184 41.5346 132.278 42.2077C131.342 42.9107 130.375 43.6437 129.605 44.5262C129.409 44.7356 129.726 45.0647 129.922 44.8403Z" fill="#161616"/>
<path d="M135.465 41.2055C135.782 40.4876 136.19 39.7995 136.688 39.1862C136.779 39.0815 136.885 38.902 137.006 38.8272C137.111 38.6328 137.247 38.6178 137.444 38.7973C137.685 38.7973 137.791 38.8871 137.791 39.0965C137.957 39.4106 137.972 39.9491 138.033 40.3081C138.093 40.5923 138.531 40.4726 138.471 40.1884C138.35 39.62 138.199 37.5857 137.111 38.1392C136.688 38.3486 136.371 38.8721 136.099 39.2311C135.692 39.7845 135.359 40.3679 135.072 40.9812C134.952 41.2354 135.344 41.4748 135.465 41.2055Z" fill="#161616"/>
<path d="M138.38 40.4427C139.15 39.4555 140.721 38.0943 142.065 38.8272C142.322 38.9619 142.549 38.573 142.292 38.4383C140.736 37.6157 138.984 38.9619 138.048 40.1286C137.882 40.3529 138.199 40.6671 138.38 40.4427Z" fill="#161616"/>
<path d="M142.503 38.7524C142.715 38.4234 143.696 37.2417 144.119 37.5558C144.346 37.7204 144.391 38.3037 144.452 38.573C144.542 38.9918 144.572 39.4106 144.587 39.8444C144.603 40.1286 145.056 40.1286 145.041 39.8444C145.025 39.2461 144.95 38.6627 144.799 38.0793C144.708 37.7503 144.633 37.122 144.24 37.0173C143.878 36.9276 143.379 37.2716 143.107 37.4661C142.7 37.7503 142.382 38.1093 142.126 38.5281C141.959 38.7674 142.352 38.9918 142.503 38.7524Z" fill="#161616"/>
<path d="M130.511 44.1074C131.553 45.1095 132.656 46.0369 133.834 46.8746C134.997 47.6972 136.13 48.2806 137.595 48.2058C137.882 48.1909 137.882 47.7421 137.595 47.7571C136.099 47.8319 134.997 47.1737 133.834 46.3361C132.762 45.5583 131.765 44.7057 130.813 43.7932C130.617 43.5988 130.3 43.9129 130.511 44.1074Z" fill="#161616"/>
<path d="M127.46 45.648C129.106 52.8876 124.817 60.8003 128.366 67.7258C129.031 69.0271 130.043 70.2088 131.432 70.7922C132.792 71.3606 134.362 71.3157 135.767 70.867C138.878 69.8797 140.887 67.0228 142.428 64.3304C143.409 62.6401 144.225 60.8302 144.708 58.9306C144.95 57.9882 145.101 57.001 145.146 56.0288C145.192 54.9069 145.041 53.7851 145.086 52.6632C145.101 52.379 144.648 52.379 144.633 52.6632C144.572 54.4881 144.814 56.2232 144.452 58.0331C144.134 59.6486 143.545 61.2191 142.805 62.685C141.431 65.4373 139.573 68.5335 136.719 69.9844C135.238 70.7323 133.411 71.0165 131.825 70.4332C130.269 69.8648 129.242 68.5036 128.578 67.0527C127.158 63.8966 127.324 60.3067 127.702 56.9561C128.125 53.1568 128.789 49.3127 127.928 45.5134C127.823 45.2591 127.385 45.3638 127.46 45.648Z" fill="#161616"/>
<path d="M134.181 60.6208C133.335 62.0867 132.777 63.6722 132.535 65.3475C132.49 65.6317 132.928 65.7514 132.973 65.4672C133.215 63.8218 133.743 62.2812 134.574 60.8452C134.725 60.6059 134.332 60.3815 134.181 60.6208Z" fill="#161616"/>
<path d="M134.468 60.7853C136.703 60.5909 139.06 60.1721 141.295 60.4114C141.582 60.4413 141.582 59.9926 141.295 59.9627C139.06 59.7084 136.703 60.1422 134.468 60.3366C134.181 60.3665 134.181 60.8153 134.468 60.7853Z" fill="#161616"/>
<path d="M132.761 65.7514C133.864 66.3946 135.148 66.3347 136.386 66.3048C137.685 66.2599 138.984 66.1104 140.117 65.4373C140.374 65.2877 140.132 64.8988 139.89 65.0484C138.818 65.6915 137.61 65.8112 136.386 65.8561C135.238 65.9009 134.03 65.9757 132.988 65.3774C132.746 65.2278 132.52 65.6167 132.761 65.7514Z" fill="#161616"/>
<path d="M141.084 60.3067C140.797 61.9521 140.359 63.5376 139.769 65.0932C139.664 65.3625 140.102 65.4821 140.207 65.2129C140.812 63.6573 141.25 62.0568 141.522 60.4264C141.567 60.1422 141.129 60.0225 141.084 60.3067Z" fill="#161616"/>
<path d="M134.06 61.3986C134.8 63.0141 136.9 63.4179 138.516 63.4329C138.803 63.4329 138.803 62.9842 138.516 62.9842C137.066 62.9543 135.118 62.6252 134.453 61.1593C134.332 60.905 133.94 61.1443 134.06 61.3986Z" fill="#161616"/>
<path d="M137.323 62.8495C137.277 63.2235 137.232 63.5974 137.187 63.9564C137.157 64.2406 137.61 64.2406 137.64 63.9564C137.685 63.5825 137.731 63.2085 137.776 62.8495C137.806 62.5653 137.353 62.5653 137.323 62.8495Z" fill="#161616"/>
<path d="M138.184 62.8495C138.138 63.2235 138.093 63.5974 138.063 63.9714C138.033 64.2556 138.486 64.2556 138.516 63.9714C138.561 63.5974 138.607 63.2235 138.637 62.8495C138.667 62.5653 138.214 62.5653 138.184 62.8495Z" fill="#161616"/>
<path d="M138.576 63.4778C139.649 63.2385 140.54 62.5803 141.099 61.6529C141.25 61.3986 140.857 61.1743 140.706 61.4286C140.192 62.2662 139.407 62.8196 138.455 63.044C138.168 63.1188 138.289 63.5526 138.576 63.4778Z" fill="#161616"/>
<path d="M135.269 40.3978C134.816 43.0454 135.314 46.2015 138.048 47.413C138.304 47.5327 138.546 47.1438 138.274 47.0241C135.722 45.8873 135.284 42.9706 135.707 40.5175C135.752 40.2333 135.314 40.1136 135.269 40.3978Z" fill="#161616"/>
<path d="M144.557 39.6799C144.587 40.5325 144.572 41.4 144.693 42.2376C144.814 43.1501 145.645 44.1672 145.207 45.0796C145.086 45.3339 145.479 45.5732 145.599 45.304C145.992 44.4813 145.645 43.7933 145.358 42.9855C144.98 41.9534 145.071 40.7568 145.025 39.6649C144.995 39.3807 144.542 39.3807 144.557 39.6799Z" fill="#161616"/>
<path d="M139.286 47.0989C139.951 46.7549 140.706 47.1139 140.857 47.8319C140.872 47.9067 140.978 47.8767 140.963 47.802C140.781 47.0092 139.951 46.6203 139.226 46.9942C139.165 47.0391 139.226 47.1438 139.286 47.0989Z" fill="white"/>
<path d="M140.434 47.8618C140.54 47.9814 140.615 48.116 140.661 48.2656C140.691 48.3404 140.797 48.3105 140.766 48.2357C140.706 48.0712 140.615 47.9216 140.51 47.787C140.464 47.7271 140.374 47.8169 140.434 47.8618Z" fill="white"/>
<path d="M143.47 46.8147C143.606 46.2015 143.998 45.6929 144.572 45.4087C144.633 45.3788 144.587 45.2741 144.512 45.3189C143.908 45.6031 143.5 46.1416 143.364 46.7848C143.349 46.8596 143.455 46.8895 143.47 46.8147Z" fill="white"/>
<path d="M116.873 15.1041C115.831 15.6276 114.955 16.6148 114.562 17.0486C113.595 18.1405 113.097 19.1577 112.553 20.2945C112.1 21.2219 111.571 22.5381 111.148 24.1835C111.738 24.2882 112.327 24.378 112.916 24.4827C112.885 25.0511 112.885 25.8887 113.112 26.8759C113.323 27.7734 113.671 29.2094 114.879 30.2115C116.54 31.6176 118.746 31.2735 119.153 31.2137C119.184 31.9167 119.335 32.9189 119.908 33.951C120.06 34.2053 120.211 34.4446 120.362 34.654C121.192 34.4147 122.476 33.9211 123.73 32.9039C126.932 30.3461 127.37 26.5319 127.505 25.425C127.702 23.7198 128.079 20.5039 125.95 17.8414C123.73 15.0891 119.516 13.7878 116.873 15.1041Z" fill="white"/>
<path d="M113.777 18.2153C114.199 17.5871 115.015 16.6597 115.936 16.0165C117.416 14.9844 118.081 15.4182 118.836 14.5058C119.38 13.8476 119.727 12.7707 119.319 12.2621C118.67 11.4544 116.359 12.4266 116.057 12.5613C115.393 12.8455 113.203 13.7579 112.327 16.0614C111.602 17.991 112.085 20.1 112.417 20.1449C112.508 20.1599 112.568 20.0103 113.052 19.2773C113.278 18.9034 113.535 18.5594 113.777 18.2153Z" fill="#FEA300"/>
<path d="M117.069 13.713C116.948 14.1019 116.767 14.8797 117.371 16.4054C118.443 19.1427 120.951 21.5958 122.204 21.1471C122.476 21.0424 122.763 20.7731 123.307 20.7432C123.443 20.7432 123.986 20.7133 124.409 21.0424C125.074 21.5659 125.104 22.7027 124.666 23.4356C124.591 23.5702 124.183 24.1835 123.564 24.2284C123.02 24.2733 122.839 23.8544 122.401 23.8245C121.328 23.7647 120.407 26.0981 120.286 26.4122C120.044 27.0106 119.455 28.5662 119.878 30.5556C119.969 30.9893 120.18 31.9018 120.83 32.8441C122.234 34.8634 124.591 35.357 125.467 35.5365C126.327 35.716 129.605 36.3891 132.157 34.295C132.565 33.966 133.909 32.8292 134.272 30.8996C134.891 27.6388 132.127 25.2007 131.961 25.066C131.84 23.3758 131.432 20.6834 129.998 17.7367C129.091 15.8669 128.246 14.1468 126.327 12.8455C123.805 11.1552 120.135 10.6766 118.217 12.1424C118.021 12.3219 117.371 12.8305 117.069 13.713Z" fill="#FEA300"/>
<path d="M114.199 29.7628C113.973 29.9872 113.308 30.6752 113.187 31.7522C113.021 33.248 114.033 34.2801 114.245 34.4895C115.347 35.6113 117.19 36.06 118.519 35.3869C118.625 35.3421 119.788 34.7288 119.833 33.8463C119.848 33.4574 119.637 33.2629 119.335 32.3954C119.138 31.827 119.017 31.3633 118.927 31.0492C118.519 31.1838 117.824 31.3633 116.963 31.2436C115.423 31.0492 114.471 30.0619 114.199 29.7628Z" fill="#FEA300"/>
<path opacity="0.12" d="M117.22 15.0293C117.235 15.493 117.296 16.1811 117.613 16.914C117.824 17.4076 118.036 17.7068 118.202 17.9461C118.836 18.9034 119.048 19.8009 119.38 20.803C119.909 22.3586 119.818 23.66 119.712 25.2754C119.622 26.6216 119.319 28.6709 118.338 31.0492C118.746 31.1688 119.335 31.4081 119.969 31.827C121.132 32.6048 121.661 33.5322 121.993 33.9659C122.672 34.8485 124.183 35.7758 127.823 35.716C127.46 35.357 126.947 34.8185 126.388 34.1604C125.074 32.6347 123.926 31.3034 123.246 29.688C122.854 28.7606 122.25 26.861 122.718 24.1087C123.141 24.3181 123.639 24.3032 124.032 24.0489C124.44 23.7796 124.696 23.2412 124.56 22.7476C124.394 22.1792 123.699 21.7903 122.99 21.9697C122.839 21.5958 122.597 21.0573 122.204 20.474C121.585 19.5615 120.936 18.9931 120.694 18.7837C119.924 18.1256 118.806 17.0037 117.22 15.0293Z" fill="#606060"/>
<path opacity="0.14" d="M111.315 23.9143C111.33 23.6749 112.1 23.4805 112.749 23.5254C113.323 23.5702 114.003 23.8245 113.988 24.0489C113.973 24.2583 113.339 24.4228 112.87 24.4378C112.145 24.4677 111.315 24.1536 111.315 23.9143Z" fill="#606060"/>
<path d="M113.187 18.3499C112.327 20.2197 111.556 22.1193 110.892 24.0638C110.846 24.1835 110.937 24.3032 111.043 24.3331C111.632 24.5575 112.221 24.6622 112.84 24.6472C113.127 24.6472 113.127 24.1985 112.84 24.1985C112.251 24.1985 111.707 24.0938 111.164 23.8993C111.209 23.9891 111.269 24.0788 111.315 24.1686C111.964 22.2539 112.704 20.3842 113.565 18.5594C113.701 18.32 113.308 18.0807 113.187 18.3499Z" fill="#161616"/>
<path d="M112.78 24.7369C112.9 26.6665 113.082 28.8055 114.532 30.2564C115.921 31.6624 117.93 31.5428 119.757 31.3333C120.044 31.3034 120.044 30.8547 119.757 30.8846C118.066 31.0791 116.148 31.2436 114.849 29.9423C113.49 28.5811 113.354 26.5468 113.233 24.7369C113.218 24.4528 112.765 24.4528 112.78 24.7369Z" fill="#161616"/>
<path d="M118.866 31.3782C119.063 32.4253 119.425 33.4275 119.939 34.3548C120.075 34.6091 120.467 34.3848 120.331 34.1305C119.833 33.218 119.501 32.2757 119.304 31.2586C119.259 30.9744 118.821 31.094 118.866 31.3782Z" fill="#161616"/>
<path d="M113.082 27.0255C113.822 27.6687 114.924 27.3695 115.211 26.4272C115.302 26.143 114.864 26.0383 114.773 26.3075C114.592 26.9058 113.882 27.1302 113.414 26.6964C113.187 26.5169 112.87 26.8311 113.082 27.0255Z" fill="#161616"/>
<path d="M114.471 26.4122C114.713 26.4721 114.894 26.6067 115.045 26.7862C115.121 26.8759 115.287 26.861 115.362 26.7862C115.453 26.6964 115.438 26.5618 115.362 26.4721C115.166 26.2327 114.894 26.0532 114.592 25.9785C114.32 25.9037 114.199 26.3374 114.471 26.4122Z" fill="#161616"/>
<path d="M115.151 20.818C115.272 20.1898 116.057 20.3094 116.48 20.5338C116.843 20.7282 117.099 21.0424 117.25 21.4163C117.356 21.6855 117.794 21.5659 117.688 21.2966C117.447 20.6535 116.948 20.1449 116.253 19.9654C115.619 19.8009 114.864 19.9953 114.728 20.6983C114.668 20.9825 115.106 21.1022 115.151 20.818Z" fill="#161616"/>
<path d="M115.136 18.1705C115.815 17.0486 117.145 17.9162 117.416 18.8585C117.492 19.1427 117.93 19.0231 117.854 18.7389C117.658 18.0508 117.175 17.4076 116.435 17.2281C115.77 17.0785 115.09 17.3627 114.743 17.9311C114.592 18.2004 114.985 18.4247 115.136 18.1705Z" fill="#161616"/>
<path d="M115.589 23.3608C115.876 23.3608 115.876 22.9121 115.589 22.9121C115.302 22.9121 115.287 23.3608 115.589 23.3608Z" fill="#161616"/>
<path d="M116.45 22.6877C116.465 22.6877 116.495 22.6877 116.51 22.6877C116.631 22.6877 116.737 22.583 116.737 22.4634C116.737 22.3437 116.631 22.239 116.51 22.239C116.495 22.239 116.465 22.239 116.45 22.239C116.329 22.239 116.223 22.3437 116.223 22.4634C116.223 22.598 116.329 22.6877 116.45 22.6877Z" fill="#161616"/>
<path d="M116.465 23.4506C116.465 23.4655 116.465 23.4805 116.465 23.4954C116.465 23.7796 116.918 23.7796 116.918 23.4954C116.918 23.4805 116.918 23.4655 116.918 23.4506C116.918 23.1664 116.465 23.1664 116.465 23.4506C116.465 23.4655 116.465 23.4805 116.465 23.4954C116.465 23.7796 116.918 23.7796 116.918 23.4954C116.918 23.4805 116.918 23.4655 116.918 23.4506C116.918 23.1664 116.465 23.1664 116.465 23.4506Z" fill="#161616"/>
<path d="M123.05 21.162C123.458 20.5787 124.153 20.9526 124.394 21.4313C124.591 21.8052 124.591 22.254 124.575 22.6578C124.515 23.6749 123.654 24.3929 122.657 23.7647C122.416 23.6002 122.189 23.9891 122.431 24.1536C123.02 24.5425 123.775 24.5874 124.364 24.1386C124.968 23.675 125.074 22.9121 125.029 22.1941C124.983 21.5061 124.711 20.7432 123.986 20.4889C123.473 20.3094 122.959 20.5039 122.657 20.9377C122.506 21.162 122.899 21.3864 123.05 21.162Z" fill="#161616"/>
<path d="M82.4218 12.6211C82.1046 12.6211 81.7874 12.636 81.4854 12.636C80.9719 13.6233 80.6849 14.5207 80.5187 15.1789C80.0354 17.1084 80.1563 18.7089 80.2469 19.4867C80.3073 20.0103 80.3979 20.444 80.4734 20.7432C80.7453 20.7432 81.0172 20.7432 81.289 20.7432C81.3947 21.1022 81.5005 21.4612 81.6062 21.8202C84.1587 21.8052 86.2581 21.8052 87.7231 21.8202C96.6039 21.895 102.796 22.239 104.231 22.3138C106.028 22.4185 107.493 22.5232 108.4 22.583C108.43 22.0296 108.581 21.8351 108.717 21.7753C108.959 21.6706 109.17 21.9249 109.487 21.865C109.819 21.8052 110.031 21.4612 110.167 21.1471C110.439 21.2817 110.937 21.4612 111.526 21.3714C111.662 21.3565 111.783 21.3116 111.889 21.2817C112.145 20.7731 112.402 20.2646 112.659 19.756C112.296 19.6363 111.783 19.5316 111.164 19.5316C110.816 19.5316 110.514 19.5765 110.257 19.6214C110.227 19.5466 109.986 18.8735 109.351 18.7239C109.155 18.679 108.989 18.694 108.853 18.7239C108.762 18.5594 108.672 18.3948 108.581 18.2303C108.218 18.1705 107.66 18.0807 106.995 17.961C101.603 16.9888 97.8424 15.8071 94.9727 14.9545C92.2239 14.1318 88.2215 13.01 83.0863 11.7685C82.8749 12.0527 82.6483 12.3369 82.4218 12.6211Z" fill="white"/>
<path opacity="0.07" d="M80.2922 18.4247C80.4281 18.3948 80.5792 18.7388 80.7453 18.694C81.0172 18.6341 80.9568 17.6918 81.0172 16.9888C81.0625 16.3157 81.2588 15.3434 81.9234 14.1617C82.3614 14.3412 83.0259 14.6254 83.8264 14.9695C86.7112 16.211 88.7048 17.1683 89.3089 17.4375C93.2963 19.2773 97.6762 20.1 98.7788 20.3094C101.286 20.7881 104.76 21.2069 108.928 21.0274C108.747 21.521 108.566 22.0146 108.385 22.5082C107.69 22.4933 106.678 22.4933 105.439 22.4634C100.123 22.3587 96.4076 22.1941 94.278 22.1044C91.2724 21.9847 86.9679 21.865 81.5307 21.88C81.4703 21.4761 81.4099 21.0723 81.3494 20.6684C81.0021 20.7282 80.6547 20.7881 80.3073 20.8479C80.0808 18.9782 80.1412 18.4546 80.2922 18.4247Z" fill="#606060"/>
<path d="M82.739 11.7834C80.851 14.6703 80.3224 18.2602 81.289 21.5659C81.3646 21.8501 81.8026 21.7304 81.727 21.4462C80.7906 18.2452 81.3041 14.8049 83.1317 12.0078C83.2978 11.7535 82.9051 11.5292 82.739 11.7834Z" fill="#161616"/>
<path d="M83.1317 12.2172C91.6349 14.3412 100.123 16.4653 108.626 18.5743C108.913 18.6491 109.034 18.2153 108.747 18.1405C100.244 16.0165 91.7557 13.8925 83.2525 11.7834C82.9806 11.7087 82.8598 12.1424 83.1317 12.2172Z" fill="#161616"/>
<path d="M81.6062 22.0595C90.4719 21.9847 99.3376 22.1941 108.188 22.6728C108.475 22.6877 108.475 22.239 108.188 22.224C99.3376 21.7454 90.4719 21.536 81.6062 21.6108C81.3193 21.6108 81.3193 22.0595 81.6062 22.0595Z" fill="#161616"/>
<path d="M108.49 18.4098C109.094 19.741 108.959 21.2518 108.128 22.4634C107.962 22.7027 108.354 22.927 108.521 22.6877C109.442 21.3415 109.563 19.6662 108.883 18.1854C108.762 17.9311 108.369 18.1555 108.49 18.4098Z" fill="#161616"/>
<path d="M108.943 18.9931C109.11 19.1128 109.23 19.0679 109.427 19.1128C109.804 19.2175 109.955 19.5615 110.031 19.9205C110.152 20.5787 109.986 21.9697 109.004 21.5808C108.732 21.4761 108.611 21.9099 108.883 22.0146C109.88 22.4035 110.529 21.3714 110.529 20.5039C110.529 20.0252 110.469 19.4867 110.197 19.0829C110.106 18.9483 109.986 18.8136 109.835 18.7389C109.638 18.6491 109.366 18.7089 109.2 18.5893C108.928 18.4397 108.702 18.8286 108.943 18.9931Z" fill="#161616"/>
<path d="M110.273 19.8158C111.043 19.7709 111.813 19.7859 112.568 19.8906C112.855 19.9205 112.855 19.4718 112.568 19.4419C111.798 19.3521 111.043 19.3222 110.273 19.3671C109.986 19.397 109.986 19.8457 110.273 19.8158Z" fill="#161616"/>
<path d="M110.212 21.4612C110.831 21.5659 111.451 21.6108 112.07 21.5509C112.357 21.521 112.357 21.0723 112.07 21.1022C111.481 21.1471 110.907 21.1321 110.333 21.0274C110.046 20.9825 109.925 21.4013 110.212 21.4612Z" fill="#161616"/>
<path d="M82.4822 12.5014C81.0172 11.6638 80.6094 14.2814 80.413 15.1041C79.9599 17.0037 79.7485 18.9632 80.3073 20.8629C80.3375 20.9526 80.4281 21.0274 80.5188 21.0274C80.7151 21.0274 80.9266 21.0274 81.1229 21.0274C81.4099 21.0274 81.4099 20.5787 81.1229 20.5787C80.9266 20.5787 80.7151 20.5787 80.5188 20.5787C80.5943 20.6385 80.6698 20.6834 80.7302 20.7432C80.3375 19.3671 80.3375 17.976 80.5641 16.57C80.6698 15.9417 80.8057 15.3135 80.9719 14.7002C81.0776 14.2964 81.4099 12.3967 82.2406 12.8903C82.5124 13.0399 82.739 12.651 82.4822 12.5014Z" fill="#161616"/>
<path d="M98.809 15.7174C98.5371 15.3883 98.084 15.4332 98.0236 15.4332C97.5252 15.4631 97.0419 15.9118 96.5133 17.0037C95.4863 19.0829 95.4409 21.162 95.4409 21.4911C95.4258 22.9271 95.5618 25.2605 96.5888 28.0426C96.6794 29.2094 96.8758 30.8398 97.3138 32.7394C98.084 36.1498 98.8996 39.7397 101.709 42.9257C102.766 44.1373 104.85 46.4857 108.475 47.3383C112.266 48.2357 115.347 46.9045 116.102 46.5605C116.767 46.2463 118.625 45.319 120.195 43.3595C121.147 42.1778 122.249 40.8914 122.068 39.3059C121.993 38.6178 121.691 38.0345 121.238 37.1071C120.784 36.1797 120.543 35.716 120.06 35.5365C119.395 35.2822 118.685 35.731 117.9 36.1797C116.571 36.9276 116.45 37.6456 115.015 38.3935C114.637 38.5879 114.26 38.7225 113.505 38.9619C112.311 39.3508 111.133 39.7397 110.046 39.8145C107.675 39.979 105.772 38.6328 105.228 38.2439C103.219 36.8229 102.434 34.9232 101.92 33.6817C100.772 30.8996 100.863 28.3418 101.059 26.846C101.769 26.7263 102.207 26.4421 102.419 26.2776C103.219 25.6643 103.416 24.8117 103.718 23.4955C103.914 22.6728 104.005 22.239 103.793 22.0745C103.355 21.7454 102.011 22.8223 101.709 23.0766C101.769 22.0595 101.92 21.2368 102.071 20.6535C102.268 19.8757 102.373 19.4718 102.645 19.1577C103.174 18.5444 103.793 18.6042 104.005 18.0209C104.125 17.7068 104.11 17.273 103.854 17.0187C103.551 16.7195 102.902 16.7345 102.343 17.1683C102.162 16.7794 101.799 16.5401 101.407 16.5251C101.014 16.5101 100.757 16.7495 100.682 16.8093C100.727 16.4054 100.546 16.0315 100.244 15.8819C99.836 15.6725 99.1866 15.9118 98.9449 16.5251C98.96 16.4503 99.0658 16.0315 98.809 15.7174Z" fill="white"/>
<path opacity="0.12" d="M98.0236 15.4332C97.6611 16.0614 97.208 16.9888 96.906 18.2004C96.2414 20.8329 96.7851 23.0318 97.0268 24.0938C99.6246 35.0579 98.4918 35.3271 100.304 37.8999C100.969 38.8272 105.53 45.0497 112.327 44.227C118.021 43.539 121.041 38.4084 121.434 37.7204C121.66 38.3187 121.932 39.3358 121.751 40.5474C121.479 42.3274 120.362 43.4492 119.954 43.868C119.561 44.2569 119.078 44.601 118.096 45.2741C117.22 45.8873 116.359 46.4258 115.982 46.6203C114.184 47.6225 111.405 47.8618 109.472 47.6075C104.216 46.9194 101.059 41.9833 99.7454 39.9341C96.7398 35.2523 96.4378 30.5107 96.468 28.1473C96.181 27.19 95.894 26.2178 95.6071 25.2605C95.4107 23.7796 95.3956 22.5531 95.4258 21.7005C95.5013 19.5615 95.5618 17.961 96.6643 16.5999C97.1476 16.0016 97.6762 15.6426 98.0236 15.4332Z" fill="#606060"/>
<path d="M118.474 45.0497C120.86 43.9279 122.461 41.5795 122.068 38.917C121.842 37.3015 120.528 34.5194 118.428 35.5066C117.492 35.9553 116.722 36.778 115.861 37.3614C114.668 38.1691 113.293 38.7973 111.919 39.2311C110.167 39.7846 108.218 39.9042 106.527 39.0666C105.288 38.4533 104.322 37.4511 103.582 36.3143C101.951 33.8164 101.105 30.8697 101.301 27.8931C101.316 27.6089 100.863 27.6089 100.848 27.8931C100.682 30.406 101.241 32.7992 102.358 35.0429C103.34 37.0473 104.775 38.932 106.95 39.7397C109.593 40.7119 112.478 39.7247 114.864 38.4832C115.936 37.9148 116.858 37.1819 117.824 36.4489C118.7 35.7758 119.576 35.4468 120.467 36.3442C121.57 37.4511 121.902 39.3807 121.57 40.8466C121.162 42.5966 119.848 43.9129 118.247 44.6608C117.99 44.7805 118.217 45.1694 118.474 45.0497Z" fill="#161616"/>
<path d="M101.271 28.0875C101.075 27.2648 101.664 27.0554 102.207 26.6665C102.524 26.4422 102.766 26.128 102.993 25.8139C103.567 24.9912 104.02 24.0339 104.141 23.0318C104.201 22.5381 104.307 21.7603 103.627 21.7304C102.827 21.7005 102.494 22.7027 101.739 22.7775C101.452 22.8074 101.452 23.2561 101.739 23.2262C102.313 23.1664 102.6 22.8074 103.038 22.4783C103.295 22.2839 103.582 22.0595 103.718 22.4933C103.793 22.7326 103.672 23.1813 103.612 23.4207C103.506 23.9292 103.28 24.4228 103.038 24.8865C102.811 25.3054 102.555 25.7391 102.207 26.0832C101.89 26.4122 101.452 26.487 101.105 26.7563C100.637 27.1153 100.712 27.7285 100.833 28.2221C100.908 28.4914 101.346 28.3717 101.271 28.0875Z" fill="#161616"/>
<path d="M95.9998 25.7242C95.6977 23.7946 95.6675 21.8202 95.9696 19.8906C96.0904 19.1128 96.2414 18.32 96.5133 17.5721C96.6794 17.1084 96.906 16.57 97.2382 16.196C97.6913 15.7024 98.5824 15.4481 98.8241 16.2858C98.8996 16.57 99.3376 16.4503 99.2621 16.1661C99.0507 15.4481 98.3559 15.0592 97.6309 15.3434C96.7096 15.7174 96.2716 16.8392 95.9847 17.6918C95.1389 20.2795 95.1389 23.1813 95.5467 25.8438C95.6071 26.128 96.0451 26.0084 95.9998 25.7242Z" fill="#161616"/>
<path d="M98.1898 18.0059C98.5523 17.1234 99.5793 15.3434 100.697 16.555C100.893 16.7644 101.21 16.4503 101.014 16.2409C100.501 15.6875 99.7605 15.5977 99.1111 15.9716C98.3861 16.3755 98.0538 17.1683 97.7518 17.9012C97.646 18.1555 98.084 18.2752 98.1898 18.0059Z" fill="#161616"/>
<path d="M100.093 18.3799C100.108 17.8115 100.334 17.1832 100.893 16.914C101.361 16.6896 101.92 16.7943 102.237 17.1982C102.419 17.4226 102.736 17.1084 102.555 16.8841C102.117 16.3456 101.331 16.211 100.712 16.4952C99.9871 16.8392 99.6548 17.617 99.6397 18.3799C99.6246 18.6641 100.078 18.6641 100.093 18.3799Z" fill="#161616"/>
<path d="M101.407 18.5294C101.679 17.5273 102.811 16.6148 103.793 17.4226C104.02 17.6021 104.337 17.2879 104.11 17.1084C102.857 16.0913 101.346 17.0486 100.969 18.4098C100.893 18.694 101.331 18.8136 101.407 18.5294Z" fill="#161616"/>
<path d="M103.703 17.3478C104.186 18.0209 103.113 18.4397 102.736 18.7538C102.419 19.0081 102.237 19.3372 102.102 19.7111C101.739 20.7432 101.573 21.865 101.482 22.942C101.452 23.2262 101.905 23.2262 101.935 22.942C102.011 22.1492 102.132 21.3565 102.328 20.5787C102.389 20.3244 102.449 20.0701 102.54 19.8158C102.736 19.2923 103.023 19.0978 103.461 18.7837C104.005 18.3948 104.579 17.7666 104.095 17.0935C103.929 16.8841 103.536 17.1084 103.703 17.3478Z" fill="#161616"/>
<path d="M95.4409 25.2754C95.6826 26.2926 95.9847 27.2947 96.3623 28.282C96.468 28.5512 96.906 28.4315 96.8003 28.1623C96.4227 27.1751 96.1206 26.1729 95.8789 25.1558C95.8185 24.8716 95.3805 24.9912 95.4409 25.2754Z" fill="#161616"/>
<path d="M96.2867 28.5662C96.8607 33.7117 98.1444 38.9918 101.633 43.0005C104.412 46.1865 108.823 48.6097 113.172 47.8169C115.226 47.443 117.099 46.4258 118.594 45.0048C118.806 44.8104 118.489 44.4813 118.277 44.6907C115.287 47.5327 111.028 48.2806 107.237 46.5904C103.159 44.7506 100.304 41.2953 98.6882 37.2118C97.6007 34.4446 97.057 31.5129 96.7247 28.5811C96.7096 28.282 96.2565 28.282 96.2867 28.5662Z" fill="#161616"/>
</svg>
