<svg width="411" height="69" viewBox="0 0 411 69" fill="none" xmlns="http://www.w3.org/2000/svg">
<path d="M103.321 54.1982C98.2411 54.1982 94.14 52.9076 91.0173 50.3266C87.9363 47.7053 86.3957 44.1362 86.3957 39.6194H95.9511C95.9511 40.6276 96.1385 41.535 96.5132 42.3416C96.9296 43.1078 97.4708 43.7329 98.137 44.2168C98.8448 44.7008 99.6359 45.0637 100.51 45.3057C101.385 45.5477 102.301 45.6687 103.258 45.6687C105.173 45.6687 106.818 45.2251 108.192 44.3378C109.608 43.4506 110.315 42.2407 110.315 40.7083C110.315 40.063 110.149 39.4984 109.816 39.0145C109.483 38.4902 109.087 38.0869 108.629 37.8046C108.213 37.482 107.547 37.1594 106.631 36.8367C105.756 36.5141 105.007 36.2721 104.382 36.1108C103.758 35.9495 102.821 35.7277 101.572 35.4454C100.573 35.2034 99.8232 35.0219 99.3236 34.901C98.824 34.78 98.0745 34.5783 97.0753 34.296C96.1177 34.0137 95.3682 33.7718 94.827 33.5701C94.3273 33.3281 93.6612 33.0055 92.8285 32.6022C91.9957 32.1989 91.3504 31.7957 90.8924 31.3924C90.4344 30.9891 89.9139 30.485 89.331 29.8801C88.7898 29.2751 88.3734 28.65 88.082 28.0048C87.7905 27.3192 87.5407 26.553 87.3325 25.7061C87.1244 24.8188 87.0203 23.8913 87.0203 22.9234C87.0203 18.8905 88.4359 15.7651 91.2671 13.547C94.0983 11.3289 97.9705 10.2199 102.883 10.2199C107.838 10.2199 111.689 11.4298 114.437 13.8495C117.227 16.2692 118.622 19.5963 118.622 23.8308H109.254C109.254 22.0967 108.608 20.786 107.318 19.8988C106.069 18.9712 104.507 18.5074 102.634 18.5074C100.968 18.5074 99.511 18.8502 98.2619 19.5358C97.0545 20.2214 96.4508 21.2094 96.4508 22.4999C96.4508 23.1049 96.5965 23.6493 96.8879 24.1332C97.221 24.5769 97.5957 24.96 98.0121 25.2826C98.4285 25.5649 99.0738 25.8674 99.9482 26.19C100.823 26.4723 101.551 26.6941 102.134 26.8554C102.759 26.9764 103.675 27.178 104.882 27.4603C106.214 27.783 107.214 28.0451 107.88 28.2468C108.546 28.4081 109.504 28.7105 110.753 29.1542C112.002 29.5574 112.959 29.9607 113.625 30.364C114.333 30.7673 115.145 31.3117 116.061 31.9973C116.977 32.6426 117.664 33.3685 118.122 34.175C118.622 34.9413 119.038 35.889 119.371 37.0182C119.746 38.1071 119.933 39.2968 119.933 40.5873C119.933 43.5313 119.163 46.0518 117.623 48.1489C116.082 50.246 114.083 51.7784 111.627 52.7463C109.212 53.7142 106.443 54.1982 103.321 54.1982Z" fill="#FEA300"/>
<path d="M158.663 53.3512H147.609L136.805 37.7441V53.3512H127.686V8.88907H136.805V35.2034L146.922 20.6852H157.477L146.048 36.2318L158.663 53.3512Z" fill="#FEA300"/>
<path d="M162.736 16.3297V8.10267H171.855V16.3297H162.736ZM162.736 53.3512V20.6852H171.855V53.3512H162.736Z" fill="#FEA300"/>
<path d="M180.606 53.3512V8.88907H189.725V53.3512H180.606Z" fill="#FEA300"/>
<path d="M198.476 53.3512V8.88907H207.595V53.3512H198.476Z" fill="#FEA300"/>
<path d="M243.888 20.6247H250.696V53.2908H243.514L242.764 50.3871C239.683 52.9681 236.04 54.2586 231.835 54.2586C226.755 54.2586 222.529 52.6253 219.157 49.3587C215.826 46.0518 214.161 41.9181 214.161 36.9577C214.161 32.0376 215.826 27.9443 219.157 24.6777C222.529 21.4111 226.755 19.7778 231.835 19.7778C236.123 19.7778 239.808 21.1086 242.889 23.7703L243.888 20.6247ZM225.964 43.3699C227.713 45.0637 229.899 45.9106 232.522 45.9106C235.187 45.9106 237.393 45.0637 239.142 43.3699C240.891 41.6761 241.765 39.5387 241.765 36.9577C241.765 34.3767 240.891 32.2393 239.142 30.5455C237.393 28.8517 235.207 28.0048 232.584 28.0048C230.836 28.0048 229.254 28.4081 227.838 29.2146C226.464 29.9809 225.381 31.0496 224.59 32.4208C223.799 33.7516 223.404 35.2639 223.404 36.9577C223.404 39.5387 224.257 41.6761 225.964 43.3699Z" fill="#FEA300"/>
<path d="M275.142 54.2586C271.811 54.2586 268.772 53.5126 266.024 52.0204C263.318 50.4879 261.173 48.3908 259.591 45.7292C258.051 43.0675 257.28 40.1235 257.28 36.8972C257.28 32.0175 258.987 27.9443 262.402 24.6777C265.816 21.4111 270.083 19.7778 275.205 19.7778C279.576 19.7778 283.323 21.0078 286.446 23.4678C289.569 25.8875 291.547 29.1138 292.379 33.1467H283.323C282.574 31.5739 281.471 30.3438 280.013 29.4566C278.598 28.5291 276.974 28.0653 275.142 28.0653C272.686 28.0653 270.625 28.9122 268.959 30.606C267.335 32.2998 266.523 34.417 266.523 36.9577C266.523 39.4984 267.356 41.6358 269.022 43.3699C270.687 45.1041 272.727 45.9711 275.142 45.9711C276.974 45.9711 278.598 45.5074 280.013 44.5798C281.429 43.6119 282.532 42.2407 283.323 40.4663H292.504C291.671 44.6201 289.673 47.9674 286.509 50.5081C283.344 53.0085 279.555 54.2586 275.142 54.2586Z" fill="#FEA300"/>
<path d="M314.804 45.4872H318.926V53.3512H312.494C310.037 53.3512 307.893 52.8875 306.061 51.9599C304.271 51.0324 302.897 49.7015 301.939 47.9674C300.981 46.1929 300.503 44.0959 300.503 41.6761V27.7628H294.382V25.8875L307.747 12.1557H309.433V20.6852H318.739V27.7628H309.621V40.5268C309.621 42.0996 310.058 43.3296 310.932 44.2168C311.848 45.0637 313.139 45.4872 314.804 45.4872Z" fill="#FEA300"/>
<path d="M325.152 16.3297V8.10267H334.27V16.3297H325.152ZM325.152 53.3512V20.6852H334.27V53.3512H325.152Z" fill="#FEA300"/>
<path d="M365.131 20.6852H374.624L361.196 53.3512H352.765L339.088 20.6852H348.768L357.074 42.5835L365.131 20.6852Z" fill="#FEA300"/>
<path d="M411 36.8972C411 37.7441 410.938 38.6112 410.813 39.4984H385.332C385.706 41.7165 386.602 43.4304 388.017 44.6403C389.474 45.8098 391.327 46.3946 393.575 46.3946C395.116 46.3946 396.511 46.072 397.76 45.4267C399.009 44.7411 399.987 43.8136 400.695 42.644H410.313C409.064 46.1929 406.941 49.0159 403.943 51.113C400.945 53.2101 397.489 54.2586 393.575 54.2586C388.579 54.2586 384.416 52.6052 381.085 49.2982C377.754 45.9913 376.089 41.898 376.089 37.0182C376.089 35.0824 376.359 33.2273 376.9 31.4529C377.483 29.6784 378.295 28.0854 379.336 26.6739C380.419 25.2624 381.668 24.0526 383.083 23.0444C384.499 21.9958 386.102 21.1893 387.892 20.6247C389.683 20.0601 391.577 19.7778 393.575 19.7778C396.948 19.7778 399.967 20.544 402.631 22.0765C405.338 23.609 407.399 25.6859 408.814 28.3072C410.271 30.9286 411 33.7919 411 36.8972ZM393.575 27.2789C391.535 27.2789 389.807 27.8233 388.392 28.9122C387.018 30.001 386.081 31.5134 385.581 33.4491H401.882C401.465 32.1183 400.862 31.0093 400.071 30.122C399.28 29.1945 398.322 28.4887 397.198 28.0048C396.115 27.5208 394.908 27.2789 393.575 27.2789Z" fill="#FEA300"/>
<path fill-rule="evenodd" clip-rule="evenodd" d="M42.8576 22.2647C49.2051 22.2647 54.3508 17.2806 54.3508 11.1323C54.3508 4.98412 49.2051 0 42.8576 0C36.5101 0 31.3644 4.98412 31.3644 11.1323C31.3644 17.2806 36.5101 22.2647 42.8576 22.2647ZM42.8576 15.9634C45.6122 15.9634 47.8452 13.8004 47.8452 11.1323C47.8452 8.46425 45.6122 6.30133 42.8576 6.30133C40.103 6.30133 37.87 8.46425 37.87 11.1323C37.87 13.8004 40.103 15.9634 42.8576 15.9634Z" fill="#FEA300"/>
<path d="M32.2078 44.8178C31.5129 45.3972 30.6698 46.1203 29.709 46.9587C27.0983 49.237 23.7468 52.2556 20.424 55.2815C17.1059 58.3032 13.8352 61.315 11.3928 63.5726C10.172 64.7011 9.1589 65.6404 8.45128 66.2973C8.09749 66.6258 7.8201 66.8836 7.63133 67.0592L7.34423 67.3263L7.34342 67.3271C7.34342 67.3271 7.3432 67.3273 4.71371 64.6786L7.34342 67.3271C5.61686 68.9352 2.8711 68.8833 1.21085 67.211C-0.449392 65.5386 -0.395636 62.8793 1.33092 61.2712L4.06822 64.0284C1.33093 61.2712 1.33128 61.2708 1.33128 61.2708L1.62383 60.9986C1.81429 60.8215 2.0935 60.562 2.44923 60.2317C3.16066 59.5713 4.17834 58.6277 5.40436 57.4945C7.8557 55.2286 11.1431 52.2012 14.4824 49.1603C17.8172 46.1235 21.2224 43.056 23.9029 40.7167C25.2383 39.5513 26.426 38.5385 27.3482 37.7932C27.8037 37.4251 28.2412 37.084 28.6232 36.8121C28.8107 36.6786 29.0384 36.5233 29.2811 36.3796L29.2943 36.3717C29.4384 36.286 29.9974 35.9535 30.7332 35.7795C31.744 35.5405 32.5859 35.7008 32.9133 35.7721C33.3286 35.8625 33.6806 35.9903 33.924 36.0883C34.4162 36.2863 34.8996 36.5407 35.3124 36.7745C36.1612 37.2552 37.1737 37.9141 38.2354 38.6446C40.3823 40.1216 43.0398 42.1053 45.6088 44.1067C48.1814 46.1108 50.7247 48.1788 52.6452 49.837C53.5968 50.6587 54.4471 51.424 55.0828 52.0515C55.3909 52.3556 55.7239 52.7008 56.0068 53.0466C56.143 53.213 56.3441 53.4716 56.5322 53.789L56.5411 53.8039C56.6492 53.9846 57.1642 54.8461 57.1642 56.0277C57.1642 58.0092 55.8417 59.1252 55.4564 59.4221C54.9535 59.8096 54.4624 60.0223 54.2211 60.1198C53.6928 60.3335 53.1393 60.4704 52.734 60.5601C51.8608 60.7532 50.739 60.9246 49.5523 61.0785C47.1382 61.3916 43.9759 61.6921 40.8802 61.9518C37.7693 62.2129 34.6646 62.4378 32.3417 62.5973C31.1792 62.6771 30.21 62.7407 29.5308 62.7844C29.1911 62.8062 28.9238 62.8231 28.7409 62.8345L28.4578 62.8521C28.4578 62.8521 28.4574 62.8521 28.1846 58.6596L28.4574 62.8521C26.0668 62.998 24.0068 61.2392 23.8562 58.9237C23.7056 56.6082 25.5214 54.6129 27.9119 54.467L28.0782 57.0231C27.9119 54.467 27.9119 54.467 27.9119 54.467L27.9126 54.4669L28.1819 54.4502C28.36 54.4391 28.6221 54.4226 28.9562 54.4011C29.6246 54.3581 30.5807 54.2954 31.7284 54.2166C34.0259 54.0588 37.0819 53.8373 40.1316 53.5814C41.2705 53.4858 42.4002 53.3861 43.4835 53.2839C42.4305 52.4303 41.3088 51.5389 40.1725 50.6537C37.6739 48.7072 35.1644 46.8372 33.2125 45.4944C32.8473 45.2431 32.5119 45.0174 32.2078 44.8178Z" fill="#FEA300"/>
<path d="M19.5127 31.7301C20.7818 30.3372 22.1161 29.8921 23.9441 29.9521C26.0765 30.0221 28.6651 30.7909 32.0125 32.0121C32.6659 32.2505 33.3507 32.5073 34.0597 32.7732L34.0609 32.7736C36.7237 33.7721 39.7268 34.8981 42.6806 35.6558C46.4969 36.6347 50.8109 37.1737 55.1732 36.0078C57.6707 35.3403 59.692 34.024 60.9928 33.0142C61.6664 32.4913 62.2064 32.0035 62.5862 31.6381C62.7772 31.4544 62.9306 31.2987 63.0432 31.1813C63.0996 31.1226 63.1459 31.0731 63.1818 31.0343C63.1998 31.0149 63.2152 30.9981 63.228 30.984L63.2451 30.9651L63.2522 30.9572L63.2554 30.9537L63.2569 30.952C63.2576 30.9513 63.2583 30.9505 60.1617 28.3498L63.2583 30.9504C64.8275 29.1975 64.6324 26.5444 62.8227 25.0245C61.0192 23.5098 58.2926 23.6922 56.7209 25.4284C56.7179 25.4316 56.7121 25.4378 56.7034 25.447C56.6988 25.4518 56.6935 25.4575 56.6874 25.4638C56.6472 25.5057 56.5748 25.5797 56.4735 25.6771C56.2687 25.8742 55.9581 26.1554 55.5679 26.4584C54.7408 27.1004 53.7812 27.6641 52.866 27.9087C50.5985 28.5147 48.0022 28.3294 44.9012 27.534C42.4575 26.9071 40.0564 26.0084 37.4623 25.0373C36.6843 24.7461 35.889 24.4484 35.07 24.1496C31.7596 22.9418 27.9569 21.6772 24.238 21.5551C20.2147 21.423 16.2378 22.6271 13.0091 26.1707C10.8576 28.532 9.70133 30.95 9.08238 32.8044C8.77284 33.7318 8.59461 34.5268 8.4919 35.1189C8.44043 35.4156 8.40756 35.6634 8.38663 35.8538C8.37615 35.9491 8.36864 36.0303 8.36327 36.0963C8.36058 36.1294 8.35843 36.1586 8.35671 36.184L8.35445 36.2191L8.35354 36.2345L8.35313 36.2416L8.35294 36.245C8.35285 36.2467 8.35276 36.2483 12.6838 36.47L8.35276 36.2483C8.22633 38.5652 10.0629 40.5426 12.4549 40.6651C14.8259 40.7865 16.8527 39.0395 17.011 36.7523L17.012 36.7433C17.0156 36.7103 17.0254 36.6306 17.0461 36.5111C17.0877 36.271 17.1722 35.8793 17.3359 35.3889C17.6634 34.4078 18.2956 33.0659 19.5127 31.7301Z" fill="#FEA300"/>
</svg>
